<svg width="50" height="50" viewBox="0 0 50 50" fill="none" xmlns="http://www.w3.org/2000/svg">
<path d="M35.2 34.6319C34.4048 34.4188 33.5763 34.527 32.8671 34.9364L25.5535 39.1587C25.4836 38.8125 25.3583 38.4754 25.1772 38.159C24.7357 37.3872 24.0234 36.8344 23.1716 36.6026L14.6229 34.2758C14.5892 34.2666 14.555 34.2597 14.5203 34.2551C13.1744 34.0772 11.9464 34.405 10.8693 35.2298L8.82595 36.7946L8.80925 36.7321C8.72048 36.4005 8.5075 36.1234 8.20955 35.9514C7.9115 35.7793 7.56482 35.7336 7.23367 35.8223L5.19958 36.3673C4.86814 36.4561 4.59099 36.6692 4.41892 36.9671C4.24695 37.2651 4.20125 37.6118 4.29001 37.943L7.23884 48.9486C7.32771 49.28 7.5407 49.5572 7.83865 49.7292C8.03728 49.8439 8.25749 49.9024 8.48035 49.9024C8.59187 49.9024 8.70398 49.8878 8.81443 49.8582L10.8485 49.3131C11.5336 49.1296 11.9417 48.4229 11.7582 47.7375L11.681 47.4497C12.808 46.6356 13.8191 46.4206 15.0816 46.71L19.9783 47.8326C20.4183 47.9334 20.8474 47.9838 21.2645 47.9838C22.1313 47.9838 22.9459 47.7662 23.6971 47.3324L35.9424 40.2628C37.4106 39.4151 37.9156 37.5306 37.0679 36.062C36.6586 35.353 35.9952 34.8451 35.2 34.6319ZM8.67673 48.2776L5.87078 37.8052L7.37146 37.4031L10.1775 47.8753L8.67673 48.2776ZM35.1611 38.9099L22.916 45.9795C22.1453 46.4245 21.2986 46.5326 20.3275 46.3098L15.4309 45.1873C13.9071 44.8378 12.5841 45.0439 11.2543 45.8571L9.26365 38.4277L11.8195 36.4704C12.5529 35.9087 13.3534 35.6887 14.2656 35.7978L22.7614 38.1102C23.2105 38.2325 23.5868 38.5253 23.8212 38.9348C24.0554 39.3444 24.1172 39.8172 23.9949 40.2664C23.7405 41.2009 22.7731 41.7541 21.8387 41.4999L17.2722 40.2569C16.8559 40.1436 16.4267 40.3892 16.3134 40.8055C16.2 41.2218 16.4456 41.6511 16.862 41.7644L21.4284 43.0074C21.7192 43.0866 22.0114 43.1243 22.2993 43.1243C23.6255 43.1242 24.8537 42.3218 25.3687 41.0696L33.6484 36.2895C33.996 36.0887 34.4034 36.036 34.7956 36.1411C35.1877 36.246 35.514 36.4955 35.7148 36.8431C36.1318 37.5658 35.8835 38.4928 35.1611 38.9099ZM45.977 24.4965C45.328 24.4965 44.7319 24.727 44.2661 25.1103L42.879 24.1831V20.3808H43.721C44.1524 20.3808 44.5022 20.031 44.5022 19.5996V16.4755C44.5022 16.0441 44.1524 15.6943 43.721 15.6943H41.214C40.8073 13.9964 40.1405 12.3876 39.2257 10.897L40.9992 9.12349C41.3043 8.81831 41.3043 8.32378 40.9992 8.0186L36.5811 3.60044C36.2761 3.29556 35.7814 3.29546 35.4763 3.60044L33.7026 5.37407C32.2113 4.45884 30.6027 3.79204 28.9053 3.3855V0.878662C28.9053 0.447217 28.5555 0.0974121 28.1241 0.0974121H21.876C21.4445 0.0974121 21.0947 0.447217 21.0947 0.878662V3.3855C19.3965 3.79233 17.7879 4.45913 16.2972 5.37397L14.5236 3.60044C14.2186 3.29546 13.7239 3.29546 13.4189 3.60044L9.00066 8.01851C8.85408 8.16509 8.77175 8.36372 8.77175 8.57095C8.77175 8.77817 8.85408 8.97681 9.00066 9.12339L10.7742 10.8968C9.85896 12.3881 9.19216 13.9967 8.78562 15.6943H6.27888C5.84744 15.6943 5.49763 16.0441 5.49763 16.4755V19.5996C5.49763 20.031 5.84744 20.3808 6.27888 20.3808H7.12087V24.1831L5.73376 25.1103C5.26785 24.727 4.67175 24.4965 4.02283 24.4965C2.53562 24.4965 1.32556 25.7066 1.32556 27.1938C1.32556 28.681 2.53562 29.891 4.02283 29.891C5.51003 29.891 6.72009 28.681 6.72009 27.1938C6.72009 26.9208 6.67898 26.6572 6.6032 26.4085L8.3363 25.2501C8.5532 25.1051 8.68337 24.8615 8.68337 24.6006V20.3809H11.2843V25.4835L9.94519 27.928C9.76599 27.8904 9.58035 27.8703 9.39011 27.8703C7.90291 27.8703 6.69294 29.0802 6.69294 30.5674C6.69294 32.0546 7.90291 33.2647 9.39011 33.2647C10.8773 33.2647 12.0873 32.0546 12.0873 30.5674C12.0873 29.8333 11.7922 29.1671 11.3147 28.6803L12.7508 26.0589C12.8138 25.9438 12.8468 25.8148 12.8468 25.6835V20.3809H13.3958C13.8272 20.3809 14.177 20.0311 14.177 19.5997C14.177 13.632 19.0322 8.77681 24.9999 8.77681C30.9676 8.77681 35.8227 13.632 35.8227 19.5997C35.8227 20.0311 36.1725 20.3809 36.604 20.3809H37.1531V25.6835C37.1531 25.8148 37.1861 25.9438 37.2491 26.0589L38.6851 28.6803C38.2077 29.1671 37.9126 29.8333 37.9126 30.5674C37.9126 32.0546 39.1225 33.2647 40.6097 33.2647C42.0969 33.2647 43.3069 32.0546 43.3069 30.5674C43.3069 29.0802 42.0969 27.8703 40.6097 27.8703C40.4195 27.8703 40.2339 27.8904 40.0547 27.928L38.7156 25.4835V20.3809H41.3165V24.6006C41.3165 24.8615 41.4467 25.1051 41.6636 25.2501L43.3967 26.4085C43.3209 26.6572 43.2798 26.9208 43.2798 27.1938C43.2798 28.681 44.4898 29.891 45.977 29.891C47.4642 29.891 48.6743 28.681 48.6743 27.1938C48.6743 25.7066 47.4643 24.4965 45.977 24.4965ZM4.02292 28.3285C3.39724 28.3285 2.88816 27.8195 2.88816 27.1938C2.88816 26.5681 3.39724 26.059 4.02292 26.059C4.64861 26.059 5.15769 26.5681 5.15769 27.1938C5.15769 27.8195 4.64861 28.3285 4.02292 28.3285ZM9.39011 31.7021C8.76443 31.7021 8.25545 31.193 8.25545 30.5673C8.25545 29.9417 8.76443 29.4327 9.39011 29.4327C10.0158 29.4327 10.5248 29.9417 10.5248 30.5673C10.5248 31.193 10.0158 31.7021 9.39011 31.7021ZM41.7445 30.5673C41.7445 31.193 41.2355 31.7021 40.6098 31.7021C39.9842 31.7021 39.4752 31.193 39.4752 30.5673C39.4752 29.9417 39.9842 29.4327 40.6098 29.4327C41.2355 29.4327 41.7445 29.9417 41.7445 30.5673ZM25 7.21431C18.4329 7.21431 13.0431 12.3514 12.6389 18.8184H7.06013V17.2569H9.41384C9.7864 17.2569 10.1072 16.9938 10.1801 16.6283C10.5664 14.6903 11.3203 12.8714 12.4207 11.2224C12.6274 10.9125 12.5867 10.4998 12.3232 10.2363L10.6578 8.57095L13.9712 5.25767L15.6367 6.9231C15.9 7.18638 16.3128 7.2272 16.6228 7.02046C18.2709 5.92036 20.0897 5.16665 22.0287 4.77993C22.394 4.70708 22.6572 4.38638 22.6572 4.01372V1.65991H27.3428V4.01382C27.3428 4.38638 27.6059 4.70718 27.9715 4.78003C29.9093 5.16626 31.728 5.92017 33.3771 7.02065C33.6871 7.22749 34.0997 7.18667 34.3632 6.92329L36.0288 5.25776L39.3421 8.57114L37.6765 10.2366C37.4132 10.5 37.3724 10.9128 37.5792 11.2228C38.6794 12.871 39.4332 14.6898 39.8197 16.6285C39.8926 16.9938 40.2133 17.257 40.5859 17.257H42.9398V18.8185H37.361C36.9568 12.3513 31.5671 7.21431 25 7.21431ZM45.977 28.3285C45.3513 28.3285 44.8423 27.8195 44.8423 27.1938C44.8423 26.5681 45.3513 26.059 45.977 26.059C46.6027 26.059 47.1118 26.5681 47.1118 27.1938C47.1118 27.8195 46.6027 28.3285 45.977 28.3285ZM24.346 35.9987H25.6539C27.1016 35.9987 28.2795 34.8209 28.2795 33.3731V33.094C29.0129 32.7873 29.5297 32.0626 29.5297 31.2194V29.002C29.5297 28.6069 29.7091 28.2912 30.0485 28.0888C33.0259 26.3148 34.8755 23.0619 34.8755 19.5996C34.8755 14.1542 30.4454 9.72427 25 9.72427C19.5547 9.72427 15.1246 14.1542 15.1246 19.5996C15.1246 23.062 16.9741 26.3149 19.9514 28.0889C20.291 28.2911 20.4704 28.6069 20.4704 29.002V31.2194C20.4704 32.0627 20.9872 32.7874 21.7206 33.0941V33.3732C21.7205 34.8209 22.8983 35.9987 24.346 35.9987ZM22.0329 30.6036H27.9672V31.2194C27.9672 31.4779 27.7568 31.6882 27.4982 31.6882H22.5017C22.2432 31.6882 22.0329 31.478 22.0329 31.2194V30.6036ZM23.1696 21.5305C22.0908 21.1989 21.3975 20.6048 21.3975 20.0544C21.3975 19.5659 21.795 19.1685 22.2836 19.1685C22.7721 19.1685 23.1695 19.5659 23.1695 20.0544V21.5305H23.1696ZM25.2677 29.0411H24.7322V23.3508C24.9095 23.3564 25.0904 23.3564 25.2677 23.3508V29.0411ZM25.6539 34.4362H24.346C23.7598 34.4362 23.283 33.9592 23.283 33.3731V33.2506H26.7169V33.3731C26.717 33.9593 26.24 34.4362 25.6539 34.4362ZM20.7511 26.7466C18.2443 25.2529 16.6871 22.5143 16.6871 19.5996C16.6871 15.0158 20.4163 11.2868 25 11.2868C29.5838 11.2868 33.313 15.0159 33.313 19.5996C33.313 22.5143 31.7556 25.2529 29.2488 26.7465C28.4343 27.2318 27.9672 28.0539 27.9672 29.002V29.0411H26.8302V23.1494C28.7974 22.6868 30.1648 21.4914 30.1648 20.0544C30.1648 18.7043 29.0665 17.606 27.7164 17.606C26.3663 17.606 25.2678 18.7043 25.2678 20.0544V21.7875C25.0914 21.7943 24.9087 21.7943 24.7323 21.7875V20.0544C24.7323 18.7043 23.634 17.606 22.2839 17.606C20.9338 17.606 19.8353 18.7043 19.8353 20.0544C19.8353 21.4915 21.2027 22.6868 23.1699 23.1494V29.0411H22.0331V29.002C22.0329 28.054 21.5657 27.2319 20.7511 26.7466ZM26.8302 21.5305V20.0544C26.8302 19.5659 27.2277 19.1685 27.7163 19.1685C28.2049 19.1685 28.6022 19.5659 28.6022 20.0544C28.6022 20.6049 27.9091 21.199 26.8302 21.5305Z" fill="#002FF5"/>
</svg>
