<svg width="50" height="50" viewBox="0 0 50 50" fill="none" xmlns="http://www.w3.org/2000/svg">
<g clip-path="url(#clip0_54_202)">
<path d="M49.5664 36.3789L44.4414 33.8164L41.1797 25.332C41.1413 25.2317 41.0826 25.1404 41.0073 25.0638C40.9321 24.9871 40.8418 24.9269 40.7422 24.8867L20.5039 16.7969C20.3624 16.7405 20.2075 16.7268 20.0583 16.7573C19.9091 16.7879 19.7721 16.8613 19.6641 16.9687L16.9648 19.668C16.8589 19.776 16.7866 19.9126 16.7568 20.061C16.7269 20.2094 16.7409 20.3633 16.7969 20.5039L24.8867 40.7422C24.9269 40.8418 24.9872 40.9321 25.0638 41.0073C25.1404 41.0826 25.2317 41.1413 25.332 41.1797L33.8164 44.4414L36.3789 49.5664C36.4329 49.6794 36.5132 49.7778 36.6131 49.8532C36.7131 49.9287 36.8297 49.979 36.9531 50C36.9947 50.0038 37.0365 50.0038 37.0781 50C37.285 49.9991 37.4831 49.9162 37.6289 49.7695L49.7695 37.6289C49.8589 37.5427 49.9264 37.4364 49.9665 37.3189C50.0066 37.2013 50.0181 37.076 50 36.9531C49.979 36.8297 49.9287 36.713 49.8532 36.6131C49.7778 36.5132 49.6794 36.4328 49.5664 36.3789ZM18.4336 20.4023L18.8672 19.9726L28.9414 30.0469C28.2775 30.9876 27.9907 32.1433 28.1379 33.2853C28.285 34.4274 28.8553 35.4726 29.736 36.2144C30.6168 36.9562 31.7437 37.3405 32.8942 37.2913C34.0446 37.2421 35.1347 36.7631 35.9489 35.9489C36.7631 35.1347 37.2421 34.0446 37.2913 32.8941C37.3405 31.7437 36.9562 30.6167 36.2144 29.736C35.4726 28.8553 34.4274 28.285 33.2854 28.1379C32.1433 27.9907 30.9877 28.2775 30.0469 28.9414L19.9727 18.8672L20.4023 18.4336L39.8437 26.2109L42.9102 34.1875L34.1875 42.9101L26.2109 39.8437L18.4336 20.4023ZM32.6953 29.6601C33.3975 29.6612 34.0775 29.9056 34.6196 30.3518C35.1618 30.7981 35.5324 31.4184 35.6684 32.1073C35.8045 32.7961 35.6975 33.5108 35.3657 34.1296C35.0339 34.7484 34.4978 35.233 33.8487 35.5009C33.1997 35.7688 32.4779 35.8033 31.8062 35.5987C31.1345 35.3941 30.5546 34.9629 30.1652 34.3786C29.7758 33.7943 29.601 33.0931 29.6706 32.3945C29.7402 31.6958 30.0499 31.0428 30.5469 30.5469C31.1172 29.9783 31.89 29.6594 32.6953 29.6601ZM37.293 47.8984L35.3398 43.9922L43.9844 35.3476L47.8906 37.3008L37.293 47.8984Z" fill="#002FF5"/>
<path d="M14.9415 41.7968C14.7921 41.6556 14.5943 41.5769 14.3888 41.5769C14.1832 41.5769 13.9854 41.6556 13.836 41.7968L12.8438 42.789C10.1961 39.1954 8.73543 34.8653 8.66541 30.4022C8.59539 25.9391 9.9195 21.5654 12.4532 17.8905C13.2123 18.3082 14.0863 18.4687 14.9443 18.3479C15.8023 18.227 16.598 17.8314 17.2122 17.2203C17.8264 16.6092 18.226 15.8155 18.3511 14.9581C18.4763 14.1008 18.3202 13.2259 17.9063 12.4648C21.5812 9.93105 25.9549 8.60694 30.418 8.67696C34.8811 8.74698 39.2112 10.2076 42.8048 12.8554L41.797 13.8359C41.6517 13.9823 41.5702 14.1803 41.5704 14.3866C41.5698 14.4895 41.5895 14.5914 41.6284 14.6866C41.6673 14.7817 41.7246 14.8683 41.797 14.9413L45.2423 18.3593C45.3886 18.5048 45.5867 18.5865 45.7931 18.5865C45.9994 18.5865 46.1975 18.5048 46.3438 18.3593L49.7696 14.9335C49.8423 14.861 49.8999 14.7748 49.9392 14.6799C49.9785 14.5851 49.9987 14.4834 49.9987 14.3808C49.9987 14.2781 49.9785 14.1764 49.9392 14.0816C49.8999 13.9868 49.8423 13.9006 49.7696 13.828L46.3438 10.4023C46.1975 10.2568 45.9994 10.1751 45.7931 10.1751C45.5867 10.1751 45.3886 10.2568 45.2423 10.4023L43.9181 11.7187C40.6544 9.26279 36.7959 7.71982 32.7388 7.24821C28.6816 6.77659 24.5721 7.39332 20.8321 9.03507L25.336 4.54288C25.8467 4.7869 26.4273 4.84213 26.9748 4.69879C27.5224 4.55544 28.0014 4.22279 28.327 3.75984C28.6526 3.29688 28.8037 2.73356 28.7535 2.16981C28.7032 1.60606 28.4549 1.07833 28.0526 0.680235C27.6503 0.28214 27.12 0.0394205 26.5557 -0.0048631C25.9915 -0.0491466 25.4298 0.107868 24.9703 0.438327C24.5108 0.768785 24.1832 1.25132 24.0457 1.80033C23.9081 2.34935 23.9694 2.92934 24.2188 3.43742L16.6173 11.0507C15.8455 10.533 14.9178 10.2993 13.9928 10.3895C13.0679 10.4798 12.2029 10.8884 11.5457 11.5456C10.8886 12.2027 10.48 13.0677 10.3897 13.9927C10.2994 14.9177 10.5331 15.8453 11.0509 16.6171L3.43758 24.2187C2.92752 23.9701 2.34585 23.9105 1.79595 24.0503C1.24604 24.1901 0.763514 24.5203 0.434107 24.9823C0.1047 25.4443 -0.0502527 26.0081 -0.00321547 26.5736C0.0438217 27.139 0.289802 27.6695 0.691015 28.0707C1.09223 28.4719 1.62269 28.7179 2.18814 28.7649C2.75359 28.812 3.3174 28.657 3.77939 28.3276C4.24138 27.9982 4.57163 27.5157 4.71144 26.9658C4.85126 26.4159 4.7916 25.8342 4.54305 25.3241L9.04696 20.8319C7.40357 24.5709 6.78489 28.6799 7.25445 32.737C7.724 36.7941 9.26486 40.6531 11.7188 43.9179L10.3985 45.2421C10.253 45.3885 10.1713 45.5865 10.1713 45.7929C10.1713 45.9993 10.253 46.1973 10.3985 46.3437L13.8243 49.7694C13.9701 49.9162 14.1682 49.999 14.3751 49.9999C14.4782 50 14.5803 49.9797 14.6755 49.9401C14.7707 49.9006 14.8571 49.8426 14.9298 49.7694L18.3595 46.3437C18.505 46.1973 18.5866 45.9993 18.5866 45.7929C18.5866 45.5865 18.505 45.3885 18.3595 45.2421L14.9415 41.7968ZM45.8009 12.0507L48.1212 14.371L45.8009 16.6913L43.4805 14.371L45.8009 12.0507ZM25.7813 1.80851C25.8974 1.69147 26.0457 1.61155 26.2072 1.5789C26.3688 1.54625 26.5365 1.56233 26.6889 1.6251C26.8413 1.68788 26.9717 1.79452 27.0634 1.93149C27.1551 2.06847 27.2041 2.2296 27.2041 2.39445C27.2041 2.5593 27.1551 2.72043 27.0634 2.8574C26.9717 2.99437 26.8413 3.10101 26.6889 3.16379C26.5365 3.22656 26.3688 3.24265 26.2072 3.20999C26.0457 3.17734 25.8974 3.09742 25.7813 2.98038C25.7043 2.90347 25.6432 2.81213 25.6016 2.71159C25.5599 2.61105 25.5384 2.50328 25.5384 2.39445C25.5384 2.28561 25.5599 2.17784 25.6016 2.0773C25.6432 1.97676 25.7043 1.88542 25.7813 1.80851ZM12.6563 12.6562C12.8832 12.4282 13.1528 12.2473 13.4498 12.1239C13.7468 12.0005 14.0652 11.937 14.3868 11.937C14.7084 11.937 15.0268 12.0005 15.3238 12.1239C15.6208 12.2473 15.8904 12.4282 16.1173 12.6562C16.4602 12.9985 16.6938 13.4349 16.7887 13.9101C16.8835 14.3854 16.8352 14.878 16.65 15.3258C16.4647 15.7735 16.1508 16.1563 15.7479 16.4256C15.3451 16.6949 14.8714 16.8386 14.3868 16.8386C13.9022 16.8386 13.4285 16.6949 13.0257 16.4256C12.6228 16.1563 12.3089 15.7735 12.1236 15.3258C11.9384 14.878 11.8901 14.3854 11.9849 13.9101C12.0798 13.4349 12.3134 12.9985 12.6563 12.6562ZM2.98446 26.953C2.82496 27.0861 2.62149 27.1546 2.41402 27.1452C2.20656 27.1359 2.0101 27.0492 1.86325 26.9024C1.71639 26.7555 1.62977 26.5591 1.6204 26.3516C1.61102 26.1441 1.67957 25.9407 1.81258 25.7812C1.96891 25.6275 2.17933 25.5414 2.39852 25.5414C2.61771 25.5414 2.82813 25.6275 2.98446 25.7812C3.06147 25.8581 3.12256 25.9494 3.16424 26.05C3.20592 26.1505 3.22738 26.2583 3.22738 26.3671C3.22738 26.4759 3.20592 26.5837 3.16424 26.6843C3.12256 26.7848 3.06147 26.8761 2.98446 26.953ZM14.3868 48.0976L12.0665 45.7773L14.3868 43.4569L16.7071 45.7773L14.3868 48.0976Z" fill="#002FF5"/>
</g>
<defs>
<clipPath id="clip0_54_202">
<rect width="50" height="50" fill="white"/>
</clipPath>
</defs>
</svg>
