<svg width="65" height="65" viewBox="0 0 65 65" fill="none" xmlns="http://www.w3.org/2000/svg">
<g clip-path="url(#clip0_58_310)">
<path fill-rule="evenodd" clip-rule="evenodd" d="M6.31052 55.3221C7.67781 55.3221 8.78778 56.4322 8.78778 57.7993C8.78778 59.1666 7.67781 60.2767 6.31052 60.2767C4.94322 60.2767 3.83325 59.1666 3.83325 57.7993C3.83325 56.4322 4.94322 55.3221 6.31052 55.3221ZM10.4121 45.8281C11.7793 45.8281 12.8894 46.9382 12.8894 48.3055C12.8894 49.6727 11.7793 50.7828 10.4121 50.7828C9.04485 50.7828 7.93475 49.6727 7.93475 48.3055C7.93475 46.9382 9.04485 45.8281 10.4121 45.8281ZM54.5867 45.8281C55.9539 45.8281 57.0641 46.9382 57.0641 48.3055C57.0641 49.6727 55.9539 50.7828 54.5867 50.7828C53.2195 50.7828 52.1094 49.6727 52.1094 48.3055C52.1094 46.9382 53.2195 45.8281 54.5867 45.8281ZM59.5413 55.3221C60.9086 55.3221 62.0186 56.4322 62.0186 57.7993C62.0186 59.1666 60.9086 60.2767 59.5413 60.2767C58.174 60.2767 57.0641 59.1666 57.0641 57.7993C57.0641 56.4322 58.174 55.3221 59.5413 55.3221ZM24.2549 55.137C25.6221 55.137 26.7322 56.2471 26.7322 57.6143C26.7322 58.9816 25.6221 60.0917 24.2549 60.0917C22.8877 60.0917 21.7776 58.9816 21.7776 57.6143C21.7776 56.2471 22.8877 55.137 24.2549 55.137ZM41.5969 55.137C42.9641 55.137 44.0742 56.2471 44.0742 57.6143C44.0742 58.9816 42.9641 60.0917 41.5969 60.0917C40.2297 60.0917 39.1196 58.9816 39.1196 57.6143C39.1196 56.2471 40.2297 55.137 41.5969 55.137Z" fill="#002FF5"/>
<path fill-rule="evenodd" clip-rule="evenodd" d="M32.5012 34.6064C34.0709 34.6064 35.3429 35.8818 35.3429 37.4515C35.3429 38.4765 34.805 39.373 33.9932 39.8736V44.2104C33.9932 45.0324 33.32 45.7023 32.5012 45.7023C31.6792 45.7023 31.0094 45.0324 31.0094 44.2104V39.8736C30.1975 39.373 29.6562 38.4765 29.6562 37.4515C29.6562 35.8818 30.9317 34.6064 32.5012 34.6064Z" fill="#002FF5"/>
<path fill-rule="evenodd" clip-rule="evenodd" d="M24.5107 30.9225H22.7212C21.9161 30.9225 21.2597 31.5788 21.2597 32.3805V41.6592H12.123C6.51046 41.6592 1.91113 37.0665 1.91113 31.4473C1.91113 27.1924 4.55867 23.5183 8.27999 21.992C8.26648 21.6813 8.25297 21.3638 8.25297 21.0532C8.25297 12.0368 15.5606 4.729 24.5771 4.729C28.9806 4.729 32.9856 6.47827 35.9168 9.3217C37.4702 8.76793 39.1452 8.46396 40.8944 8.46396C48.4858 8.46396 54.7398 14.2115 55.5368 21.5934C59.8728 22.7687 63.0876 26.7534 63.0876 31.4473C63.0876 37.0665 58.495 41.6592 52.8757 41.6592H43.739V32.3805C43.739 31.5788 43.0861 30.9225 42.281 30.9225H40.488V27.5667C40.488 23.1724 36.8954 19.5764 32.501 19.5764C28.1068 19.5764 24.5107 23.1724 24.5107 27.5667V30.9225ZM36.8312 30.9225H28.171V27.5667C28.171 25.1886 30.1262 23.2332 32.501 23.2332C34.8758 23.2332 36.8312 25.1886 36.8312 27.5667V30.9225Z" fill="#002FF5"/>
<path fill-rule="evenodd" clip-rule="evenodd" d="M9.39258 42.3409C4.52574 41.1134 0.891602 36.6859 0.891602 31.4474C0.891602 27.0228 3.49339 23.1683 7.23675 21.343C7.23471 21.246 7.23344 21.1494 7.23344 21.0533C7.23344 11.4737 14.9976 3.70947 24.5772 3.70947C29.0315 3.70947 33.102 5.39412 36.1698 8.16236C37.6599 7.69703 39.2463 7.44442 40.8945 7.44442C48.7793 7.44442 55.3143 13.2438 56.4632 20.8103C60.8946 22.3129 64.1073 26.526 64.1073 31.4474C64.1073 36.6868 60.4772 41.1147 55.6063 42.3414V44.9596C57.0396 45.3964 58.0837 46.7299 58.0837 48.3053C58.0837 50.2353 56.5168 51.8022 54.5867 51.8022C52.6567 51.8022 51.0898 50.2353 51.0898 48.3053C51.0898 46.7299 52.1339 45.3964 53.5671 44.9596V42.6577C53.3384 42.6717 53.1079 42.6789 52.8758 42.6789H50.1825V56.5945H56.2578C56.7492 55.2573 58.0346 54.3023 59.5414 54.3023C61.4713 54.3023 63.0382 55.8692 63.0382 57.7992C63.0382 59.7292 61.4713 61.2962 59.5414 61.2962C57.8989 61.2962 56.5195 60.1613 56.1448 58.6337H49.1629C48.6002 58.6337 48.1433 58.1769 48.1433 57.6141C48.1433 57.5477 48.1497 57.4826 48.1619 57.4196C48.1497 57.3567 48.1433 57.2917 48.1433 57.2251V42.6789H44.7587V47.9283C44.7587 49.2964 43.6491 50.406 42.2811 50.406H35.0905L39.5005 54.8159C40.0848 54.3772 40.8108 54.1172 41.5969 54.1172C43.527 54.1172 45.0939 55.6841 45.0939 57.6141C45.0939 59.5442 43.527 61.1111 41.5969 61.1111C39.6669 61.1111 38.1 59.5442 38.1 57.6141C38.1 57.2194 38.1657 56.8398 38.2864 56.4858L32.4994 50.6987L27.3012 55.897C27.5881 56.4043 27.7519 56.9902 27.7519 57.6141C27.7519 59.5442 26.1849 61.1111 24.2549 61.1111C22.3249 61.1111 20.758 59.5442 20.758 57.6141C20.758 55.6841 22.3249 54.1172 24.2549 54.1172C24.8194 54.1172 25.3529 54.2513 25.8251 54.4893L29.9084 50.406H22.7213C21.3537 50.406 20.2402 49.2958 20.2402 47.9283V42.6789H16.8556V57.6141C16.8556 58.1769 16.3987 58.6337 15.836 58.6337H9.70713C9.33243 60.1613 7.95302 61.2962 6.31056 61.2962C4.38057 61.2962 2.81369 59.7292 2.81369 57.7992C2.81369 55.8692 4.38057 54.3023 6.31056 54.3023C7.81729 54.3023 9.10276 55.2573 9.59408 56.5945H14.8164V42.6789H12.1231C11.891 42.6789 11.6604 42.6717 11.4318 42.6576V44.9596C12.865 45.3964 13.9091 46.7299 13.9091 48.3053C13.9091 50.2353 12.3422 51.8022 10.4122 51.8022C8.48207 51.8022 6.91519 50.2353 6.91519 48.3053C6.91519 46.7299 7.95927 45.3964 9.39258 44.9596V42.3409ZM54.4303 40.5074C58.7542 39.7638 62.0681 35.976 62.0681 31.4474C62.0681 27.222 59.1734 23.6355 55.2701 22.5776C54.8648 22.4677 54.5682 22.1205 54.5231 21.703C53.7813 14.8324 47.96 9.48364 40.8945 9.48364C39.2656 9.48364 37.7058 9.76645 36.2593 10.2821C35.8936 10.4125 35.4856 10.3239 35.207 10.0536C32.4593 7.38822 28.705 5.74869 24.5772 5.74869C16.1239 5.74869 9.27265 12.5999 9.27265 21.0533C9.27265 21.3492 9.28591 21.6516 9.29878 21.9477C9.31739 22.3772 9.06478 22.7722 8.667 22.9353C5.31645 24.3096 2.93082 27.6163 2.93082 31.4474C2.93082 35.9756 6.249 39.7629 10.5688 40.5071C10.5793 40.5088 10.5896 40.5106 10.6001 40.5125C11.0957 40.5961 11.6046 40.6397 12.1231 40.6397H20.2402V32.3806C20.2402 31.0189 21.3537 29.9029 22.7213 29.9029H23.4912V27.5668C23.4912 22.6117 27.5461 18.5569 32.5011 18.5569C37.4564 18.5569 41.5077 22.6116 41.5077 27.5668V29.9029H42.2811C43.6491 29.9029 44.7587 31.0183 44.7587 32.3806V40.6397H52.8758C53.3945 40.6397 53.9034 40.5962 54.3992 40.5127C54.4095 40.5108 54.4199 40.509 54.4303 40.5074ZM54.5867 46.8476C53.7822 46.8476 53.129 47.5007 53.129 48.3053C53.129 49.1098 53.7822 49.763 54.5867 49.763C55.3913 49.763 56.0445 49.1098 56.0445 48.3053C56.0445 47.5007 55.3913 46.8476 54.5867 46.8476ZM32.9971 48.3668H42.2811C42.5231 48.3668 42.7195 48.1704 42.7195 47.9283V32.3806C42.7195 32.1396 42.5231 31.9422 42.2811 31.9422H22.7213C22.4785 31.9422 22.2794 32.1389 22.2794 32.3806V47.9283C22.2794 48.171 22.4785 48.3668 22.7213 48.3668H32.0018C32.3099 48.1943 32.689 48.1943 32.9971 48.3668ZM40.3629 56.8384C40.2212 57.0631 40.1392 57.3291 40.1392 57.6141C40.1392 58.4187 40.7924 59.0719 41.5969 59.0719C42.4015 59.0719 43.0547 58.4187 43.0547 57.6141C43.0547 56.8096 42.4015 56.1564 41.5969 56.1564C41.089 56.1564 40.6414 56.4168 40.3805 56.8113C40.3746 56.8203 40.3688 56.8294 40.3629 56.8384ZM25.2403 56.5403C24.9807 56.302 24.6347 56.1564 24.2549 56.1564C23.4504 56.1564 22.7972 56.8096 22.7972 57.6141C22.7972 58.4187 23.4504 59.0719 24.2549 59.0719C25.0595 59.0719 25.7127 58.4187 25.7127 57.6141C25.7127 57.2008 25.5401 56.8273 25.2633 56.5619C25.2556 56.5547 25.248 56.5476 25.2403 56.5403ZM10.4122 46.8476C9.60759 46.8476 8.95441 47.5007 8.95441 48.3053C8.95441 49.1098 9.60759 49.763 10.4122 49.763C11.2167 49.763 11.8698 49.1098 11.8698 48.3053C11.8698 47.5007 11.2167 46.8476 10.4122 46.8476ZM39.4685 29.9029V27.5668C39.4685 23.7333 36.3346 20.5961 32.5011 20.5961C28.6675 20.5961 25.5304 23.7332 25.5304 27.5668V29.9029H27.1515V27.5668C27.1515 24.6289 29.5674 22.2137 32.5011 22.2137C35.4349 22.2137 37.8509 24.6289 37.8509 27.5668V29.9029H39.4685ZM29.1907 29.9029H35.8116V27.5668C35.8116 25.7484 34.3169 24.2529 32.5011 24.2529C30.6853 24.2529 29.1907 25.7484 29.1907 27.5668V29.9029ZM32.5011 33.5869C34.6336 33.5869 36.3624 35.319 36.3624 37.4516C36.3624 38.6282 35.8401 39.6801 35.0127 40.3882V44.2105C35.0127 45.5943 33.8794 46.722 32.5011 46.722C31.1172 46.722 29.9897 45.5943 29.9897 44.2105V40.3883C29.1615 39.6802 28.6365 38.6282 28.6365 37.4516C28.6365 35.3194 30.369 33.5869 32.5011 33.5869ZM32.5011 35.6261C31.494 35.6261 30.6757 36.4445 30.6757 37.4516C30.6757 38.1094 31.0234 38.6846 31.5445 39.0059C31.8456 39.1914 32.0289 39.52 32.0289 39.8737V44.2105C32.0289 44.4707 32.241 44.6828 32.5011 44.6828C32.7603 44.6828 32.9734 44.4707 32.9734 44.2105V39.8737C32.9734 39.52 33.1567 39.1914 33.4578 39.0059C33.9786 38.6846 34.3231 38.1091 34.3231 37.4516C34.3231 36.4447 33.508 35.6261 32.5011 35.6261ZM59.5414 56.3415C58.7369 56.3415 58.0837 56.9947 58.0837 57.7992C58.0837 58.6038 58.7369 59.2569 59.5414 59.2569C60.3458 59.2569 60.999 58.6038 60.999 57.7992C60.999 56.9947 60.3458 56.3415 59.5414 56.3415ZM6.31056 56.3415C5.50609 56.3415 4.85291 56.9947 4.85291 57.7992C4.85291 58.6038 5.50609 59.2569 6.31056 59.2569C7.11503 59.2569 7.76822 58.6038 7.76822 57.7992C7.76822 56.9947 7.11503 56.3415 6.31056 56.3415ZM14.4492 21.0533C14.4492 21.616 13.9924 22.0729 13.4296 22.0729C12.8669 22.0729 12.41 21.616 12.41 21.0533C12.41 14.3329 17.8569 8.88602 24.5772 8.88602C25.1399 8.88602 25.5968 9.34293 25.5968 9.90563C25.5968 10.4685 25.1399 10.9252 24.5772 10.9252C18.9831 10.9252 14.4492 15.4592 14.4492 21.0533Z" fill="#002FF5"/>
</g>
<defs>
<clipPath id="clip0_58_310">
<rect width="65" height="65" fill="white" transform="translate(-0.000488281 0.00292969)"/>
</clipPath>
</defs>
</svg>
