<svg width="65" height="65" viewBox="0 0 65 65" fill="none" xmlns="http://www.w3.org/2000/svg">
<path fill-rule="evenodd" clip-rule="evenodd" d="M22.6249 27.6929C22.3739 27.8364 22.1349 27.9923 21.9019 28.1614C22.0035 28.202 22.1051 28.2415 22.2126 28.2791C22.344 28.0801 22.4815 27.8841 22.6249 27.6929ZM39.4221 58.8052H13.8648C12.7593 58.8052 11.8211 59.4577 11.8211 60.2309V61.6567H41.4597V60.2309C41.4598 59.4576 40.5276 58.8052 39.4221 58.8052ZM18.938 14.3208C18.938 13.7023 18.436 13.1998 17.8205 13.1998C17.1991 13.1998 16.6971 13.7023 16.6971 14.3208C16.6971 14.9374 17.1991 15.4407 17.8205 15.4407C18.436 15.4407 18.938 14.9376 18.938 14.3208ZM26.6405 10.2355C27.2619 10.2355 27.7639 9.73414 27.7639 9.11563C27.7639 8.49774 27.2619 7.99463 26.6405 7.99463C26.025 7.99463 25.523 8.49774 25.523 9.11563C25.523 9.73414 26.025 10.2355 26.6405 10.2355ZM35.4662 15.4407C36.0817 15.4407 36.5837 14.9376 36.5837 14.3208C36.5837 13.7023 36.0817 13.1998 35.4662 13.1998C34.8448 13.1998 34.3428 13.7023 34.3428 14.3208C34.343 14.9376 34.8448 15.4407 35.4662 15.4407ZM55.5919 53.2246C55.5919 51.325 54.0502 49.7802 52.1499 49.7802C50.2497 49.7802 48.708 51.3249 48.708 53.2246C48.708 55.1236 50.2497 56.6683 52.1499 56.6683C54.0503 56.6683 55.5919 55.1237 55.5919 53.2246ZM47.9671 23.7736C47.9671 22.9394 47.2858 22.2619 46.4553 22.2619H6.83159C5.99497 22.2619 5.31983 22.9396 5.31983 23.7736V46.0618C5.31983 46.6216 5.77394 47.0777 6.33571 47.0777H43.623C43.5274 47.3251 43.5274 47.6064 43.6349 47.8604L44.1071 48.9236C43.8262 49.4529 43.5991 50.0075 43.4199 50.5812L42.3382 50.9977C42.2784 51.0204 42.2247 51.0498 42.1709 51.0814H6.92122C5.50505 51.0814 4.35168 49.9299 4.35168 48.5131V23.8638C4.35168 22.4482 5.50493 21.2966 6.92122 21.2966H46.3597C47.7759 21.2966 48.9292 22.4481 48.9292 23.8638V44.6956C48.6006 44.8199 48.278 44.9634 47.9672 45.1259V23.7736H47.9671ZM31.0683 41.0572C30.9368 41.2591 30.7994 41.4557 30.65 41.6499C30.901 41.5053 31.146 41.3475 31.379 41.1766C31.2774 41.1361 31.1759 41.0955 31.0683 41.0572ZM27.6562 40.3604V41.8991C28.1403 41.4772 28.5765 41.0123 28.9648 40.511C28.5347 40.4412 28.0985 40.3904 27.6562 40.3604ZM24.3219 40.511C24.7044 41.0123 25.1405 41.4772 25.6246 41.8991V40.3604C25.1824 40.3904 24.7462 40.4412 24.3219 40.511ZM22.6309 41.65C22.4874 41.4558 22.3441 41.2593 22.2126 41.0573C22.111 41.0955 22.0035 41.1361 21.9019 41.1767C22.1349 41.3465 22.3799 41.5042 22.6309 41.65ZM30.662 27.6929C30.8054 27.8841 30.9428 28.0801 31.0743 28.2791C31.1759 28.2414 31.2774 28.202 31.379 28.1614C31.146 27.9923 30.907 27.8364 30.662 27.6929ZM27.6562 27.439V28.979C28.0984 28.9474 28.5346 28.8964 28.9648 28.8254C28.5825 28.3252 28.1403 27.8603 27.6562 27.439ZM25.6246 27.439C25.1405 27.8603 24.7044 28.3252 24.316 28.8254C24.7462 28.8964 25.1824 28.9472 25.6246 28.979V27.439Z" fill="#002FF5"/>
<path fill-rule="evenodd" clip-rule="evenodd" d="M47.6624 17.0857C47.6385 16.5258 48.0747 16.0513 48.6304 16.0256C50.1841 15.9545 51.6181 16.4976 52.6698 17.5541C53.7275 18.6094 54.2713 20.0436 54.1996 21.5937C54.1757 22.1385 53.7275 22.5634 53.1897 22.5634C53.1718 22.5634 53.1538 22.5634 53.1418 22.5628C52.5802 22.5372 52.1438 22.0621 52.1738 21.5021C52.2157 20.5299 51.881 19.6378 51.2356 18.99C50.5903 18.3423 49.6999 18.0112 48.7259 18.0542C48.1584 18.0812 47.6863 17.6457 47.6624 17.0857ZM47.7999 14.034C47.8237 14.5938 48.3019 15.0295 48.8635 15.0026C50.6501 14.9225 52.2934 15.5368 53.4945 16.7344C54.6896 17.9324 55.3051 19.577 55.2214 21.3642C55.1976 21.9254 55.6338 22.4004 56.1954 22.4256H56.2372C56.7811 22.4256 57.2291 22.0013 57.2531 21.4569C57.3606 19.0918 56.536 16.9041 54.9286 15.2986C53.3212 13.6923 51.1341 12.8659 48.7678 12.9729C48.2121 12.9978 47.7759 13.4728 47.7999 14.034ZM47.9372 10.9805C47.9671 11.5416 48.4392 11.9772 49.0009 11.9492C51.6002 11.8326 53.9963 12.7302 55.7473 14.4798C57.4981 16.2277 58.3945 18.6232 58.2749 21.2268C58.251 21.7866 58.6873 22.2618 59.2429 22.2868C59.2608 22.2886 59.2787 22.2886 59.2907 22.2886C59.8344 22.2886 60.2826 21.8632 60.3065 21.3188C60.45 18.138 59.3385 15.1993 57.1813 13.0427C55.0242 10.8855 52.0901 9.77711 48.9053 9.92044C48.3496 9.94608 47.9134 10.4206 47.9372 10.9805ZM20.3303 29.6732C20.6232 29.822 20.9278 29.9588 21.2386 30.0844C20.7605 31.2041 20.4618 32.4065 20.3541 33.6531H18.6512C18.8424 32.1614 19.44 30.7966 20.3303 29.6732ZM34.6298 33.6529H32.9267C32.8251 32.4064 32.5203 31.2041 32.0423 30.0843C32.359 29.9588 32.6638 29.822 32.9506 29.6731C33.841 30.7966 34.4386 32.1614 34.6298 33.6529ZM32.9506 39.6643C32.6578 39.5149 32.353 39.3775 32.0364 39.2519C32.5145 38.1334 32.8192 36.9323 32.9267 35.6846H34.6298C34.4386 37.176 33.841 38.5409 32.9506 39.6643ZM25.6246 35.6846V38.3197C24.788 38.3694 23.9754 38.4822 23.2045 38.6537C22.7802 37.7257 22.5054 36.7254 22.3978 35.6846H25.6246ZM25.6246 31.0189V33.6529H22.3919C22.4994 32.6125 22.7742 31.6117 23.1985 30.6825C23.9694 30.8551 24.788 30.968 25.6246 31.0189ZM22.2126 28.279C22.1051 28.2413 22.0035 28.2024 21.902 28.1613C22.135 27.9922 22.3741 27.8362 22.625 27.6929C22.4815 27.8841 22.344 28.0801 22.2126 28.279ZM25.6246 27.439V28.9789C25.1824 28.9473 24.7462 28.8964 24.316 28.8253C24.7044 28.3251 25.1407 27.8602 25.6246 27.439ZM30.662 27.6929C30.907 27.8363 31.146 27.9922 31.379 28.1613C31.2774 28.2024 31.1759 28.2414 31.0743 28.279C30.9428 28.0801 30.8054 27.8841 30.662 27.6929ZM27.6562 28.9788V27.4388C28.1403 27.8601 28.5825 28.325 28.9649 28.8252C28.5347 28.8964 28.0985 28.9472 27.6562 28.9788ZM27.6562 33.6529V31.0189C28.4988 30.9681 29.3114 30.8551 30.0823 30.6825C30.5066 31.6117 30.7814 32.6125 30.889 33.6529H27.6562ZM27.6562 38.3197V35.6846H30.883C30.7755 36.7254 30.5006 37.7258 30.0763 38.6537C29.3056 38.4824 28.4988 38.3694 27.6562 38.3197ZM31.0684 41.0571C31.1759 41.0953 31.2776 41.1359 31.379 41.1766C31.146 41.3474 30.901 41.5052 30.65 41.6498C30.7995 41.4557 30.9368 41.2591 31.0684 41.0571ZM27.6562 41.899V40.3604C28.0984 40.3902 28.5346 40.441 28.9649 40.5109C28.5765 41.0124 28.1403 41.4772 27.6562 41.899ZM22.6309 41.65C22.3799 41.5041 22.1349 41.3464 21.902 41.1767C22.0035 41.1361 22.1112 41.0954 22.2126 41.0572C22.344 41.2591 22.4875 41.4557 22.6309 41.65ZM25.6246 41.899C25.1405 41.4772 24.7044 41.0123 24.3219 40.5109C24.7462 40.441 25.1824 40.3902 25.6246 40.3604V41.899ZM20.3541 35.6846C20.4676 36.9323 20.7665 38.1334 21.2446 39.2519C20.9278 39.3774 20.6232 39.5149 20.3303 39.6643C19.44 38.5409 18.8424 37.1761 18.6512 35.6846H20.3541ZM26.6405 44.7554C32.2037 44.7554 36.7272 40.2308 36.7272 34.6687C36.7272 29.1066 32.2037 24.5838 26.6405 24.5838C21.0773 24.5838 16.5538 29.1066 16.5538 34.6687C16.5538 40.2308 21.0773 44.7554 26.6405 44.7554ZM52.1501 56.6683C50.2498 56.6683 48.7081 55.1236 48.7081 53.2245C48.7081 51.3249 50.2498 49.7802 52.1501 49.7802C54.0503 49.7802 55.592 51.3248 55.592 53.2245C55.5919 55.1236 54.0503 56.6683 52.1501 56.6683ZM52.1501 47.7485C49.1324 47.7485 46.6765 50.2051 46.6765 53.2245C46.6765 56.2433 49.1324 58.6999 52.1501 58.6999C55.1677 58.6999 57.6236 56.2433 57.6236 53.2245C57.6236 50.2051 55.1677 47.7485 52.1501 47.7485ZM60.5815 53.806V52.6431L59.6673 52.2912C59.3566 52.1704 59.1236 51.904 59.0459 51.5788C58.8726 50.8492 58.5858 50.1549 58.1854 49.5143C58.0121 49.2293 57.9883 48.8761 58.1256 48.5702L58.526 47.6739L57.7013 46.8511L56.805 47.2497C56.5002 47.386 56.1478 47.3615 55.8609 47.1864C55.2216 46.7914 54.5224 46.5045 53.7933 46.3307C53.4706 46.2537 53.2017 46.0199 53.0823 45.7075L52.7297 44.792H51.5705L51.218 45.7075C51.0985 46.0201 50.8295 46.2537 50.5009 46.3307C49.7718 46.5046 49.0787 46.7914 48.4393 47.1864C48.1526 47.3615 47.8 47.386 47.4952 47.2497L46.5988 46.8511L45.7742 47.6739L46.1746 48.5702C46.3121 48.8761 46.2881 49.2305 46.1089 49.5143C45.7204 50.1549 45.4276 50.8492 45.2543 51.5788C45.1767 51.904 44.9436 52.1704 44.6329 52.2912L43.7186 52.6431V53.806L44.6329 54.1574C44.9436 54.2781 45.1767 54.5446 45.2543 54.8709C45.4276 55.5998 45.7204 56.2943 46.1089 56.9349C46.2881 57.2199 46.312 57.5736 46.1746 57.8796L45.7742 58.7759L46.5988 59.5976L47.4952 59.2002C47.7999 59.064 48.1524 59.0872 48.4393 59.2636C49.0787 59.6567 49.7718 59.9453 50.5009 60.1192C50.8296 60.1969 51.0985 60.4287 51.218 60.7413L51.5705 61.6568H52.7297L53.0823 60.7426C53.2017 60.4289 53.4708 60.197 53.7933 60.1194C54.5223 59.9454 55.2214 59.6569 55.8609 59.2637C56.1478 59.0886 56.5002 59.0641 56.805 59.2003L57.7013 59.5977L58.526 58.7761L58.1256 57.8785C57.9881 57.5726 58.0121 57.22 58.1854 56.9338C58.5858 56.2945 58.8726 55.6001 59.0459 54.8711C59.1236 54.5448 59.3567 54.2784 59.6673 54.1576L60.5815 53.806ZM32.9506 56.774H20.3303V53.1128H32.9506V56.774ZM41.4598 60.2308V61.6566H11.8211V60.2308C11.8211 59.4576 12.7593 58.8051 13.8648 58.8051H39.4221C40.5276 58.8051 41.4598 59.4576 41.4598 60.2308ZM45.9354 44.7262V24.2928H7.35148V45.0458H45.5292L45.6546 44.9215C45.7383 44.839 45.8339 44.7757 45.9354 44.7262ZM4.3517 48.5128C4.3517 49.9296 5.50494 51.0811 6.92123 51.0811H42.1709C42.2247 51.0494 42.2784 51.0201 42.3382 50.9974L43.4199 50.5809C43.5991 50.0072 43.8263 49.4526 44.1071 48.9232L43.6349 47.8601C43.5274 47.6062 43.5274 47.3248 43.623 47.0773H6.3356C5.77396 47.0773 5.31972 46.6213 5.31972 46.0615V23.7736C5.31972 22.9394 5.99498 22.2618 6.83147 22.2618H46.4552C47.2859 22.2618 47.967 22.9395 47.967 23.7736V45.1259C48.2777 44.9634 48.6004 44.82 48.929 44.6957V23.8637C48.929 22.4482 47.7758 21.2966 46.3595 21.2966H6.92123C5.50507 21.2966 4.3517 22.448 4.3517 23.8637V48.5128ZM18.938 14.3208C18.938 14.9374 18.436 15.4406 17.8205 15.4406C17.1991 15.4406 16.6971 14.9375 16.6971 14.3208C16.6971 13.7022 17.1991 13.1998 17.8205 13.1998C18.436 13.1999 18.938 13.7024 18.938 14.3208ZM26.6405 10.2354C26.025 10.2354 25.523 9.73407 25.523 9.11556C25.523 8.49768 26.025 7.99456 26.6405 7.99456C27.2619 7.99456 27.7639 8.49768 27.7639 9.11556C27.7639 9.73407 27.2619 10.2354 26.6405 10.2354ZM34.343 14.3208C34.343 13.7022 34.845 13.1998 35.4664 13.1998C36.0819 13.1998 36.5838 13.7022 36.5838 14.3208C36.5838 14.9374 36.0819 15.4406 35.4664 15.4406C34.8448 15.4406 34.343 14.9375 34.343 14.3208ZM12.2933 15.1521C12.2933 17.4197 14.1397 19.2656 16.4105 19.2656H22.7326V15.3349H20.8025C20.3783 16.5766 19.201 17.4717 17.8208 17.4717C16.0819 17.4717 14.6656 16.0574 14.6656 14.3208C14.6656 12.5825 16.0819 11.1686 17.8208 11.1686C19.2012 11.1686 20.3784 12.0632 20.8025 13.3037H23.7485C24.3101 13.3037 24.7644 13.7596 24.7644 14.3196V19.2656H25.6249V12.0979C24.388 11.6749 23.4917 10.4983 23.4917 9.11556C23.4917 7.37782 24.9019 5.96344 26.6407 5.96344C28.3796 5.96344 29.7958 7.37782 29.7958 9.11556C29.7958 10.4983 28.8994 11.6749 27.6565 12.0979V19.2656H28.517V14.3196C28.517 13.7598 28.9711 13.3037 29.5329 13.3037H32.4788C32.9031 12.0632 34.0803 11.1686 35.4665 11.1686C37.2054 11.1686 38.6156 12.5824 38.6156 14.3208C38.6156 16.0572 37.2054 17.4717 35.4665 17.4717C34.0802 17.4717 32.9031 16.5766 32.4788 15.3349H30.5487V19.2656H36.8768C39.1416 19.2656 40.988 17.4198 40.988 15.1521C40.988 13.3026 39.7391 11.6701 37.9464 11.1825C37.546 11.0732 37.2473 10.7277 37.2055 10.3118C36.853 7.06894 34.1221 4.62434 30.8595 4.62434C30.1186 4.62434 29.3895 4.74862 28.7023 4.99605C28.3378 5.12694 27.9315 5.03909 27.6506 4.77021C26.3061 3.46754 24.5314 2.75051 22.6611 2.75051C18.6993 2.75051 15.4785 5.97131 15.4785 9.93072C15.4785 10.0639 15.4845 10.1996 15.4904 10.346C15.5203 10.7786 15.2633 11.1789 14.863 11.344C13.303 11.982 12.2933 13.4777 12.2933 15.1521ZM61.9619 50.9974L60.8802 50.5809C60.707 50.0072 60.4739 49.4526 60.193 48.9232L60.6652 47.8601C60.8325 47.4758 60.7488 47.0259 60.45 46.7296L58.6454 44.9214C58.3465 44.6245 57.8984 44.542 57.516 44.7117L56.4524 45.1843C55.9206 44.8998 55.3648 44.6698 54.7912 44.4971L54.3729 43.4119C54.2235 43.0193 53.847 42.7605 53.4287 42.7605H50.9609V23.8636C50.9609 21.3282 48.8993 19.2655 46.3597 19.2655H41.436C42.4159 18.1749 43.0195 16.733 43.0195 15.1519C43.0195 12.6171 41.4479 10.3559 39.1234 9.43687C38.3825 5.49117 34.9405 2.59245 30.8593 2.59245C30.0884 2.59245 29.3356 2.69401 28.6065 2.896C26.9452 1.48834 24.8597 0.71875 22.6608 0.71875C17.6353 0.71875 13.5361 4.76538 13.4525 9.77102C11.4924 10.8448 10.2675 12.8885 10.2675 15.1521C10.2675 16.7331 10.865 18.1751 11.8509 19.2656H6.92123C4.38763 19.2656 2.32007 21.3283 2.32007 23.8637V48.5128C2.32007 51.0494 4.38763 53.1128 6.92123 53.1128H18.3046V56.774H13.8648C11.618 56.774 9.78948 58.3241 9.78948 60.2308V62.6719C9.78948 63.233 10.2496 63.6878 10.8054 63.6878H42.4757C43.0375 63.6878 43.4916 63.233 43.4916 62.6719V60.2308C43.4916 58.324 41.6631 56.774 39.4222 56.774H34.9824V53.1128H41.687V54.5027C41.687 54.9228 41.9439 55.2998 42.3382 55.451L43.4199 55.8687C43.5991 56.4424 43.8263 56.9974 44.1071 57.5251L43.6349 58.5882C43.4676 58.973 43.5513 59.4224 43.8501 59.7193L45.6548 61.5269C45.9535 61.8238 46.4018 61.9075 46.7841 61.7378L47.8477 61.2651C48.3796 61.5483 48.9294 61.7784 49.503 61.9523L49.9213 63.0362C50.0767 63.4288 50.4531 63.6876 50.8714 63.6876H53.429C53.8473 63.6876 54.2237 63.4289 54.3731 63.0362L54.7914 61.9523C55.371 61.7784 55.9208 61.5483 56.4526 61.2651L57.5162 61.7378C57.8986 61.9075 58.3468 61.8238 58.6456 61.5269L60.4503 59.7193C60.7491 59.4224 60.8326 58.973 60.6654 58.5882L60.1933 57.5251C60.4741 56.9957 60.7072 56.4423 60.8745 55.8687L61.962 55.451C62.3565 55.2998 62.6133 54.9228 62.6133 54.5027V51.9457C62.6132 51.5256 62.3562 51.1486 61.9619 50.9974Z" fill="#002FF5"/>
</svg>
