<svg width="28" height="28" viewBox="0 0 28 28" fill="none" xmlns="http://www.w3.org/2000/svg">
<path d="M10.5 10.5H17.5" stroke="#00A9A4" stroke-width="1.5" stroke-linecap="round" stroke-linejoin="round"/>
<path d="M10.5 14H17.5" stroke="#00A9A4" stroke-width="1.5" stroke-linecap="round" stroke-linejoin="round"/>
<path d="M10.5 17.5H14" stroke="#00A9A4" stroke-width="1.5" stroke-linecap="round" stroke-linejoin="round"/>
<path d="M17.1376 23.625H5.25C5.01794 23.625 4.79538 23.5328 4.63128 23.3687C4.46719 23.2046 4.375 22.9821 4.375 22.75V5.25C4.375 5.01794 4.46719 4.79538 4.63128 4.63128C4.79538 4.46719 5.01794 4.375 5.25 4.375H22.75C22.9821 4.375 23.2046 4.46719 23.3687 4.63128C23.5328 4.79538 23.625 5.01794 23.625 5.25V17.1376C23.625 17.2525 23.6024 17.3663 23.5584 17.4724C23.5144 17.5786 23.45 17.675 23.3687 17.7563L17.7563 23.3687C17.675 23.45 17.5786 23.5144 17.4724 23.5584C17.3663 23.6024 17.2525 23.625 17.1376 23.625V23.625Z" stroke="#00A9A4" stroke-width="1.5" stroke-linecap="round" stroke-linejoin="round"/>
<path d="M23.5458 17.499H17.5V23.5453" stroke="#00A9A4" stroke-width="1.5" stroke-linecap="round" stroke-linejoin="round"/>
</svg>
