<svg width="65" height="65" viewBox="0 0 65 65" fill="none" xmlns="http://www.w3.org/2000/svg">
<path fill-rule="evenodd" clip-rule="evenodd" d="M56.3356 23.1005C56.7803 24.2228 57.146 25.3771 57.4268 26.5512C57.4656 26.7133 57.5811 26.8476 57.7369 26.9076L62.4595 28.7267V36.2756L57.7369 38.094C57.5812 38.154 57.4656 38.2879 57.427 38.4499C56.7987 41.0892 55.7516 43.6037 54.3303 45.9149C54.2427 46.0573 54.2278 46.2349 54.2961 46.3883L56.3557 51.0172L51.017 56.356L46.3906 54.3001C46.2354 54.2312 46.0577 54.2432 45.9133 54.3322C43.6044 55.756 41.084 56.7994 38.4456 57.4279C38.2838 57.4665 38.1505 57.5841 38.0909 57.7393L36.2748 62.4615H28.7243L26.9097 57.7416C26.8471 57.5858 26.716 57.4666 26.5482 57.4268C25.3738 57.1482 24.2215 56.781 23.0982 56.3401L22.6303 56.1566L22.8091 55.6868C23.6705 53.4241 23.7119 50.9258 22.9342 48.6315L22.8328 48.3323L25.822 45.3474L26.1474 45.5063C28.119 46.4695 30.3022 46.973 32.4966 46.973C40.4776 46.973 46.9733 40.4824 46.9733 32.5005C46.9733 30.3046 46.4684 28.1215 45.507 26.1478L45.3485 25.8225L48.3307 22.8368L48.6298 22.938C50.9227 23.7142 53.4217 23.6718 55.6833 22.8128L56.1512 22.6351L56.3356 23.1005ZM49.7609 15.2378L48.5697 10.7879L50.4692 8.88848L51.0176 8.64612L56.3604 13.9896L56.1068 14.534L54.211 16.431L49.7609 15.2378ZM42.1598 16.6683L42.0594 16.3701C41.287 14.0758 41.3289 11.5775 42.1846 9.31453L42.3616 8.84646L41.8962 8.66263C40.7754 8.21981 39.6237 7.85419 38.4513 7.57553C38.2879 7.53668 38.1513 7.42153 38.0909 7.26424L36.2749 2.53955H28.7243L26.9097 7.26056C26.8471 7.41607 26.7156 7.53566 26.5478 7.57553C23.9103 8.20318 21.395 9.24839 19.0861 10.6699C18.9435 10.7577 18.7675 10.77 18.6144 10.7021L13.9821 8.64574L8.64346 13.985L10.7017 18.6109C10.7666 18.762 10.757 18.9425 10.6687 19.086C9.24712 21.3968 8.20052 23.9124 7.5721 26.5516C7.53363 26.7132 7.41747 26.8478 7.26221 26.9074L2.53955 28.7266V36.2756L7.26233 38.0928C7.41849 38.1528 7.53338 38.2882 7.5721 38.4503C7.85254 39.6228 8.21766 40.7764 8.65653 41.8993L8.83947 42.3674L9.30933 42.1894C11.574 41.3315 14.073 41.286 16.3694 42.0623L16.6683 42.1634L19.6504 39.1778L19.492 38.8526C18.5304 36.8786 18.0257 34.6967 18.0257 32.5004C18.0257 24.5224 24.5181 18.0273 32.4964 18.0273C34.6936 18.0273 36.8776 18.5312 38.8518 19.4946L39.1776 19.6536L42.1598 16.6683ZM15.2383 49.7637L16.4295 54.2137L14.53 56.113L13.9816 56.3552L8.63876 51.0127L8.89241 50.4683L10.7882 48.5712L15.2383 49.7637Z" fill="#002FF5"/>
<path fill-rule="evenodd" clip-rule="evenodd" d="M61.9517 35.9267L57.5543 37.62C57.2437 37.7395 57.0106 38.006 56.933 38.3322C56.3177 40.9174 55.2959 43.379 53.8978 45.6488C53.7245 45.9344 53.6947 46.2875 53.832 46.5946L55.7499 50.9048L50.9045 55.7502L46.5969 53.8359C46.2861 53.7003 45.9337 53.7242 45.6469 53.8999C43.3825 55.2974 40.9149 56.3178 38.3279 56.9338C38.0053 57.0108 37.7364 57.2433 37.617 57.557L35.9261 61.9538H29.0731L27.3824 57.5559C27.2569 57.2434 26.994 57.0097 26.6653 56.9326C25.5182 56.6596 24.3889 56.301 23.2837 55.8674C24.1739 53.5289 24.2456 50.9186 23.4151 48.4684L25.9244 45.9626C27.9618 46.9581 30.2202 47.4807 32.4966 47.4807C40.7595 47.4807 47.4811 40.7611 47.4811 32.5004C47.4811 30.2187 46.9554 27.9614 45.9635 25.9254L48.4669 23.4189C50.9164 24.2482 53.5275 24.1747 55.8635 23.2875C56.2998 24.3881 56.6581 25.5215 56.933 26.6692C57.0107 26.9954 57.2437 27.2624 57.5543 27.3814L61.9517 29.0752V35.9267ZM45.4497 32.5003C45.4497 30.7647 45.0972 29.0457 44.428 27.4588L27.4599 44.4299C29.0432 45.0991 30.7639 45.4492 32.4966 45.4492C39.6364 45.4492 45.4497 39.6412 45.4497 32.5003ZM19.3404 58.3037C21.8975 55.7502 22.6623 51.9396 21.3 48.5955C21.1447 48.2173 21.2343 47.783 21.5211 47.4932L47.4929 21.5225C47.7797 21.2333 48.2159 21.1454 48.5923 21.3002C51.9382 22.6648 55.7499 21.8971 58.3012 19.3441C60.2789 17.3659 61.1929 14.6414 60.8584 11.9373L55.0809 17.7154C54.8239 17.9717 54.4536 18.072 54.1011 17.9777L49.0823 16.6334C48.7358 16.5396 48.4609 16.2654 48.3654 15.9152L47.021 10.8989C46.9314 10.5488 47.027 10.1742 47.2839 9.91783L53.0614 4.14146C50.3609 3.80631 47.6365 4.71923 45.6588 6.6969C43.1016 9.25107 42.3368 13.0611 43.6992 16.4051C43.8544 16.7845 43.7649 17.2189 43.4781 17.5081L39.971 21.0158C39.971 21.0158 39.971 21.0176 39.9651 21.0176L17.5062 43.4788C17.2194 43.7685 16.7832 43.8563 16.4069 43.7011C13.061 42.3353 9.24928 43.1036 6.69803 45.6578C4.72035 47.6354 3.80629 50.3598 4.14081 53.0639L9.91832 47.2864C10.1753 47.03 10.5456 46.9297 10.8981 47.0234L15.9169 48.3677C16.2634 48.4621 16.5382 48.7346 16.6339 49.0853L17.9782 54.1022C18.0678 54.4529 17.9663 54.8257 17.7153 55.0827L11.9378 60.8602C14.6383 61.1955 17.3629 60.2813 19.3404 58.3037ZM14.0947 55.7501L9.24928 50.9046L9.31504 50.7636L10.9402 49.1373L14.8237 50.1781L15.8633 54.0616L14.2382 55.6867L14.0947 55.7501ZM20.5712 37.543L37.5393 20.5714C35.9559 19.9028 34.2353 19.5509 32.4966 19.5509C25.3568 19.5509 19.5495 25.3607 19.5495 32.5004C19.5495 34.2365 19.902 35.956 20.5712 37.543ZM8.0662 38.3322C8.34105 39.4799 8.69957 40.614 9.12969 41.7145C11.4718 40.8272 14.0826 40.7532 16.5323 41.5813L19.0357 39.075C18.044 37.0388 17.5181 34.7829 17.5181 32.5005C17.5181 24.2406 24.2396 17.5197 32.4966 17.5197C34.7789 17.5197 37.0373 18.0442 39.0746 19.0384L41.578 16.532C40.7536 14.0829 40.8252 11.4733 41.7095 9.13479C40.6101 8.70035 39.481 8.34247 38.3339 8.06952C38.0053 7.99183 37.7364 7.75823 37.617 7.44631L35.9261 3.047H29.0731L27.3824 7.44618C27.2569 7.75811 26.994 7.9917 26.6653 8.06939C24.0843 8.6841 21.6228 9.70468 19.3523 11.1022C19.0655 11.279 18.713 11.3017 18.4083 11.166L14.0947 9.25107L9.24928 14.0971L11.1672 18.4073C11.2986 18.7133 11.2747 19.0663 11.1014 19.352C9.70339 21.6205 8.68167 24.0833 8.06633 26.6692C7.98863 26.9942 7.75567 27.2613 7.44502 27.3814L3.04762 29.0752V35.9268L7.44502 37.6189C7.75555 37.7395 7.98851 38.006 8.0662 38.3322ZM50.9046 9.25107L55.75 14.0971L55.6843 14.2382L54.0592 15.8644L50.1757 14.823L49.136 10.9396L50.7612 9.31442L50.9046 9.25107ZM63.3319 27.4296L58.7793 25.6767C58.4865 24.5606 58.128 23.46 57.6979 22.3895C58.4269 21.9413 59.1139 21.4059 59.7412 20.7798C62.6808 17.8397 63.7024 13.5564 62.4059 9.60185C62.2984 9.26542 62.0236 9.01151 61.6771 8.92912C61.3365 8.84724 60.9721 8.94943 60.7271 9.19915L57.226 12.6991L52.3029 7.77601L55.804 4.27489C56.049 4.02632 56.1505 3.66425 56.0729 3.32008C55.9892 2.97718 55.7324 2.70169 55.3978 2.59111C51.4425 1.29759 47.1588 2.32108 44.2192 5.26119C43.5977 5.88669 43.0601 6.57389 42.6119 7.30514C41.5365 6.87616 40.4372 6.51295 39.3259 6.22375L37.5691 1.66689C37.4197 1.27499 37.0434 1.01562 36.6251 1.01562H28.3741C27.9559 1.01562 27.5794 1.27499 27.4301 1.66689L25.6736 6.22375C23.2419 6.85344 20.9177 7.81663 18.7489 9.09518L14.2799 7.11217C13.8975 6.94065 13.4494 7.02432 13.1507 7.32189L7.31934 13.1537C7.02062 13.4507 6.93695 13.9 7.11024 14.2835L9.09389 18.7483C7.81534 20.9172 6.85342 23.2425 6.22005 25.6765L1.66738 27.4295C1.27307 27.5807 1.01611 27.9565 1.01611 28.3764V36.6232C1.01611 37.0438 1.27307 37.4208 1.66738 37.5714L6.22005 39.325C6.50684 40.441 6.87132 41.5405 7.30144 42.6117C6.57247 43.0586 5.8854 43.5957 5.25813 44.2212C2.31853 47.1619 1.29693 51.4452 2.58741 55.3998C2.70091 55.735 2.97576 55.9901 3.31638 56.0714C3.66283 56.1539 4.02135 56.0522 4.27233 55.8025L7.77345 52.3008L12.6966 57.225L9.19545 60.7268C8.95043 60.9753 8.8429 61.3374 8.92656 61.6803C9.01022 62.0238 9.26705 62.2998 9.6017 62.4098C10.7309 62.7796 11.89 62.9595 13.0372 62.9595C15.8991 62.9595 18.6773 61.8386 20.7804 59.7403C21.4017 59.1142 21.9395 58.4276 22.3877 57.6952C23.4571 58.1254 24.5625 58.4887 25.6737 58.7778L27.4302 63.3341C27.5795 63.7254 27.9559 63.9841 28.3743 63.9841H36.6252C37.0435 63.9841 37.4198 63.7254 37.5692 63.3341L39.3256 58.7793C41.7573 58.1483 44.0814 57.1846 46.2503 55.9066L50.7133 57.8896C51.1017 58.0593 51.5498 57.9756 51.8485 57.6787L57.6799 51.848C57.9726 51.5505 58.0563 51.1012 57.889 50.7164L55.9053 46.2527C57.184 44.0822 58.1458 41.7574 58.7792 39.3251L63.3318 37.5715C63.7261 37.421 63.9831 37.0439 63.9831 36.6233V28.3766C63.9831 27.9566 63.7263 27.5808 63.3319 27.4296Z" fill="#57A4FF"/>
</svg>
