<svg width="50" height="50" viewBox="0 0 50 50" fill="none" xmlns="http://www.w3.org/2000/svg">
<g clip-path="url(#clip0_52_185)">
<path d="M39.8385 17.2775C39.8583 17.1075 39.8216 16.9357 39.7343 16.7886C39.6469 16.6414 39.5135 16.5271 39.3548 16.4631L33.7236 14.1918C31.5863 13.3385 29.6179 12.1121 27.91 10.5698L25.525 8.40569C25.3813 8.27533 25.1942 8.20312 25.0001 8.20312C24.8061 8.20312 24.6189 8.27533 24.4752 8.40569L22.0903 10.5698C20.3824 12.1121 18.4139 13.3385 16.2767 14.1918L10.6454 16.4631C10.4867 16.5271 10.3534 16.6414 10.266 16.7886C10.1786 16.9357 10.142 17.1075 10.1617 17.2775L10.6897 21.8277C11.6594 30.1834 16.6253 37.6434 24.3135 42.2947L24.595 42.4652C24.7172 42.5391 24.8573 42.5781 25.0001 42.5781C25.1429 42.5781 25.283 42.5391 25.4052 42.4652L25.686 42.2947C33.3749 37.6434 38.3409 30.1834 39.3106 21.8277L39.8385 17.2775ZM37.7587 21.6476C36.8501 29.4754 32.203 36.4788 25.0001 40.8832C17.7972 36.4792 13.1501 29.4758 12.2415 21.6476L11.7822 17.6891L16.861 15.6406C19.1694 14.7186 21.2955 13.3934 23.14 11.7271L25.0001 10.0391L26.8602 11.7271C28.7047 13.3935 30.8308 14.7186 33.1392 15.6406L38.2181 17.6891L37.7587 21.6476Z" fill="#002FF5"/>
<path d="M25 49.2188C28.9385 49.2182 32.8177 48.2594 36.3029 46.425L35.5721 45.0433C31.1589 47.3694 26.1015 48.1744 21.1843 47.3332C16.2671 46.4921 11.7648 44.0519 8.37578 40.3911C4.98676 36.7304 2.90042 32.0536 2.44034 27.0862C1.98025 22.1188 3.17215 17.1384 5.83115 12.9174L4.50974 12.0828C2.20106 15.7472 0.917053 19.9635 0.791442 24.2927C0.665832 28.6219 1.70321 32.9056 3.79554 36.6977C5.88787 40.4898 8.95863 43.6516 12.688 45.8538C16.4174 48.056 20.669 49.218 25 49.2188Z" fill="#002FF5"/>
<path d="M25 2.34377C29.0515 2.34452 33.0287 3.43148 36.5174 5.49144C40.0061 7.55141 42.8788 10.509 44.8361 14.0563C46.7935 17.6036 47.7641 21.6108 47.6467 25.6606C47.5293 29.7104 46.3284 33.6547 44.1688 37.0827L45.4902 37.9173C48.3321 33.4051 49.6057 28.0812 49.1136 22.7714C48.6215 17.4615 46.3912 12.4624 42.7685 8.54926C39.1458 4.63612 34.3332 2.02762 29.077 1.12828C23.8207 0.228949 18.4146 1.08904 13.697 3.57516L14.4279 4.95685C17.6877 3.24091 21.3161 2.34408 25 2.34377Z" fill="#002FF5"/>
<path d="M30.4688 17.1875H19.5312C18.9099 17.1882 18.3141 17.4353 17.8747 17.8747C17.4353 18.3141 17.1882 18.9099 17.1875 19.5312V21.0938C17.1893 21.6723 17.4066 22.2294 17.7971 22.6562C17.4066 23.0831 17.1893 23.6402 17.1875 24.2188V25.7812C17.1893 26.3598 17.4066 26.9169 17.7971 27.3438C17.4066 27.7706 17.1893 28.3277 17.1875 28.9062V30.4688C17.1882 31.0901 17.4353 31.6859 17.8747 32.1253C18.3141 32.5647 18.9099 32.8118 19.5312 32.8125H30.4688C31.0901 32.8118 31.6859 32.5647 32.1253 32.1253C32.5647 31.6859 32.8118 31.0901 32.8125 30.4688V28.9062C32.8107 28.3277 32.5934 27.7706 32.2029 27.3438C32.5934 26.9169 32.8107 26.3598 32.8125 25.7812V24.2188C32.8107 23.6402 32.5934 23.0831 32.2029 22.6562C32.5934 22.2294 32.8107 21.6723 32.8125 21.0938V19.5312C32.8118 18.9099 32.5647 18.3141 32.1253 17.8747C31.6859 17.4353 31.0901 17.1882 30.4688 17.1875ZM31.25 30.4688C31.2498 30.6759 31.1674 30.8745 31.0209 31.0209C30.8745 31.1674 30.6759 31.2498 30.4688 31.25H19.5312C19.3241 31.2498 19.1255 31.1674 18.9791 31.0209C18.8326 30.8745 18.7502 30.6759 18.75 30.4688V28.9062C18.7502 28.6991 18.8326 28.5005 18.9791 28.3541C19.1255 28.2076 19.3241 28.1252 19.5312 28.125H30.4688C30.6759 28.1252 30.8745 28.2076 31.0209 28.3541C31.1674 28.5005 31.2498 28.6991 31.25 28.9062V30.4688ZM31.25 25.7812C31.2498 25.9884 31.1674 26.187 31.0209 26.3334C30.8745 26.4799 30.6759 26.5623 30.4688 26.5625H19.5312C19.3241 26.5623 19.1255 26.4799 18.9791 26.3334C18.8326 26.187 18.7502 25.9884 18.75 25.7812V24.2188C18.7502 24.0116 18.8326 23.813 18.9791 23.6666C19.1255 23.5201 19.3241 23.4377 19.5312 23.4375H30.4688C30.6759 23.4377 30.8745 23.5201 31.0209 23.6666C31.1674 23.813 31.2498 24.0116 31.25 24.2188V25.7812ZM31.25 21.0938C31.2498 21.3009 31.1674 21.4995 31.0209 21.6459C30.8745 21.7924 30.6759 21.8748 30.4688 21.875H19.5312C19.3241 21.8748 19.1255 21.7924 18.9791 21.6459C18.8326 21.4995 18.7502 21.3009 18.75 21.0938V19.5312C18.7502 19.3241 18.8326 19.1255 18.9791 18.9791C19.1255 18.8326 19.3241 18.7502 19.5312 18.75H30.4688C30.6759 18.7502 30.8745 18.8326 31.0209 18.9791C31.1674 19.1255 31.2498 19.3241 31.25 19.5312V21.0938Z" fill="#002FF5"/>
<path d="M19.5312 19.5312H21.0938V21.0938H19.5312V19.5312Z" fill="#002FF5"/>
<path d="M24.2188 19.5312H30.4688V21.0938H24.2188V19.5312Z" fill="#002FF5"/>
<path d="M19.5312 24.2188H21.0938V25.7812H19.5312V24.2188Z" fill="#002FF5"/>
<path d="M24.2188 24.2188H30.4688V25.7812H24.2188V24.2188Z" fill="#002FF5"/>
<path d="M19.5312 28.9062H21.0938V30.4688H19.5312V28.9062Z" fill="#002FF5"/>
<path d="M24.2188 28.9062H30.4688V30.4688H24.2188V28.9062Z" fill="#002FF5"/>
<path d="M38.2812 45.3125H42.9688C43.0714 45.3125 43.173 45.2923 43.2678 45.2531C43.3626 45.2138 43.4487 45.1563 43.5212 45.0837C43.5938 45.0112 43.6513 44.9251 43.6906 44.8303C43.7298 44.7355 43.75 44.6339 43.75 44.5312V39.8438C43.75 39.7411 43.7298 39.6395 43.6906 39.5447C43.6513 39.4499 43.5938 39.3638 43.5212 39.2913C43.4487 39.2187 43.3626 39.1612 43.2678 39.1219C43.173 39.0827 43.0714 39.0625 42.9688 39.0625H38.2812C38.1786 39.0625 38.077 39.0827 37.9822 39.1219C37.8874 39.1612 37.8013 39.2187 37.7288 39.2913C37.6562 39.3638 37.5987 39.4499 37.5594 39.5447C37.5202 39.6395 37.5 39.7411 37.5 39.8438V44.5312C37.5 44.6339 37.5202 44.7355 37.5594 44.8303C37.5987 44.9251 37.6562 45.0112 37.7288 45.0837C37.8013 45.1563 37.8874 45.2138 37.9822 45.2531C38.077 45.2923 38.1786 45.3125 38.2812 45.3125ZM39.0625 40.625H42.1875V43.75H39.0625V40.625Z" fill="#002FF5"/>
<path d="M7.03125 10.9375H11.7188C11.8214 10.9375 11.923 10.9173 12.0178 10.8781C12.1126 10.8388 12.1987 10.7813 12.2712 10.7087C12.3438 10.6362 12.4013 10.5501 12.4406 10.4553C12.4798 10.3605 12.5 10.2589 12.5 10.1562V5.46875C12.5 5.36615 12.4798 5.26454 12.4406 5.16975C12.4013 5.07495 12.3438 4.98881 12.2712 4.91626C12.1987 4.84371 12.1126 4.78617 12.0178 4.74691C11.923 4.70766 11.8214 4.68747 11.7188 4.6875H7.03125C6.92865 4.68747 6.82704 4.70766 6.73225 4.74691C6.63745 4.78617 6.55131 4.84371 6.47876 4.91626C6.40621 4.98881 6.34867 5.07495 6.30941 5.16975C6.27016 5.26454 6.24997 5.36615 6.25 5.46875V10.1562C6.24997 10.2589 6.27016 10.3605 6.30941 10.4553C6.34867 10.5501 6.40621 10.6362 6.47876 10.7087C6.55131 10.7813 6.63745 10.8388 6.73225 10.8781C6.82704 10.9173 6.92865 10.9375 7.03125 10.9375ZM7.8125 6.25H10.9375V9.375H7.8125V6.25Z" fill="#002FF5"/>
</g>
<defs>
<clipPath id="clip0_52_185">
<rect width="50" height="50" fill="white"/>
</clipPath>
</defs>
</svg>
