<svg width="55" height="55" viewBox="0 0 55 55" fill="none" xmlns="http://www.w3.org/2000/svg">
<path d="M9.99024 11.6554L11.5908 14.964L15.2217 15.4581C15.9414 15.5548 16.1992 16.4464 15.7051 16.9191L13.0518 19.465L13.707 23.0744C13.8359 23.7833 13.084 24.3204 12.4609 23.9767L9.22754 22.2365L5.99415 23.9767C5.3711 24.3097 4.58692 23.7941 4.75879 23.0206L5.40333 19.4542L2.75001 16.9083C2.23438 16.4142 2.51368 15.5333 3.24415 15.4367L6.86426 14.9425L8.46485 11.6339C8.76563 11.0001 9.68946 11.0109 9.99024 11.6554ZM10.2481 16.1242L9.22754 13.9972L8.19629 16.1242C8.07813 16.3712 7.83106 16.5646 7.54102 16.6076L5.20997 16.9191L6.91797 18.5519C7.11133 18.7452 7.21875 19.0245 7.16504 19.3146L6.7461 21.6349L8.8086 20.5285C9.05567 20.3995 9.36719 20.3781 9.62501 20.5285L11.6982 21.6456L11.29 19.3683C11.2256 19.089 11.3008 18.7775 11.5264 18.5519L13.2344 16.9191L10.9248 16.6076C10.6455 16.5753 10.377 16.3927 10.2481 16.1242ZM28.2734 3.86732L29.874 7.17591L33.5156 7.67005C34.2354 7.76673 34.4932 8.65833 33.999 9.14173L31.3457 11.6876L32.001 15.297C32.1299 16.006 31.3779 16.5431 30.7549 16.1993L27.5 14.4591L24.2666 16.1993C23.6436 16.5324 22.8594 16.0167 23.0313 15.2433L23.6758 11.6769L21.0117 9.13099C20.4961 8.63685 20.7754 7.75599 21.5059 7.65931L25.126 7.16517L26.7266 3.86732C27.0488 3.21204 27.9619 3.22279 28.2734 3.86732ZM28.5313 8.33607L27.5 6.20911L26.4795 8.33607C26.3613 8.58314 26.1143 8.7765 25.8242 8.81947L23.4824 9.13099L25.1904 10.7638C25.3945 10.9572 25.4912 11.2365 25.4375 11.5265L25.0186 13.8468L27.0918 12.7404C27.3389 12.6115 27.6397 12.59 27.9082 12.7404L29.9815 13.8576L29.5732 11.5802C29.5088 11.3009 29.584 10.9894 29.8096 10.7638L31.5176 9.13099L29.208 8.80872C28.918 8.78724 28.6602 8.60462 28.5313 8.33607ZM46.5459 11.6554L48.1465 14.964L51.7774 15.4581C52.4971 15.5548 52.7656 16.4464 52.2607 16.9191L49.6074 19.465L50.2627 23.0744C50.3916 23.7833 49.6397 24.3204 49.0166 23.9767L45.7832 22.2365L42.5498 23.9767C41.9268 24.3097 41.1426 23.7941 41.3037 23.0206L41.9482 19.4542L39.2949 16.9083C38.7793 16.4142 39.0586 15.5333 39.7891 15.4367L43.4092 14.9425L45.0098 11.6339C45.3213 11.0001 46.2451 11.0109 46.5459 11.6554ZM46.8037 16.1242L45.7832 13.9972L44.752 16.1242C44.6338 16.3712 44.3975 16.5646 44.0967 16.6076L41.7656 16.9191L43.4629 18.5519C43.6563 18.7452 43.7637 19.0245 43.71 19.3146L43.291 21.6349L45.3643 20.5285C45.6113 20.3995 45.9229 20.3781 46.1807 20.5285L48.2647 21.6456L47.8565 19.3683C47.792 19.089 47.8672 18.7775 48.0928 18.5519L49.79 16.9191L47.4805 16.6076C47.2012 16.5753 46.9326 16.3927 46.8037 16.1242ZM23.5147 33.591C23.2783 33.1827 23.418 32.6564 23.8262 32.42C24.2344 32.1837 24.7607 32.3234 24.9971 32.7316L26.125 34.6867L30.1318 30.6798C30.4648 30.3468 31.0127 30.3468 31.3457 30.6798C31.6787 31.0128 31.6787 31.5607 31.3457 31.8937L26.544 36.6954C26.1465 37.0929 25.4805 37.007 25.2012 36.5236L23.5147 33.591ZM27.5 24.5138C32.1729 24.5138 35.9648 28.3058 35.9648 32.9786C35.9648 37.6515 32.1729 41.4435 27.5 41.4435C22.8272 41.4435 19.0352 37.6515 19.0352 32.9786C19.0352 28.3058 22.8272 24.5138 27.5 24.5138ZM32.2695 28.2091C29.6377 25.5773 25.3623 25.5773 22.7305 28.2091C20.0986 30.841 20.0986 35.1163 22.7305 37.7482C25.3623 40.38 29.6377 40.38 32.2695 37.7482C34.9014 35.1056 34.9014 30.841 32.2695 28.2091ZM27.5 19.1964C35.1055 19.1964 41.2715 25.3624 41.2715 32.9679C41.2715 35.8468 40.3906 38.5216 38.876 40.7345L42.9902 47.8566C43.3877 48.5226 42.8399 49.2745 42.1309 49.1671L37.9199 48.5011L35.6641 51.2726C35.2666 51.7882 34.5254 51.7023 34.2354 51.1867L31.3565 46.2024C28.8428 46.9327 26.1465 46.9327 23.6436 46.2024L20.7647 51.1867C20.4746 51.7023 19.7334 51.7882 19.3359 51.2726L17.0801 48.5011L12.8691 49.1671C12.1494 49.2853 11.6445 48.5011 11.9883 47.8888L16.124 40.7345C12.3857 35.2667 13.084 27.9083 17.7676 23.2247C20.249 20.7433 23.6973 19.1964 27.5 19.1964ZM37.7373 42.1847C36.4268 43.6456 34.8154 44.8165 32.9893 45.6115L35.0947 49.2531L36.8994 47.0402C37.1035 46.7824 37.415 46.6857 37.7158 46.7394L40.6162 47.2013L37.7373 42.1847ZM22 45.6115C20.1846 44.8165 18.5732 43.6456 17.2627 42.1954L14.3731 47.2013L17.2734 46.7394C17.5635 46.6857 17.8857 46.7931 18.0898 47.0402L19.8945 49.2531L22 45.6115ZM36.0293 24.4494C31.3242 19.7443 23.6865 19.7443 18.9814 24.4494C14.2764 29.1544 14.2764 36.7921 18.9814 41.4972C23.6973 46.2024 31.3242 46.2024 36.0293 41.4972C40.7344 36.7921 40.7344 29.1544 36.0293 24.4494Z" fill="white"/>
</svg>
