<svg width="47" height="55" viewBox="0 0 47 55" fill="none" xmlns="http://www.w3.org/2000/svg">
<path d="M37.0213 23.9795C37.4577 24.0684 37.8831 23.787 37.9724 23.3498C38.1715 22.3737 38.2724 21.3694 38.2724 20.3644C38.2724 12.1943 31.6456 5.54736 23.5 5.54736C15.3544 5.54736 8.7276 12.1943 8.7276 20.3644C8.7276 28.5344 15.3544 35.1814 23.5 35.1814C29.0521 35.1814 34.0847 32.1053 36.6338 27.1535C36.8379 26.7569 36.683 26.2694 36.2875 26.0646C35.8922 25.8597 35.406 26.0154 35.2024 26.4118C32.9305 30.824 28.4467 33.5649 23.5001 33.5649C16.2432 33.5649 10.3392 27.6431 10.3392 20.3643C10.3392 13.0854 16.2432 7.16363 23.5001 7.16363C30.7571 7.16363 36.661 13.0854 36.661 20.3643C36.661 21.2606 36.5711 22.156 36.3936 23.0255C36.3043 23.4629 36.5855 23.89 37.0213 23.9795Z" fill="white"/>
<path d="M32.4651 17.3585C32.3701 17.0653 32.1172 16.8519 31.8131 16.8082L26.5616 16.0537L24.2234 11.2772C23.9563 10.6836 23.0437 10.6837 22.7768 11.2772L20.4385 16.0536L15.1871 16.8081C14.541 16.8795 14.2602 17.7505 14.74 18.1879L18.5464 21.8944L17.639 27.1371C17.507 27.7735 18.2443 28.313 18.8093 27.99L23.5 25.5042L28.1908 27.99C28.7549 28.313 29.4933 27.7735 29.3611 27.1371L28.4537 21.8944L32.26 18.1879C32.4806 17.9733 32.5601 17.6516 32.4651 17.3585ZM27.0257 21.0322C26.8346 21.2183 26.7476 21.487 26.793 21.7503L27.4926 25.792L23.8764 23.8756C23.6409 23.7509 23.3591 23.7509 23.1236 23.8756L19.5074 25.792L20.2069 21.7503C20.2525 21.487 20.1653 21.2183 19.9742 21.0322L17.0398 18.1748L21.0883 17.593C21.352 17.5551 21.5799 17.3891 21.6974 17.1492L23.4999 13.467L25.3025 17.1492C25.4199 17.389 25.6479 17.5551 25.9115 17.593L29.96 18.1748L27.0257 21.0322Z" fill="white"/>
<path d="M46.112 48.0402L38.2364 34.358C41.6849 30.7065 43.8032 25.7791 43.8032 20.3643C43.8031 9.13537 34.6952 0 23.5 0C20.0555 0 16.6526 0.88108 13.6589 2.54805C13.2698 2.76475 13.1295 3.2567 13.3455 3.64701C13.5615 4.03711 14.052 4.17785 14.441 3.96137C17.196 2.4273 20.3285 1.61648 23.5 1.61648C33.8066 1.61648 42.1916 10.0269 42.1916 20.3644C42.1916 30.7021 33.8066 39.1125 23.5 39.1125C13.1934 39.1125 4.80845 30.7021 4.80845 20.3643C4.80845 14.8185 7.23725 9.58756 11.4723 6.01296C11.8127 5.72557 11.8565 5.21568 11.5699 4.87425C11.2834 4.53271 10.7751 4.48866 10.4346 4.77627C5.835 8.65867 3.19692 14.3403 3.19692 20.3643C3.19692 25.7883 5.32232 30.7235 8.78121 34.377L6.55074 38.2518C6.01625 39.1489 7.43053 39.9783 7.94633 39.0601L9.97396 35.5376C12.3998 37.7154 15.3486 39.3177 18.6059 40.1294L11.6528 52.2088L9.87416 46.5941C9.74813 46.1961 9.34031 45.9601 8.93355 46.0494L3.19638 47.3118L6.06599 42.3264C6.28849 41.9399 6.15645 41.4456 5.77108 41.2224C5.3856 40.9993 4.8929 41.1317 4.6704 41.5182L0.887801 48.0896C0.528966 48.6669 1.09881 49.4513 1.75825 49.2832L8.56075 47.7863L10.6696 54.4437C10.854 55.0986 11.8134 55.2053 12.1354 54.603L20.2703 40.4702C21.3223 40.6396 22.4007 40.7289 23.4997 40.7289C24.6077 40.7289 25.6947 40.638 26.755 40.4659L31.6408 48.954C31.7901 49.2134 32.0609 49.3582 32.3394 49.3582C32.4761 49.3582 32.6146 49.3233 32.7415 49.2498C33.1269 49.0266 33.2589 48.5324 33.0364 48.1458L28.4186 40.1233C31.6745 39.3075 34.6213 37.7017 37.0444 35.5208L43.8031 47.2625L38.0659 46.0001C37.6592 45.9106 37.2515 46.1468 37.1253 46.5448L35.3467 52.1595L34.9166 51.4122C34.6941 51.0256 34.2013 50.8933 33.8159 51.1164C33.4305 51.3397 33.2985 51.8339 33.521 52.2204L34.864 54.5538C35.1861 55.1562 36.1454 55.0493 36.3298 54.3945L38.4386 47.7371L45.2411 49.234C45.9012 49.4014 46.4706 48.6176 46.112 48.0402Z" fill="white"/>
</svg>
