<svg width="55" height="55" viewBox="0 0 55 55" fill="none" xmlns="http://www.w3.org/2000/svg">
<g clip-path="url(#clip0_49_142)">
<path d="M44.2367 22.9166H46.9867C47.493 22.9166 47.9034 22.5061 47.9034 21.9999V19.2499C47.9034 18.7437 47.493 18.3333 46.9867 18.3333C46.4805 18.3333 46.0701 18.7437 46.0701 19.2499V21.0833H44.2367C43.7305 21.0833 43.3201 21.4937 43.3201 21.9999C43.3201 22.5061 43.7305 22.9166 44.2367 22.9166Z" fill="white"/>
<path d="M22.6713 19.2501C24.6962 19.2501 26.338 17.6083 26.338 15.5834C26.338 13.5585 24.6962 11.9167 22.6713 11.9167C20.646 11.9167 19.0046 13.5585 19.0046 15.5834C19.0046 17.6083 20.646 19.2501 22.6713 19.2501ZM22.6713 13.7501C23.6838 13.7501 24.5046 14.571 24.5046 15.5834C24.5046 16.5959 23.6838 17.4167 22.6713 17.4167C21.6584 17.4167 20.838 16.5959 20.838 15.5834C20.838 14.571 21.6584 13.7501 22.6713 13.7501Z" fill="white"/>
<path d="M2.64739 18.9456C3.03545 19.1462 3.46648 19.2504 3.90333 19.25C5.0702 19.25 6.10816 18.5092 6.48817 17.4055L13.6971 17.294L12.4393 18.3333C12.0929 18.618 12.0034 19.1112 12.2276 19.4993L13.9406 22.4583L13.9782 26.5833H9.40333C9.34962 26.5887 9.29635 26.5994 9.24443 26.6156C8.81161 25.3413 7.52031 24.5674 6.19231 24.7867C4.86475 25.006 3.89079 26.1541 3.89079 27.5C3.89079 28.8459 4.86475 29.994 6.19231 30.2133C7.52031 30.4326 8.81161 29.6587 9.24443 28.3844C9.29635 28.4006 9.34962 28.4113 9.40333 28.4167H14.9033C15.1477 28.4167 15.3823 28.3191 15.5541 28.1454C15.7264 27.9718 15.8222 27.7363 15.82 27.4919L15.7779 22.8459L18.711 21.7462C18.9102 21.8751 19.1125 21.9928 19.317 22.0998L19.9356 25.8162C20.0094 26.2579 20.3921 26.582 20.8406 26.5815H21.32V31.1649H18.57C18.0638 31.1649 17.6533 31.5753 17.6533 32.0815V45.4538L9.67188 53.4352C9.40959 53.6975 9.33127 54.0918 9.47315 54.4342C9.61504 54.7767 9.94939 55 10.32 55H39.6533C40.0239 55 40.3583 54.7767 40.4997 54.4342C40.6416 54.0918 40.5633 53.6975 40.3014 53.4352L34.1533 47.2871V42.4205L36.2055 39.0022C39.6681 41.0916 41.7615 42.1667 42.4033 42.1667H47.9033C48.4096 42.1667 48.82 41.7562 48.82 41.25V36.1296L50.3839 34.5657C50.5553 34.3934 50.6524 34.1602 50.6533 33.9167V31.1667H51.9925C52.6129 31.1667 53.1916 30.8529 53.53 30.3324C53.8679 29.8123 53.9203 29.1561 53.6683 28.589L50.818 22.1723C51.8999 20.8842 52.4907 19.2554 52.4867 17.5733C52.5073 11.5062 49.0765 5.95565 43.6409 3.2607L40.9822 1.92957C40.5789 1.7286 40.0893 1.85034 39.8274 2.21737L39.4434 2.75H33.2367V0.916667C33.2367 0.410441 32.8262 0 32.32 0H23.1533C22.6471 0 22.2367 0.410441 22.2367 0.916667V4.58333H20.8379C20.3895 4.58289 20.0063 4.90739 19.9329 5.34961L19.3143 9.06506C19.1098 9.17204 18.907 9.28931 18.7083 9.41866L15.1781 8.09603C14.7588 7.93848 14.287 8.10767 14.0628 8.49573L13.1385 10.0972C13.1148 10.0972 13.0955 10.0833 13.0718 10.0833H7.56999V7.16459C8.83265 6.71834 9.58997 5.42704 9.36349 4.1071C9.13701 2.7867 7.99252 1.82214 6.65333 1.82214C5.31369 1.82214 4.1692 2.7867 3.94272 4.1071C3.71623 5.42704 4.47401 6.71834 5.73666 7.16459V11C5.73666 11.5062 6.1471 11.9167 6.65333 11.9167H12.1395C12.0553 12.2546 12.1717 12.6104 12.4393 12.8333L15.3469 15.2275C15.3469 15.2946 15.3469 15.3631 15.3415 15.4312L6.48459 15.5677C6.06833 14.4057 4.92831 13.6632 3.69699 13.7527C2.46566 13.8418 1.44471 14.7405 1.20032 15.9504C0.955492 17.1606 1.54721 18.3853 2.64739 18.9456ZM6.65333 28.4167C6.1471 28.4167 5.73666 28.0062 5.73666 27.5C5.73666 26.9938 6.1471 26.5833 6.65333 26.5833C7.15955 26.5833 7.56999 26.9938 7.56999 27.5C7.56999 28.0062 7.15955 28.4167 6.65333 28.4167ZM6.65333 3.66667C7.15955 3.66667 7.56999 4.07711 7.56999 4.58333C7.56999 5.08956 7.15955 5.5 6.65333 5.5C6.1471 5.5 5.73666 5.08956 5.73666 4.58333C5.73666 4.07711 6.1471 3.66667 6.65333 3.66667ZM23.1533 26.5833H24.5046C24.9522 26.5833 25.3344 26.2597 25.4083 25.818L26.0278 22.1016C26.2314 21.9955 26.4342 21.8774 26.6329 21.748L30.1648 23.0706C30.5842 23.2282 31.056 23.059 31.2802 22.6709L31.6683 22H35.9867C36.0542 21.9946 36.1209 21.9812 36.1854 21.9597L37.82 24.1386V25.6667H34.1533V27.5H36.2682L33.8132 28.4816C33.4649 28.6208 33.2362 28.9583 33.2367 29.3333V31.1667H23.1533V26.5833ZM33.1136 11.6709L32.7269 11H35.07V14.6667H30.68L32.9028 12.8333C33.247 12.5487 33.3356 12.0581 33.1136 11.6709ZM35.07 16.5V20.1667H32.7269L33.1136 19.4957C33.3356 19.1086 33.247 18.618 32.9028 18.3333L30.68 16.5H35.07ZM28.9219 39.1481L32.32 42.5462V43.0833H26.82V33H28.6533V38.5C28.6533 38.743 28.75 38.9762 28.9219 39.1481ZM23.1113 51.3333H23.1533V51.2859L26.5935 47.3542C26.7399 47.1869 26.82 46.972 26.82 46.75V44.9167H28.6533V53.1667H21.5031L23.1113 51.3333ZM12.5329 53.1667L19.2181 46.4814C19.39 46.3096 19.4867 46.0764 19.4867 45.8333V33H24.9867V46.4054L23.1533 48.501V44H21.32V50.6002L19.0704 53.1667H12.5329ZM37.4404 53.1667H30.4867V44.9167H32.32V47.6667C32.32 47.9097 32.4167 48.1429 32.5885 48.3148L37.4404 53.1667ZM33.0531 40.6892L30.4867 38.1222V33H33.2367V36.6667C33.2367 36.9827 33.3996 37.2763 33.6672 37.4441C34.0092 37.6585 34.318 37.8474 34.6408 38.0461L33.0531 40.6892ZM40.8605 3.91956L42.8205 4.90068C47.6334 7.28634 50.6712 12.2013 50.6533 17.5733C50.6574 18.9913 50.0938 20.352 49.0886 21.3519C48.8204 21.62 48.7448 22.0255 48.8988 22.3719L51.9925 29.3333H49.7367C49.2304 29.3333 48.82 29.7438 48.82 30.25V33H48.6624C47.2445 33.004 45.8842 32.4405 44.8848 31.4352C44.5249 31.0879 43.9533 31.0928 43.5997 31.4464C43.2461 31.8 43.2412 32.3716 43.5886 32.7314C44.6749 33.8213 46.0857 34.529 47.6088 34.7483L47.2552 35.1019C47.0833 35.2738 46.9867 35.507 46.9867 35.75V40.3333L42.4902 40.3387C40.3726 39.3594 38.3276 38.2288 36.3716 36.9563L36.3671 36.9518H36.3613C35.9298 36.6895 35.497 36.4236 35.07 36.1587V29.9537L39.0768 28.3518C39.4251 28.2126 39.6533 27.8751 39.6533 27.5V23.8333C39.6533 23.6351 39.5889 23.4421 39.4698 23.2832L36.9033 19.8614V9.45984L40.8605 3.91956ZM24.07 1.83333H31.4033V3.66667C31.4033 4.17289 31.8138 4.58333 32.32 4.58333H38.1342L35.2414 8.63403C35.1295 8.78935 35.0695 8.97555 35.07 9.16667H31.6683L31.2802 8.49573C31.056 8.10767 30.5842 7.93848 30.1648 8.09603L26.6365 9.41866C26.4378 9.28931 26.235 9.17114 26.0313 9.06506L25.4083 5.34871C25.3344 4.90694 24.9522 4.58333 24.5046 4.58333H24.07V1.83333ZM14.2037 11.9167L15.2605 10.0833L18.5158 11.3035C18.8081 11.4127 19.1357 11.3661 19.3855 11.1795C19.7306 10.9194 20.1052 10.701 20.5014 10.5287C20.7883 10.4056 20.9928 10.1447 21.0438 9.83671L21.6141 6.41667H23.728L24.2983 9.83761C24.3493 10.1455 24.5538 10.4065 24.8407 10.5296C25.2369 10.7024 25.611 10.9208 25.9566 11.1804C26.2063 11.367 26.5335 11.4136 26.8254 11.3044L30.0816 10.0833L31.1375 11.9167L28.4559 14.1233C28.2151 14.3216 28.0916 14.6295 28.1287 14.9397C28.1851 15.3676 28.1851 15.8009 28.1287 16.2288C28.0916 16.5389 28.2151 16.8469 28.4559 17.0456L31.1375 19.25L30.0816 21.0833L26.8254 19.8632C26.5335 19.754 26.2063 19.8005 25.9566 19.9872C25.611 20.2468 25.2369 20.4652 24.8407 20.638C24.5538 20.7611 24.3493 21.022 24.2983 21.33L23.728 24.75H21.6132L21.0447 21.3291C20.9937 21.0211 20.7892 20.7602 20.5022 20.6371C20.1061 20.4648 19.7315 20.2463 19.3868 19.9863C19.1366 19.7996 18.809 19.7526 18.5167 19.8623L15.2605 21.0833L14.2037 19.25L16.8853 17.0434C16.9014 17.0277 16.917 17.0107 16.9318 16.9932C16.9497 16.9762 16.9663 16.9588 16.9824 16.94C17.0513 16.8657 17.1068 16.7802 17.1471 16.6871L17.1529 16.6768C17.191 16.5761 17.2111 16.4687 17.2116 16.3608C17.2147 16.3478 17.2174 16.3344 17.2187 16.3214C17.2187 16.3102 17.2133 16.3013 17.2125 16.2901C17.2116 16.2789 17.2125 16.248 17.2125 16.227C17.1561 15.7991 17.1561 15.3658 17.2125 14.9379C17.2492 14.6277 17.1256 14.3198 16.8844 14.1211L14.2037 11.9167ZM3.08826 16.0811C3.19748 15.8622 3.39084 15.697 3.62358 15.6227C4.09266 15.5032 4.57382 15.7691 4.72242 16.2301C4.87102 16.6907 4.63514 17.1875 4.18486 17.3643C3.70281 17.5192 3.18629 17.2542 3.03142 16.7721C2.95846 16.5434 2.9786 16.295 3.08826 16.0811Z" fill="white"/>
<path d="M21.3201 36.6667H23.1534V38.5001H21.3201V36.6667Z" fill="white"/>
<path d="M21.3201 40.3333H23.1534V42.1666H21.3201V40.3333Z" fill="white"/>
<path d="M26.8201 25.6667H28.6534V27.5001H26.8201V25.6667Z" fill="white"/>
<path d="M30.4868 25.6667H32.3201V27.5001H30.4868V25.6667Z" fill="white"/>
<path d="M38.7368 9.16675H40.5701V12.8334H38.7368V9.16675Z" fill="white"/>
<path d="M38.7368 14.6667H40.5701V16.5001H38.7368V14.6667Z" fill="white"/>
<path d="M38.7368 18.3333H40.5701V20.1666H38.7368V18.3333Z" fill="white"/>
</g>
<defs>
<clipPath id="clip0_49_142">
<rect width="55" height="55" fill="white"/>
</clipPath>
</defs>
</svg>
