<svg width="55" height="55" viewBox="0 0 55 55" fill="none" xmlns="http://www.w3.org/2000/svg">
<g clip-path="url(#clip0_49_76)">
<path d="M44.2367 22.9166H46.9867C47.493 22.9166 47.9034 22.5061 47.9034 21.9999V19.2499C47.9034 18.7437 47.493 18.3333 46.9867 18.3333C46.4805 18.3333 46.0701 18.7437 46.0701 19.2499V21.0833H44.2367C43.7305 21.0833 43.3201 21.4937 43.3201 21.9999C43.3201 22.5061 43.7305 22.9166 44.2367 22.9166Z" fill="white"/>
<path d="M22.6714 19.2501C24.6963 19.2501 26.3381 17.6083 26.3381 15.5834C26.3381 13.5585 24.6963 11.9167 22.6714 11.9167C20.6461 11.9167 19.0048 13.5585 19.0048 15.5834C19.0048 17.6083 20.6461 19.2501 22.6714 19.2501ZM22.6714 13.7501C23.6839 13.7501 24.5048 14.571 24.5048 15.5834C24.5048 16.5959 23.6839 17.4167 22.6714 17.4167C21.6585 17.4167 20.8381 16.5959 20.8381 15.5834C20.8381 14.571 21.6585 13.7501 22.6714 13.7501Z" fill="white"/>
<path d="M2.64751 18.9456C3.03557 19.1462 3.4666 19.2504 3.90345 19.25C5.07032 19.25 6.10828 18.5092 6.48829 17.4055L13.6972 17.294L12.4395 18.3333C12.093 18.618 12.0035 19.1112 12.2277 19.4993L13.9407 22.4583L13.9783 26.5833H9.40345C9.34974 26.5887 9.29648 26.5994 9.24455 26.6156C8.81173 25.3413 7.52043 24.5674 6.19243 24.7867C4.86487 25.006 3.89092 26.1541 3.89092 27.5C3.89092 28.8459 4.86487 29.994 6.19243 30.2133C7.52043 30.4326 8.81173 29.6587 9.24455 28.3844C9.29648 28.4006 9.34974 28.4113 9.40345 28.4167H14.9035C15.1478 28.4167 15.3824 28.3191 15.5542 28.1454C15.7266 27.9718 15.8224 27.7363 15.8201 27.4919L15.778 22.8459L18.7111 21.7462C18.9103 21.8751 19.1126 21.9928 19.3171 22.0998L19.9357 25.8162C20.0096 26.2579 20.3923 26.582 20.8407 26.5815H21.3201V31.1649H18.5701C18.0639 31.1649 17.6535 31.5753 17.6535 32.0815V45.4538L9.672 53.4352C9.40972 53.6975 9.33139 54.0918 9.47327 54.4342C9.61516 54.7767 9.94951 55 10.3201 55H39.6535C40.0241 55 40.3584 54.7767 40.4998 54.4342C40.6417 54.0918 40.5634 53.6975 40.3016 53.4352L34.1535 47.2871V42.4205L36.2057 39.0022C39.6682 41.0916 41.7616 42.1667 42.4035 42.1667H47.9035C48.4097 42.1667 48.8201 41.7562 48.8201 41.25V36.1296L50.384 34.5657C50.5554 34.3934 50.6526 34.1602 50.6535 33.9167V31.1667H51.9926C52.613 31.1667 53.1917 30.8529 53.5301 30.3324C53.868 29.8123 53.9204 29.1561 53.6684 28.589L50.8182 22.1723C51.9 20.8842 52.4908 19.2554 52.4868 17.5733C52.5074 11.5062 49.0766 5.95565 43.641 3.2607L40.9823 1.92957C40.5791 1.7286 40.0894 1.85034 39.8276 2.21737L39.4435 2.75H33.2368V0.916667C33.2368 0.410441 32.8263 0 32.3201 0H23.1535C22.6472 0 22.2368 0.410441 22.2368 0.916667V4.58333H20.8381C20.3896 4.58289 20.0064 4.90739 19.933 5.34961L19.3145 9.06506C19.1099 9.17204 18.9072 9.28931 18.7084 9.41866L15.1783 8.09603C14.7589 7.93848 14.2871 8.10767 14.0629 8.49573L13.1386 10.0972C13.1149 10.0972 13.0956 10.0833 13.0719 10.0833H7.57012V7.16459C8.83277 6.71834 9.5901 5.42704 9.36361 4.1071C9.13713 2.7867 7.99264 1.82214 6.65345 1.82214C5.31381 1.82214 4.16932 2.7867 3.94284 4.1071C3.71636 5.42704 4.47413 6.71834 5.73678 7.16459V11C5.73678 11.5062 6.14722 11.9167 6.65345 11.9167H12.1396C12.0554 12.2546 12.1718 12.6104 12.4395 12.8333L15.347 15.2275C15.347 15.2946 15.347 15.3631 15.3416 15.4312L6.48471 15.5677C6.06845 14.4057 4.92843 13.6632 3.69711 13.7527C2.46579 13.8418 1.44483 14.7405 1.20045 15.9504C0.955614 17.1606 1.54733 18.3853 2.64751 18.9456ZM6.65345 28.4167C6.14722 28.4167 5.73678 28.0062 5.73678 27.5C5.73678 26.9938 6.14722 26.5833 6.65345 26.5833C7.15968 26.5833 7.57012 26.9938 7.57012 27.5C7.57012 28.0062 7.15968 28.4167 6.65345 28.4167ZM6.65345 3.66667C7.15968 3.66667 7.57012 4.07711 7.57012 4.58333C7.57012 5.08956 7.15968 5.5 6.65345 5.5C6.14722 5.5 5.73678 5.08956 5.73678 4.58333C5.73678 4.07711 6.14722 3.66667 6.65345 3.66667ZM23.1535 26.5833H24.5047C24.9523 26.5833 25.3346 26.2597 25.4084 25.818L26.0279 22.1016C26.2315 21.9955 26.4343 21.8774 26.633 21.748L30.165 23.0706C30.5844 23.2282 31.0561 23.059 31.2804 22.6709L31.6684 22H35.9868C36.0544 21.9946 36.1211 21.9812 36.1855 21.9597L37.8201 24.1386V25.6667H34.1535V27.5H36.2683L33.8133 28.4816C33.4651 28.6208 33.2363 28.9583 33.2368 29.3333V31.1667H23.1535V26.5833ZM33.1137 11.6709L32.727 11H35.0701V14.6667H30.6801L32.9029 12.8333C33.2471 12.5487 33.3357 12.0581 33.1137 11.6709ZM35.0701 16.5V20.1667H32.727L33.1137 19.4957C33.3357 19.1086 33.2471 18.618 32.9029 18.3333L30.6801 16.5H35.0701ZM28.922 39.1481L32.3201 42.5462V43.0833H26.8201V33H28.6535V38.5C28.6535 38.743 28.7501 38.9762 28.922 39.1481ZM23.1114 51.3333H23.1535V51.2859L26.5936 47.3542C26.74 47.1869 26.8201 46.972 26.8201 46.75V44.9167H28.6535V53.1667H21.5032L23.1114 51.3333ZM12.533 53.1667L19.2182 46.4814C19.3901 46.3096 19.4868 46.0764 19.4868 45.8333V33H24.9868V46.4054L23.1535 48.501V44H21.3201V50.6002L19.0705 53.1667H12.533ZM37.4406 53.1667H30.4868V44.9167H32.3201V47.6667C32.3201 47.9097 32.4168 48.1429 32.5887 48.3148L37.4406 53.1667ZM33.0533 40.6892L30.4868 38.1222V33H33.2368V36.6667C33.2368 36.9827 33.3997 37.2763 33.6674 37.4441C34.0093 37.6585 34.3182 37.8474 34.6409 38.0461L33.0533 40.6892ZM40.8606 3.91956L42.8206 4.90068C47.6336 7.28634 50.6714 12.2013 50.6535 17.5733C50.6575 18.9913 50.094 20.352 49.0887 21.3519C48.8206 21.62 48.7449 22.0255 48.8989 22.3719L51.9926 29.3333H49.7368C49.2306 29.3333 48.8201 29.7438 48.8201 30.25V33H48.6626C47.2446 33.004 45.8844 32.4405 44.8849 31.4352C44.525 31.0879 43.9535 31.0928 43.5999 31.4464C43.2463 31.8 43.2413 32.3716 43.5887 32.7314C44.675 33.8213 46.0858 34.529 47.6089 34.7483L47.2553 35.1019C47.0835 35.2738 46.9868 35.507 46.9868 35.75V40.3333L42.4903 40.3387C40.3727 39.3594 38.3277 38.2288 36.3717 36.9563L36.3672 36.9518H36.3614C35.9299 36.6895 35.4971 36.4236 35.0701 36.1587V29.9537L39.077 28.3518C39.4252 28.2126 39.6535 27.8751 39.6535 27.5V23.8333C39.6535 23.6351 39.589 23.4421 39.4699 23.2832L36.9035 19.8614V9.45984L40.8606 3.91956ZM24.0701 1.83333H31.4035V3.66667C31.4035 4.17289 31.8139 4.58333 32.3201 4.58333H38.1343L35.2415 8.63403C35.1296 8.78935 35.0697 8.97555 35.0701 9.16667H31.6684L31.2804 8.49573C31.0561 8.10767 30.5844 7.93848 30.165 8.09603L26.6366 9.41866C26.4379 9.28931 26.2351 9.17114 26.0315 9.06506L25.4084 5.34871C25.3346 4.90694 24.9523 4.58333 24.5047 4.58333H24.0701V1.83333ZM14.2039 11.9167L15.2606 10.0833L18.516 11.3035C18.8082 11.4127 19.1359 11.3661 19.3856 11.1795C19.7307 10.9194 20.1054 10.701 20.5015 10.5287C20.7884 10.4056 20.9929 10.1447 21.044 9.83671L21.6142 6.41667H23.7282L24.2984 9.83761C24.3494 10.1455 24.554 10.4065 24.8409 10.5296C25.237 10.7024 25.6112 10.9208 25.9567 11.1804C26.2065 11.367 26.5337 11.4136 26.8255 11.3044L30.0817 10.0833L31.1376 11.9167L28.4561 14.1233C28.2153 14.3216 28.0917 14.6295 28.1289 14.9397C28.1853 15.3676 28.1853 15.8009 28.1289 16.2288C28.0917 16.5389 28.2153 16.8469 28.4561 17.0456L31.1376 19.25L30.0817 21.0833L26.8255 19.8632C26.5337 19.754 26.2065 19.8005 25.9567 19.9872C25.6112 20.2468 25.237 20.4652 24.8409 20.638C24.554 20.7611 24.3494 21.022 24.2984 21.33L23.7282 24.75H21.6133L21.0448 21.3291C20.9938 21.0211 20.7893 20.7602 20.5024 20.6371C20.1062 20.4648 19.7316 20.2463 19.387 19.9863C19.1368 19.7996 18.8091 19.7526 18.5169 19.8623L15.2606 21.0833L14.2039 19.25L16.8854 17.0434C16.9015 17.0277 16.9172 17.0107 16.9319 16.9932C16.9498 16.9762 16.9664 16.9588 16.9825 16.94C17.0514 16.8657 17.1069 16.7802 17.1472 16.6871L17.153 16.6768C17.1911 16.5761 17.2112 16.4687 17.2117 16.3608C17.2148 16.3478 17.2175 16.3344 17.2188 16.3214C17.2188 16.3102 17.2135 16.3013 17.2126 16.2901C17.2117 16.2789 17.2126 16.248 17.2126 16.227C17.1562 15.7991 17.1562 15.3658 17.2126 14.9379C17.2493 14.6277 17.1257 14.3198 16.8845 14.1211L14.2039 11.9167ZM3.08839 16.0811C3.1976 15.8622 3.39096 15.697 3.6237 15.6227C4.09278 15.5032 4.57394 15.7691 4.72254 16.2301C4.87114 16.6907 4.63526 17.1875 4.18498 17.3643C3.70293 17.5192 3.18641 17.2542 3.03154 16.7721C2.95858 16.5434 2.97873 16.295 3.08839 16.0811Z" fill="white"/>
<path d="M21.3201 36.6667H23.1534V38.5001H21.3201V36.6667Z" fill="white"/>
<path d="M21.3201 40.3333H23.1534V42.1666H21.3201V40.3333Z" fill="white"/>
<path d="M26.8201 25.6667H28.6534V27.5001H26.8201V25.6667Z" fill="white"/>
<path d="M30.4868 25.6667H32.3201V27.5001H30.4868V25.6667Z" fill="white"/>
<path d="M38.7368 9.16675H40.5701V12.8334H38.7368V9.16675Z" fill="white"/>
<path d="M38.7368 14.6667H40.5701V16.5001H38.7368V14.6667Z" fill="white"/>
<path d="M38.7368 18.3333H40.5701V20.1666H38.7368V18.3333Z" fill="white"/>
</g>
<defs>
<clipPath id="clip0_49_76">
<rect width="55" height="55" fill="white"/>
</clipPath>
</defs>
</svg>
