<svg width="35" height="35" viewBox="0 0 35 35" fill="none" xmlns="http://www.w3.org/2000/svg">
<g clip-path="url(#clip0_26_47)">
<path d="M28.461 7.63116L26.7969 5.96704L25.1328 7.63116L24.3594 6.85785L26.7969 4.42041L29.2343 6.85785L28.461 7.63116Z" fill="#DF0A0A"/>
<path d="M26.25 5.46704H27.3438V11.4827H26.25V5.46704Z" fill="#DF0A0A"/>
<path d="M29.5312 18.5921H28.4375V16.2404C32.5636 15.3982 35.3819 11.5685 34.9583 7.37854C34.5351 3.18886 31.0082 0 26.7969 0C22.5856 0 19.0586 3.18886 18.6354 7.37854C18.2119 11.5685 21.0301 15.3982 25.1562 16.2404V18.5921H24.0625V33.9046H21.875V16.4046H16.4062V33.9046H14.2188V20.7796H8.75V33.9046H6.5625V26.2484H1.09375V33.9046H0V34.9984H35V33.9046H29.5312V18.5921ZM5.46875 33.9046H2.1875V27.3421H5.46875V33.9046ZM13.125 33.9046H9.84375V21.8734H13.125V33.9046ZM20.7812 33.9046H17.5V17.4984H20.7812V33.9046ZM19.6875 8.20152C19.6875 4.40704 22.6673 1.28147 26.4575 1.10043C30.2474 0.919113 33.5118 3.74641 33.8739 7.52327C34.2358 11.3004 31.5679 14.6962 27.8124 15.238L27.3438 15.3053V18.5921H26.25V15.3053L25.7814 15.238C22.2908 14.7197 19.7019 11.7303 19.6875 8.20152ZM28.4375 33.9046H25.1562V19.6859H28.4375V33.9046Z" fill="#DF0A0A"/>
<path d="M32.8125 8.20142C32.8125 4.87904 30.1192 2.18579 26.7969 2.18579C23.4745 2.18579 20.7812 4.87904 20.7812 8.20142C20.7812 11.5238 23.4745 14.217 26.7969 14.217C30.1176 14.213 32.8085 11.5222 32.8125 8.20142ZM21.875 8.20142C21.875 5.48306 24.0785 3.27954 26.7969 3.27954C29.5152 3.27954 31.7188 5.48306 31.7188 8.20142C31.7188 10.9195 29.5152 13.1233 26.7969 13.1233C24.0799 13.1201 21.8779 10.9184 21.875 8.20142Z" fill="#DF0A0A"/>
<path d="M7.87013 18.592H11.7108L16.4062 13.8966V15.3108H17.5V12.0295H14.2187V13.1233H15.6329L11.2579 17.4983H7.44235L0.17543 24.2061L0.918304 25.009L7.87013 18.592Z" fill="#DF0A0A"/>
<path d="M31.7188 18.592H35V19.6858H31.7188V18.592Z" fill="#DF0A0A"/>
<path d="M31.7188 20.7795H35V21.8733H31.7188V20.7795Z" fill="#DF0A0A"/>
<path d="M31.7188 22.967H35V24.0608H31.7188V22.967Z" fill="#DF0A0A"/>
<path d="M31.7188 25.1545H35V26.2483H31.7188V25.1545Z" fill="#DF0A0A"/>
<path d="M31.7188 27.342H35V28.4358H31.7188V27.342Z" fill="#DF0A0A"/>
<path d="M31.7188 29.5295H35V30.6233H31.7188V29.5295Z" fill="#DF0A0A"/>
<path d="M31.7188 31.717H35V32.8108H31.7188V31.717Z" fill="#DF0A0A"/>
</g>
<defs>
<clipPath id="clip0_26_47">
<rect width="35" height="35" fill="white"/>
</clipPath>
</defs>
</svg>
