<svg width="55" height="55" viewBox="0 0 55 55" fill="none" xmlns="http://www.w3.org/2000/svg">
<g clip-path="url(#clip0_49_158)">
<path d="M17.978 33.8461C18.2024 33.9397 18.4548 33.9404 18.6796 33.8479C18.9045 33.7554 19.0834 33.5773 19.177 33.353L20.4695 30.2501H25.359L26.6516 33.353C26.8464 33.8203 27.3833 34.041 27.8505 33.8462C28.3179 33.6513 28.5386 33.1144 28.3437 32.6472L23.7604 21.6472C23.6181 21.3057 23.2843 21.0833 22.9144 21.0833C22.5444 21.0833 22.2107 21.3057 22.0683 21.6472L17.485 32.6472C17.3914 32.8716 17.3907 33.124 17.4832 33.3488C17.5757 33.5736 17.7536 33.7525 17.978 33.8461ZM22.9143 24.3833L24.5946 28.4167H21.234L22.9143 24.3833Z" fill="white"/>
<path fill-rule="evenodd" clip-rule="evenodd" d="M30.2477 32.0833C29.7414 32.0833 29.3311 32.4937 29.3311 33C29.3311 33.5062 29.7414 33.9166 30.2477 33.9166H35.7477C36.254 33.9166 36.6644 33.5062 36.6644 33C36.6644 32.4937 36.254 32.0833 35.7477 32.0833H33.9144V22.9166H35.7477C36.254 22.9166 36.6644 22.5062 36.6644 21.9999C36.6644 21.4936 36.254 21.0833 35.7477 21.0833H30.2477C29.7414 21.0833 29.3311 21.4936 29.3311 21.9999C29.3311 22.5062 29.7414 22.9166 30.2477 22.9166H32.0811V32.0833H30.2477Z" fill="white"/>
<path d="M0.914333 40.3333C0.914333 42.3584 2.55599 44 4.58098 44C5.04026 43.9983 5.49504 43.9093 5.92113 43.7378C8.08812 45.397 11.1462 46.2623 14.9045 46.2623C15.4709 46.2623 16.0595 46.2357 16.6562 46.1973C19.3182 51.6367 23.159 55 27.4976 55C31.8362 55 35.677 51.6367 38.3399 46.2C38.9376 46.2385 39.5252 46.265 40.0916 46.265C43.8499 46.265 46.908 45.3997 49.075 43.7405C49.501 43.9109 49.9554 43.999 50.4142 44C52.0326 43.9954 53.4566 42.9303 53.9181 41.379C54.3797 39.8279 53.7697 38.1575 52.4171 37.2689C52.5454 34.3172 51.4042 30.9677 49.0814 27.5C51.4042 24.0331 52.5455 20.6836 52.4171 17.731C54.0018 16.7083 54.5494 14.6484 53.6816 12.9738C52.8138 11.2993 50.8151 10.5589 49.0658 11.2639C46.5752 9.35818 42.8975 8.51394 38.3407 8.81093C35.6808 3.36695 31.8382 0 27.4977 0C23.1572 0 19.3146 3.36695 16.6517 8.81102C12.0968 8.51583 8.42092 9.36098 5.92664 11.264C4.17843 10.5646 2.18484 11.3061 1.3185 12.9779C0.452158 14.6497 0.995889 16.7061 2.5753 17.7311C2.44881 20.6819 3.59095 24.0313 5.91382 27.5C3.59095 30.9678 2.44881 34.3173 2.57809 37.269C1.54133 37.9437 0.915506 39.0964 0.914333 40.3333ZM2.7477 40.3333C2.7477 39.3208 3.56848 38.5 4.58107 38.5C5.59365 38.5 6.41443 39.3208 6.41443 40.3333C6.41443 41.3459 5.59365 42.1667 4.58107 42.1667C4.0948 42.1667 3.62848 41.9735 3.28466 41.6297C2.94085 41.2859 2.7477 40.8196 2.7477 40.3333ZM17.7893 10.7434C20.2296 11.0356 22.6339 11.5752 24.965 12.354C23.3242 13.0863 21.7219 13.9019 20.1644 14.7978C18.6014 15.6999 17.0874 16.6842 15.6287 17.7467C16.1093 15.345 16.8333 12.9984 17.7893 10.7434ZM39.3658 17.7467C37.9075 16.6842 36.3938 15.6997 34.831 14.7978C33.2757 13.903 31.6762 13.0873 30.0386 12.354C32.3674 11.5756 34.7691 11.036 37.207 10.7434C38.1625 12.9985 38.8857 15.345 39.3658 17.7467ZM37.2061 44.2567C34.7658 43.9645 32.3615 43.4249 30.0304 42.6461C31.6712 41.9138 33.2735 41.0982 34.831 40.2022C36.394 39.3002 37.908 38.3158 39.3667 37.2534C38.8861 39.6551 38.1622 42.0016 37.2061 44.2567ZM33.9144 16.3864C35.9816 17.576 37.9578 18.9171 39.8269 20.3986C40.164 22.7507 40.3324 25.1239 40.331 27.5C40.3327 29.8761 40.1645 32.2494 39.8278 34.6015C37.9583 36.0829 35.9818 37.4241 33.9144 38.6137C31.8536 39.8057 29.7091 40.8467 27.4977 41.7285C25.2862 40.8462 23.1417 39.8046 21.081 38.6118C19.0138 37.4222 17.0376 36.0811 15.1685 34.5996C14.4975 29.889 14.4975 25.1072 15.1685 20.3967C17.0377 18.9159 19.014 17.5755 21.081 16.3863C23.1435 15.1934 25.2899 14.1518 27.5032 13.2696C29.7128 14.1522 31.8555 15.1939 33.9144 16.3864ZM41.8894 22.1311C43.7177 23.7497 45.3782 25.5484 46.8458 27.5C45.3803 29.4513 43.7218 31.25 41.8959 32.869C42.0759 31.085 42.1655 29.2931 42.1644 27.5C42.165 25.707 42.0747 23.915 41.8941 22.1311H41.8894ZM13.106 32.869C11.2772 31.2509 9.61664 29.452 8.14955 27.5C9.61511 25.5488 11.2735 23.75 13.0995 22.1311C12.7389 25.7013 12.7389 29.2988 13.0995 32.869H13.106ZM20.1698 40.2022C21.7251 41.0971 23.3246 41.9127 24.9622 42.6461C22.6334 43.4245 20.2317 43.9641 17.7938 44.2567C16.8381 42.0016 16.1144 39.6551 15.6341 37.2534C17.0909 38.3158 18.6031 39.3002 20.1643 40.2022H20.1698ZM27.4977 53.1667C24.0547 53.1667 20.9261 50.436 18.6188 46.0066C21.6568 45.576 24.6358 44.7996 27.4977 43.693C30.3607 44.8002 33.3409 45.5764 36.3802 46.0066C34.0684 50.436 30.9407 53.1667 27.4977 53.1667ZM50.4144 42.1667C49.4019 42.1667 48.581 41.3459 48.581 40.3333C48.581 39.3208 49.4018 38.5 50.4144 38.5C51.427 38.5 52.2478 39.3208 52.2478 40.3333C52.2478 41.3459 51.4269 42.1667 50.4144 42.1667ZM50.6068 36.6859C50.5418 36.6859 50.4804 36.6667 50.4143 36.6667C48.3892 36.6667 46.7477 38.3083 46.7477 40.3333C46.7511 41.153 47.0319 41.9475 47.5443 42.5874C45.5478 43.9046 42.6337 44.5307 39.143 44.3996C40.2796 41.5604 41.0851 38.5995 41.5438 35.5758C43.9147 33.6667 46.0604 31.4935 47.9393 29.0987C49.4871 31.3458 50.4079 33.9647 50.6068 36.6859ZM52.2477 14.6667C52.2477 15.6792 51.4269 16.5 50.4143 16.5C49.4017 16.5 48.581 15.6792 48.581 14.6667C48.581 13.6541 49.4017 12.8333 50.4143 12.8333C51.4269 12.8333 52.2477 13.6542 52.2477 14.6667ZM47.5443 12.4126C47.032 13.0525 46.7512 13.847 46.7477 14.6667C46.7477 16.6917 48.3893 18.3333 50.4143 18.3333C50.4804 18.3333 50.5417 18.3177 50.6068 18.3141C50.4081 21.0354 49.4874 23.6544 47.9393 25.9013C46.0601 23.5064 43.9141 21.3332 41.5429 19.4242C41.0836 16.4003 40.277 13.4395 39.1393 10.6004C42.6328 10.4684 45.5487 11.0917 47.5443 12.4126ZM27.4977 1.83337C30.9407 1.83337 34.0693 4.56411 36.3766 8.99344C33.3401 9.42449 30.3627 10.2007 27.5023 11.3071C24.6393 10.1999 21.6591 9.42368 18.6198 8.99344C20.927 4.56411 24.0547 1.83337 27.4977 1.83337ZM4.58098 12.8334C5.59347 12.8334 6.41434 13.6542 6.41434 14.6667C6.41434 15.6793 5.59356 16.5001 4.58098 16.5001C3.56839 16.5001 2.74761 15.6793 2.74761 14.6667C2.74761 13.6542 3.56848 12.8334 4.58098 12.8334ZM4.38855 18.3141C4.45359 18.3141 4.51503 18.3333 4.58107 18.3333C6.60614 18.3333 8.24771 16.6916 8.24771 14.6667C8.24428 13.847 7.96353 13.0524 7.4511 12.4126C9.44668 11.0954 12.3607 10.4702 15.8524 10.6004C14.7159 13.4396 13.9103 16.4005 13.4516 19.4242C11.0809 21.3332 8.93524 23.506 7.05605 25.9004C5.50776 23.654 4.58693 21.0352 4.38855 18.3141ZM7.05605 29.0996C8.93614 31.4938 11.0824 33.6666 13.4534 35.5758C13.9126 38.5999 14.7188 41.5611 15.8561 44.4005C12.3672 44.5325 9.45128 43.9046 7.4548 42.5874C7.96587 41.947 8.24527 41.1526 8.24771 40.3333C8.24771 38.3083 6.60605 36.6667 4.58107 36.6667C4.51503 36.6667 4.45368 36.6832 4.38855 36.6859C4.58729 33.9649 5.50803 31.3462 7.05605 29.0996Z" fill="white"/>
</g>
<defs>
<clipPath id="clip0_49_158">
<rect width="55" height="55" fill="white"/>
</clipPath>
</defs>
</svg>
