<svg width="75" height="75" viewBox="0 0 75 75" fill="none" xmlns="http://www.w3.org/2000/svg">
<path d="M18.75 37.5H31.1865L29.6241 42.1875H26.9531V44.5312H48.0469V42.1875H45.3759L43.8135 37.5H56.25C57.1821 37.4989 58.0757 37.1282 58.7348 36.4691C59.3938 35.8101 59.7646 34.9165 59.7656 33.9844V5.85938C59.7646 4.9273 59.3938 4.0337 58.7348 3.37462C58.0757 2.71554 57.1821 2.3448 56.25 2.34375H18.75C17.8179 2.3448 16.9243 2.71554 16.2652 3.37462C15.6062 4.0337 15.2354 4.9273 15.2344 5.85938V33.9844C15.2354 34.9165 15.6062 35.8101 16.2652 36.4691C16.9243 37.1282 17.8179 37.4989 18.75 37.5ZM32.0947 42.1875L33.6572 37.5H41.3428L42.9053 42.1875H32.0947ZM17.5781 5.85938C17.5785 5.54868 17.7021 5.25082 17.9218 5.03113C18.1414 4.81143 18.4393 4.68786 18.75 4.6875H56.25C56.5607 4.68786 56.8586 4.81143 57.0782 5.03113C57.2979 5.25082 57.4215 5.54868 57.4219 5.85938V30.4688H17.5781V5.85938ZM17.5781 32.8125H57.4219V33.9844C57.4215 34.2951 57.2979 34.5929 57.0782 34.8126C56.8586 35.0323 56.5607 35.1559 56.25 35.1562H18.75C18.4393 35.1559 18.1414 35.0323 17.9218 34.8126C17.7021 34.5929 17.5785 34.2951 17.5781 33.9844V32.8125Z" fill="#002FF5"/>
<path d="M28.125 52.7344C28.1239 51.8023 27.7532 50.9087 27.0941 50.2496C26.4351 49.5905 25.5415 49.2198 24.6094 49.2188H8.20312C7.27105 49.2198 6.37745 49.5905 5.71837 50.2496C5.05929 50.9087 4.68855 51.8023 4.6875 52.7344V65.625H2.34375V69.1406C2.34482 70.0727 2.71555 70.9663 3.37463 71.6254C4.03371 72.2844 4.9273 72.6552 5.85938 72.6562H26.9531C27.8852 72.6552 28.7788 72.2844 29.4379 71.6254C30.0969 70.9663 30.4677 70.0727 30.4688 69.1406V65.625H28.125V52.7344ZM7.03125 52.7344C7.03161 52.4237 7.15518 52.1258 7.37488 51.9061C7.59457 51.6864 7.89243 51.5629 8.20312 51.5625H24.6094C24.9201 51.5629 25.2179 51.6864 25.4376 51.9061C25.6573 52.1258 25.7809 52.4237 25.7812 52.7344V65.625H7.03125V52.7344ZM28.125 69.1406C28.1246 69.4513 28.0011 69.7492 27.7814 69.9689C27.5617 70.1886 27.2638 70.3121 26.9531 70.3125H5.85938C5.54868 70.3121 5.25082 70.1886 5.03113 69.9689C4.81143 69.7492 4.68786 69.4513 4.6875 69.1406V67.9688H28.125V69.1406Z" fill="#002FF5"/>
<path d="M42.1875 53.7047C42.9694 53.4283 43.6284 52.8843 44.048 52.169C44.4676 51.4537 44.6209 50.613 44.4806 49.7956C44.3404 48.9783 43.9157 48.2368 43.2816 47.7022C42.6476 47.1677 41.845 46.8745 41.0156 46.8745C40.1863 46.8745 39.3837 47.1677 38.7496 47.7022C38.1156 48.2368 37.6909 48.9783 37.5506 49.7956C37.4104 50.613 37.5636 51.4537 37.9833 52.169C38.4029 52.8843 39.0619 53.4283 39.8438 53.7047V61.4229L42.5307 64.1099L44.1881 62.4527L42.1875 60.4522V53.7047ZM41.0156 51.5625C40.7839 51.5625 40.5573 51.4938 40.3646 51.365C40.1719 51.2363 40.0217 51.0533 39.933 50.8391C39.8443 50.625 39.8211 50.3894 39.8663 50.162C39.9115 49.9347 40.0231 49.7259 40.187 49.562C40.3509 49.3981 40.5597 49.2865 40.787 49.2413C41.0143 49.1961 41.25 49.2193 41.4641 49.308C41.6782 49.3967 41.8612 49.5469 41.99 49.7396C42.1188 49.9323 42.1875 50.1589 42.1875 50.3907C42.1872 50.7014 42.0636 50.9992 41.8439 51.2189C41.6242 51.4386 41.3263 51.5622 41.0156 51.5625Z" fill="#002FF5"/>
<path d="M70.3125 65.625V52.7344C70.3114 51.8023 69.9407 50.9087 69.2816 50.2496C68.6226 49.5905 67.729 49.2198 66.7969 49.2188H50.3906C49.4585 49.2198 48.5649 49.5905 47.9059 50.2496C47.2468 50.9087 46.8761 51.8023 46.875 52.7344V65.625H44.5312V69.1406C44.5323 70.0727 44.9031 70.9663 45.5621 71.6254C46.2212 72.2844 47.1148 72.6552 48.0469 72.6562H69.1406C70.0727 72.6552 70.9663 72.2844 71.6254 71.6254C72.2844 70.9663 72.6552 70.0727 72.6562 69.1406V65.625H70.3125ZM49.2188 52.7344C49.2191 52.4237 49.3427 52.1258 49.5624 51.9061C49.7821 51.6864 50.0799 51.5629 50.3906 51.5625H66.7969C67.1076 51.5629 67.4054 51.6864 67.6251 51.9061C67.8448 52.1258 67.9684 52.4237 67.9688 52.7344V65.625H49.2188V52.7344ZM70.3125 69.1406C70.3121 69.4513 70.1886 69.7492 69.9689 69.9689C69.7492 70.1886 69.4513 70.3121 69.1406 70.3125H48.0469C47.7362 70.3121 47.4383 70.1886 47.2186 69.9689C46.9989 69.7492 46.8754 69.4513 46.875 69.1406V67.9688H70.3125V69.1406Z" fill="#002FF5"/>
<path d="M8.20313 46.875C9.03243 46.8751 9.83504 46.582 10.4691 46.0475C11.1032 45.513 11.5279 44.7715 11.6681 43.9542C11.8084 43.1368 11.6551 42.2962 11.2355 41.5809C10.8159 40.8656 10.1569 40.3217 9.37501 40.0454V18.0636L12.5475 14.8911L10.8901 13.2339L7.03126 17.0928V40.0454C6.24937 40.3217 5.59038 40.8656 5.17075 41.5809C4.75113 42.2962 4.59789 43.1368 4.73814 43.9542C4.87839 44.7715 5.30308 45.513 5.93715 46.0475C6.57122 46.582 7.37384 46.8751 8.20313 46.875ZM8.20313 42.1875C8.43491 42.1875 8.66148 42.2562 8.85419 42.385C9.04691 42.5138 9.19711 42.6968 9.2858 42.9109C9.3745 43.1251 9.39771 43.3607 9.35249 43.588C9.30727 43.8153 9.19566 44.0241 9.03177 44.188C8.86788 44.3519 8.65908 44.4635 8.43175 44.5087C8.20443 44.554 7.96881 44.5308 7.75468 44.4421C7.54054 44.3534 7.35752 44.2032 7.22875 44.0104C7.09999 43.8177 7.03126 43.5912 7.03126 43.3594C7.03161 43.0487 7.15519 42.7508 7.37488 42.5311C7.59458 42.3114 7.89244 42.1879 8.20313 42.1875Z" fill="#002FF5"/>
<path d="M65.6251 40.0454C64.8432 40.3218 64.1842 40.8657 63.7646 41.5811C63.345 42.2964 63.1917 43.137 63.332 43.9544C63.4722 44.7718 63.8969 45.5133 64.531 46.0478C65.165 46.5824 65.9676 46.8755 66.797 46.8755C67.6263 46.8755 68.4289 46.5824 69.063 46.0478C69.697 45.5133 70.1217 44.7718 70.262 43.9544C70.4022 43.137 70.249 42.2964 69.8293 41.5811C69.4097 40.8657 68.7507 40.3218 67.9688 40.0454V17.0928L64.11 13.2339L62.4526 14.8911L65.6251 18.0636V40.0454ZM66.797 42.1875C67.0287 42.1875 67.2553 42.2562 67.448 42.385C67.6407 42.5138 67.7909 42.6968 67.8796 42.9109C67.9683 43.1251 67.9915 43.3607 67.9463 43.588C67.9011 43.8153 67.7895 44.0241 67.6256 44.188C67.4617 44.3519 67.2529 44.4635 67.0256 44.5087C66.7983 44.554 66.5626 44.5308 66.3485 44.4421C66.1344 44.3534 65.9513 44.2032 65.8226 44.0104C65.6938 43.8177 65.6251 43.5912 65.6251 43.3594C65.6254 43.0487 65.749 42.7508 65.9687 42.5311C66.1884 42.3114 66.4863 42.1879 66.797 42.1875Z" fill="#002FF5"/>
<path d="M45.3745 20.3752L48.0469 19.7344V15.4218L45.3747 14.7811L45.0469 13.9903L46.4873 11.6397L43.4385 8.59087L41.0879 10.0313L40.2971 9.70352L39.6562 7.03125H35.3438L34.7029 9.70352L33.9123 10.0313L31.5617 8.5908L28.5127 11.6397L29.9532 13.9903L29.6255 14.7811L26.9531 15.4218V19.7344L29.6253 20.3751L29.9531 21.1659L28.5127 23.5165L31.5615 26.5654L33.9121 25.125L34.7029 25.4527L35.3438 28.125H39.6562L40.2971 25.4527L41.0877 25.125L43.4383 26.5655L46.4873 23.5165L45.0468 21.1659L45.3745 20.3752ZM43.5236 23.1658L43.0876 23.6017L41.294 22.5026L38.2964 23.7447L37.808 25.7812H37.192L36.7036 23.7447L33.7061 22.5026L31.9123 23.6017L31.4764 23.1657L32.5755 21.3721L31.3333 18.3744L29.2969 17.8862V17.2701L31.3335 16.7818L32.5756 13.7841L31.4764 11.9905L31.9124 11.5545L33.706 12.6537L36.7036 11.4116L37.192 9.375H37.808L38.2964 11.4115L41.2939 12.6537L43.0877 11.5546L43.5236 11.9905L42.4245 13.7842L43.6666 16.7818L45.7031 17.2701V17.8862L43.6665 18.3745L42.4244 21.3721L43.5236 23.1658Z" fill="#002FF5"/>
<path d="M37.5 14.0625C36.8047 14.0625 36.125 14.2687 35.5468 14.655C34.9687 15.0413 34.5181 15.5904 34.252 16.2328C33.9859 16.8751 33.9163 17.582 34.0519 18.264C34.1876 18.946 34.5224 19.5724 35.0141 20.064C35.5057 20.5557 36.1322 20.8905 36.8141 21.0262C37.4961 21.1618 38.203 21.0922 38.8454 20.8261C39.4878 20.5601 40.0368 20.1094 40.4231 19.5313C40.8094 18.9532 41.0156 18.2734 41.0156 17.5781C41.0146 16.646 40.6438 15.7524 39.9848 15.0934C39.3257 14.4343 38.4321 14.0636 37.5 14.0625ZM37.5 18.75C37.2682 18.75 37.0417 18.6813 36.8489 18.5525C36.6562 18.4237 36.506 18.2407 36.4173 18.0266C36.3286 17.8125 36.3054 17.5768 36.3506 17.3495C36.3959 17.1222 36.5075 16.9134 36.6714 16.7495C36.8352 16.5856 37.0441 16.474 37.2714 16.4288C37.4987 16.3836 37.7343 16.4068 37.9485 16.4955C38.1626 16.5842 38.3456 16.7344 38.4744 16.9271C38.6031 17.1198 38.6719 17.3463 38.6719 17.5781C38.6715 17.8888 38.5479 18.1867 38.3283 18.4064C38.1086 18.6261 37.8107 18.7496 37.5 18.75Z" fill="#002FF5"/>
<path d="M24.6094 17.5781C24.6071 14.407 25.7759 11.3468 27.8914 8.98463L26.145 7.42151C24.3249 9.45859 23.0852 11.947 22.5554 14.6269C22.0255 17.3067 22.2249 20.0797 23.1328 22.6562L25.3427 21.875C24.8555 20.4948 24.6075 19.0417 24.6094 17.5781Z" fill="#002FF5"/>
<path d="M24.3044 25.1962C24.8295 26.1031 25.4462 26.9538 26.1451 27.7347L27.8915 26.1716C27.2998 25.5105 26.7776 24.7904 26.3332 24.0226L24.3044 25.1962Z" fill="#002FF5"/>
<path d="M49.6574 13.2812C50.4252 15.4613 50.5938 17.8074 50.1454 20.0749C49.6971 22.3423 48.6484 24.4478 47.1086 26.1715L48.855 27.7347C50.6751 25.6976 51.9148 23.2092 52.4447 20.5293C52.9745 17.8494 52.7751 15.0765 51.8672 12.5L49.6574 13.2812Z" fill="#002FF5"/>
<path d="M50.6956 9.96003C50.1883 9.08383 49.5953 8.26012 48.9254 7.50098L47.1682 9.0518C47.7353 9.69449 48.2373 10.3918 48.6668 11.1336L50.6956 9.96003Z" fill="#002FF5"/>
<path d="M35.1563 57.6235V49.9053L32.4693 47.2183L30.8119 48.8755L32.8125 50.876V57.6235C32.0306 57.8999 31.3716 58.4439 30.952 59.1592C30.5324 59.8745 30.3791 60.7152 30.5194 61.5325C30.6596 62.3499 31.0843 63.0914 31.7184 63.6259C32.3524 64.1605 33.1551 64.4537 33.9844 64.4537C34.8137 64.4537 35.6163 64.1605 36.2504 63.6259C36.8845 63.0914 37.3091 62.3499 37.4494 61.5325C37.5896 60.7152 37.4364 59.8745 37.0168 59.1592C36.5971 58.4439 35.9381 57.8999 35.1563 57.6235ZM33.9844 62.1094C33.7526 62.1094 33.526 62.0407 33.3333 61.9119C33.1406 61.7831 32.9904 61.6001 32.9017 61.386C32.813 61.1718 32.7898 60.9362 32.835 60.7089C32.8802 60.4816 32.9918 60.2728 33.1557 60.1089C33.3196 59.945 33.5284 59.8334 33.7558 59.7882C33.9831 59.7429 34.2187 59.7661 34.4328 59.8548C34.647 59.9435 34.83 60.0937 34.9588 60.2865C35.0875 60.4792 35.1563 60.7057 35.1563 60.9375C35.1559 61.2482 35.0323 61.5461 34.8126 61.7658C34.5929 61.9855 34.2951 62.109 33.9844 62.1094Z" fill="#002FF5"/>
</svg>
