<svg width="35" height="35" viewBox="0 0 35 35" fill="none" xmlns="http://www.w3.org/2000/svg">
<g clip-path="url(#clip0_26_171)">
<path fill-rule="evenodd" clip-rule="evenodd" d="M11.9896 21.4101H19.4029C19.708 21.4101 19.9555 21.1626 19.9555 20.8575C19.9555 20.5525 19.708 20.3049 19.4029 20.3049H11.9896C11.6845 20.3049 11.437 20.5525 11.437 20.8575C11.437 21.1626 11.6845 21.4101 11.9896 21.4101Z" fill="#DF0A0A"/>
<path fill-rule="evenodd" clip-rule="evenodd" d="M16.6548 20.8573V34.1621C16.6548 34.4671 16.9024 34.7147 17.2074 34.7147C17.5121 34.7147 17.7601 34.4671 17.7601 34.1621V20.8573C17.7601 20.5522 17.5121 20.3047 17.2074 20.3047C16.9024 20.3047 16.6548 20.5523 16.6548 20.8573Z" fill="#DF0A0A"/>
<path fill-rule="evenodd" clip-rule="evenodd" d="M4.82007 0.285156C2.66924 0.285156 0.922546 2.03185 0.922546 4.18302C0.922546 6.3342 2.66924 8.08054 4.82007 8.08054C6.9713 8.08054 8.71799 6.33425 8.71799 4.18302C8.71799 2.03179 6.9713 0.285156 4.82007 0.285156ZM4.82007 1.39042C6.36154 1.39042 7.61273 2.64161 7.61273 4.18302C7.61273 5.72415 6.36154 6.97528 4.82007 6.97528C3.27894 6.97528 2.02781 5.72415 2.02781 4.18302C2.02781 2.64155 3.279 1.39042 4.82007 1.39042Z" fill="#DF0A0A"/>
<path fill-rule="evenodd" clip-rule="evenodd" d="M30.18 0.285156C28.0287 0.285156 26.282 2.03185 26.282 4.18302C26.282 6.3342 28.0287 8.08054 30.18 8.08054C32.3308 8.08054 34.0775 6.33425 34.0775 4.18302C34.0775 2.03179 32.3308 0.285156 30.18 0.285156ZM30.18 1.39042C31.7211 1.39042 32.9722 2.64161 32.9722 4.18302C32.9722 5.72415 31.7211 6.97528 30.18 6.97528C28.6385 6.97528 27.3873 5.72415 27.3873 4.18302C27.3873 2.64155 28.6385 1.39042 30.18 1.39042Z" fill="#DF0A0A"/>
<path fill-rule="evenodd" clip-rule="evenodd" d="M7.86618 16.0105C7.95755 16.1948 8.14693 16.3174 8.36099 16.3174L8.56621 16.2776L13.6548 14.2436C14.4381 13.9308 15.3278 14.3121 15.641 15.0954C15.9538 15.8783 15.5721 16.768 14.7892 17.0811L8.06885 19.7673C7.42667 20.024 6.69943 19.8163 6.28789 19.2769C6.14422 19.0886 5.89624 19.0128 5.67155 19.0886C5.4472 19.1645 5.29613 19.3753 5.29613 19.6122V22.3875C5.29613 22.6682 5.50649 22.904 5.78505 22.9365L10.2581 23.453C11.3151 23.5749 12.113 24.4702 12.113 25.5346V34.1623C12.113 34.4674 12.3606 34.7149 12.6657 34.7149C12.9707 34.7149 13.2183 34.4673 13.2183 34.1623V25.5346C13.2183 23.9087 11.9995 22.5415 10.3847 22.3551L6.40134 21.895V20.7411C7.03872 21.034 7.78735 21.0701 8.47888 20.7938L15.1996 18.1076C16.5488 17.5679 17.2064 16.0345 16.6671 14.685C16.1277 13.3354 14.5943 12.6778 13.2448 13.2172L8.58944 15.0781L5.91508 10.7009C5.53747 10.0827 4.92182 9.64758 4.21335 9.49761C4.19162 9.49322 4.16989 9.48842 4.14776 9.48397C3.40537 9.32701 2.63131 9.49795 2.02415 9.95295C1.41699 10.4083 1.03568 11.1032 0.97818 11.8599C0.653218 16.1358 0.00150258 24.7053 0.00150258 24.7053C0.000346749 24.7193 0 24.7332 0 24.7473C0 26.3713 1.21616 27.7374 2.82872 27.926L6.81686 28.441V34.1622C6.81686 34.4673 7.06444 34.7148 7.36946 34.7148C7.67448 34.7148 7.92206 34.4673 7.92206 34.1622V27.9551C7.92206 27.677 7.71575 27.4426 7.44014 27.4069L2.96014 26.8289C1.91053 26.7077 1.11653 25.8242 1.10515 24.7698C1.10515 24.7668 2.07998 11.9436 2.07998 11.9436C2.11349 11.5048 2.33455 11.1014 2.68679 10.8376C3.03937 10.5734 3.48812 10.4743 3.91913 10.5653L3.98432 10.5789C4.39551 10.6659 4.75249 10.9186 4.97169 11.2771C5.80764 12.6455 7.50198 15.4189 7.83249 15.9601C7.8437 15.9778 7.85474 15.9947 7.86618 16.0105Z" fill="#DF0A0A"/>
<path fill-rule="evenodd" clip-rule="evenodd" d="M3.47864 16.8142L5.25446 19.7214C5.92386 20.8171 7.28629 21.2703 8.47888 20.7935C8.76218 20.6804 8.90035 20.3584 8.78691 20.0755C8.67381 19.7922 8.3518 19.654 8.06885 19.7671C7.37697 20.0438 6.58632 19.7811 6.19762 19.1452L4.42186 16.238C4.2627 15.9779 3.92225 15.8958 3.66219 16.0545C3.40201 16.2137 3.31948 16.5541 3.47864 16.8142Z" fill="#DF0A0A"/>
<path fill-rule="evenodd" clip-rule="evenodd" d="M25.8993 15.9153L20.5483 16.672C19.1093 16.8754 18.1065 18.209 18.3098 19.6481C18.5132 21.0868 19.8469 22.09 21.2859 21.8866L27.867 20.9556C28.1231 20.9195 28.3692 20.8465 28.5987 20.7408V21.8946L24.6153 22.3548C23.0005 22.5412 21.7818 23.9084 21.7818 25.5342V34.1619C21.7818 34.467 22.0294 34.7145 22.3344 34.7145C22.6395 34.7145 22.887 34.4669 22.887 34.1619V25.5342C22.887 24.4699 23.685 23.5746 24.742 23.4526L29.2135 22.9361H29.2124C29.4891 22.9059 29.7039 22.6716 29.7039 22.3871V19.6115C29.7039 19.3746 29.5528 19.1642 29.3285 19.0883C29.1041 19.012 28.8561 19.088 28.7121 19.2762C28.4701 19.5931 28.1116 19.8049 27.7122 19.8613L21.1311 20.7919C20.2959 20.9102 19.5222 20.3281 19.4043 19.4929C19.286 18.658 19.8681 17.8844 20.703 17.7661L26.3107 16.9732L26.2348 16.9784L26.7064 16.7139L29.6965 11.8194C30.0789 11.1938 30.7793 10.8346 31.5106 10.8899C31.521 10.8906 31.5309 10.8913 31.5412 10.892C32.5264 10.9665 33.3011 11.7645 33.3461 12.7511L33.8946 24.7587C33.8887 25.8175 33.093 26.7065 32.0397 26.8285L27.6529 27.3351C27.3769 27.3667 27.1677 27.5985 27.164 27.8763L27.0777 34.1542C27.0737 34.4593 27.3179 34.7101 27.6226 34.7145C27.9277 34.7186 28.1786 34.4743 28.183 34.1693L28.2622 28.3769L32.1664 27.9263C33.7812 27.7399 34.9999 26.3723 34.9999 24.7469C34.9999 24.7384 34.9996 24.7299 34.9992 24.7214C34.9992 24.7214 34.6329 16.7032 34.4502 12.7006C34.3795 11.1555 33.1666 9.90618 31.6244 9.79008C31.6141 9.78933 31.6038 9.78823 31.5938 9.78748C30.4488 9.70125 29.352 10.2634 28.7533 11.2431L25.8993 15.9153Z" fill="#DF0A0A"/>
<path fill-rule="evenodd" clip-rule="evenodd" d="M22.7202 1.94302C22.7202 1.50352 22.5455 1.08164 22.2346 0.770721C21.9236 0.459745 21.5022 0.285156 21.0623 0.285156H13.3523C12.4364 0.285156 11.6944 1.02755 11.6944 1.94302V8.9666C11.6944 9.32763 11.9051 9.65553 12.2338 9.8051C12.5624 9.95466 12.9481 9.89832 13.2204 9.66102C13.752 9.19794 14.501 8.54507 14.9184 8.1811C15.0194 8.09343 15.1483 8.04517 15.2817 8.04517H21.0622C21.5021 8.04517 21.9236 7.87053 22.2345 7.55961C22.5455 7.24863 22.7201 6.82681 22.7201 6.38731V1.94302H22.7202ZM12.7997 8.56171V1.94302C12.7997 1.638 13.0469 1.39042 13.3523 1.39042H21.0622C21.2088 1.39042 21.3496 1.44862 21.4531 1.55252C21.5566 1.65603 21.6149 1.7964 21.6149 1.94302V6.38731C21.6149 6.53392 21.5567 6.6743 21.4531 6.7778C21.3496 6.88171 21.2088 6.93991 21.0622 6.93991H15.2817C14.8813 6.93991 14.4945 7.08468 14.1923 7.34774L12.7997 8.56171Z" fill="#DF0A0A"/>
<path fill-rule="evenodd" clip-rule="evenodd" d="M14.7454 3.70848H19.7529C20.058 3.70848 20.3055 3.4609 20.3055 3.15587C20.3055 2.85085 20.058 2.60327 19.7529 2.60327H14.7454C14.4403 2.60327 14.1927 2.85085 14.1927 3.15587C14.1927 3.4609 14.4403 3.70848 14.7454 3.70848Z" fill="#DF0A0A"/>
<path fill-rule="evenodd" clip-rule="evenodd" d="M14.7454 5.72386H17.2075C17.5122 5.72386 17.7601 5.47628 17.7601 5.17126C17.7601 4.86617 17.5122 4.61865 17.2075 4.61865H14.7454C14.4403 4.61865 14.1927 4.86623 14.1927 5.17126C14.1927 5.47628 14.4403 5.72386 14.7454 5.72386Z" fill="#DF0A0A"/>
<path fill-rule="evenodd" clip-rule="evenodd" d="M26.2066 21.1909L27.867 20.9559C28.6462 20.8457 29.3352 20.3929 29.7456 19.7217L31.5214 16.8145C31.6805 16.5543 31.598 16.2139 31.3379 16.0548C31.0778 15.896 30.7374 15.9782 30.5782 16.2383L28.8025 19.1455C28.5645 19.5349 28.1643 19.7976 27.7123 19.8617L26.0518 20.0964C25.7497 20.1391 25.539 20.4191 25.5817 20.7212C25.6244 21.0229 25.9044 21.2336 26.2066 21.1909Z" fill="#DF0A0A"/>
</g>
<defs>
<clipPath id="clip0_26_171">
<rect width="35" height="35" fill="white"/>
</clipPath>
</defs>
</svg>
