<svg width="80" height="88" viewBox="0 0 80 88" fill="none" xmlns="http://www.w3.org/2000/svg">
<circle cx="58.5" cy="66.5" r="21.5" fill="#00A9A4" fill-opacity="0.23"/>
<path d="M61.9355 56.5518C69.0503 56.5518 74.8387 50.3642 74.8387 42.7587C74.8387 35.1532 69.0503 28.9656 61.9355 28.9656C54.8206 28.9656 49.0322 35.1532 49.0322 42.7587C49.0322 50.3642 54.8206 56.5518 61.9355 56.5518ZM61.9355 31.7242C67.6271 31.7242 72.2581 36.6745 72.2581 42.7587C72.2581 48.8428 67.6271 53.7932 61.9355 53.7932C56.2439 53.7932 51.6129 48.8428 51.6129 42.7587C51.6129 36.6745 56.2439 31.7242 61.9355 31.7242Z" fill="#030734"/>
<path d="M61.9354 46.8965C61.2245 46.8965 60.6451 46.2771 60.6451 45.5171H58.0645C58.0645 47.313 59.147 48.8303 60.6451 49.4013V51.0344H63.2258V49.4013C64.7238 48.8303 65.8064 47.313 65.8064 45.5171C65.8064 43.2358 64.0696 41.3792 61.9354 41.3792C61.2245 41.3792 60.6451 40.7599 60.6451 39.9999C60.6451 39.2399 61.2245 38.6206 61.9354 38.6206C62.6464 38.6206 63.2258 39.2399 63.2258 39.9999H65.8064C65.8064 38.204 64.7238 36.6868 63.2258 36.1158V34.4827H60.6451V36.1158C59.147 36.6868 58.0645 38.204 58.0645 39.9999C58.0645 42.2813 59.8012 44.1378 61.9354 44.1378C62.6464 44.1378 63.2258 44.7571 63.2258 45.5171C63.2258 46.2771 62.6464 46.8965 61.9354 46.8965Z" fill="#030734"/>
<path d="M76.5252 59.3103C76.1071 59.3103 75.6968 59.3903 75.3045 59.5462L67.769 62.5669C67.5251 62.6648 67.2774 62.7559 67.0297 62.8372C67.0735 62.5876 67.0968 62.331 67.0968 62.069C67.0968 59.7876 65.36 57.931 63.2258 57.931H58.3135L58.0826 57.8317C55.5432 56.7462 52.9213 55.9931 50.2451 55.571C49.858 51.2979 47.0219 47.7421 43.0361 46.7586L33.5483 44.4193V41.3531C36.6748 38.8331 38.7096 34.8441 38.7096 30.3448C41.5561 30.3448 43.8709 27.8703 43.8709 24.8276C43.8709 23.4414 43.3741 22.1876 42.5806 21.2166V12.4124C42.5806 9.04276 40.3057 6.22897 37.3122 5.6331C37.0774 4.27172 36.4657 3.01931 35.5303 2.01931C34.3109 0.717242 32.6915 0 30.9677 0H19.3548C13.6631 0 9.03216 4.95035 9.03216 11.0345V21.2166C8.23861 22.1876 7.74183 23.4414 7.74183 24.8276C7.74183 27.8703 10.0567 30.3448 12.9031 30.3448C12.9031 34.8441 14.938 38.8331 18.0644 41.3531V44.4193L8.57667 46.76C4.28634 47.8179 1.29021 51.8441 1.29279 56.4662L0.00246521 78.5352C-0.0194703 78.9145 0.105691 79.2883 0.349563 79.5655C0.593434 79.8428 0.934079 80 1.29021 80H50.3225C50.6787 80 51.0193 79.8428 51.2632 79.5655C51.5071 79.2883 51.6322 78.9145 51.6103 78.5352L51.3006 73.2455L56.0942 75.1669C57.2464 75.6276 58.4542 75.8621 59.6838 75.8621C61.3703 75.8621 63.0451 75.411 64.5303 74.5559L77.8361 66.8966C79.1703 66.1283 80 64.6441 80 63.0248C80 60.9766 78.4413 59.3103 76.5252 59.3103ZM47.6258 55.2759C47.2348 55.2469 46.8438 55.2207 46.4516 55.2055V53.7931C46.4516 53.0317 45.8735 52.4138 45.1612 52.4138H37.4193C36.707 52.4138 36.129 53.0317 36.129 53.7931V73.1034C36.129 73.8648 36.707 74.4828 37.4193 74.4828H39.9999V77.2414H30.8167L28.4425 56.9338L30.4761 54.0345L31.4528 54.8703C31.689 55.0731 31.9741 55.1724 32.258 55.1724C32.6141 55.1724 32.969 55.0152 33.2232 54.7103L38.4245 48.4552L42.4554 49.4497C45.1535 50.1145 47.1406 52.4 47.6258 55.2759ZM38.7096 71.7241V55.1724H43.8709V71.7241H38.7096ZM19.2502 46.9586L23.2709 48.6772L19.5057 51.8979L16.0541 47.7476L19.2502 46.9586ZM32.3625 46.9586L35.5586 47.7476L32.107 51.8979L28.3419 48.6772L32.3625 46.9586ZM25.8064 50.0414L28.4593 52.3103L26.4515 55.1724H25.1612L23.1535 52.3103L25.8064 50.0414ZM25.6554 57.931H25.9586L28.2167 77.2414H23.3973L25.6554 57.931ZM38.7096 27.5862V22.069C40.1328 22.069 41.2903 23.3062 41.2903 24.8276C41.2903 26.349 40.1328 27.5862 38.7096 27.5862ZM10.3225 24.8276C10.3225 23.3062 11.4799 22.069 12.9031 22.069V27.5862C11.4799 27.5862 10.3225 26.349 10.3225 24.8276ZM12.9031 19.3103C12.4554 19.3103 12.0283 19.3903 11.6128 19.5062V11.0345C11.6128 6.47035 15.0851 2.75862 19.3548 2.75862H30.9677C33.1019 2.75862 34.8386 4.61517 34.8386 6.89655C34.8386 7.65793 35.4167 8.27586 36.129 8.27586C38.2619 8.27586 39.9987 10.1324 39.9987 12.4138V19.5076C39.5845 19.3903 39.1574 19.3103 38.7096 19.3103C38.7096 18.8262 38.4722 18.3766 38.0838 18.1283L31.6322 13.9903C31.0399 13.611 30.2761 13.7959 29.8941 14.4083C28.5186 16.6138 26.2154 17.931 23.7354 17.931H14.1935C13.4812 17.931 12.9031 18.549 12.9031 19.3103ZM15.4838 30.3448V20.6897H23.7354C26.6657 20.6897 29.4102 19.3269 31.2941 16.9903L36.129 20.091V30.3448C36.129 36.429 31.498 41.3793 25.8064 41.3793C20.1148 41.3793 15.4838 36.429 15.4838 30.3448ZM25.8064 44.1379C27.6412 44.1379 29.3857 43.72 30.9677 42.9779V44.5821L25.8064 46.789L20.6451 44.5821V42.9779C22.227 43.72 23.9715 44.1379 25.8064 44.1379ZM3.87086 56.5517C3.87086 53.1366 6.04505 50.2165 9.15732 49.4483L13.1883 48.4538L18.3896 54.709C18.6451 55.0152 18.9986 55.1724 19.3548 55.1724C19.6386 55.1724 19.9225 55.0731 20.1599 54.8703L21.1367 54.0345L23.1702 56.9338L20.796 77.2414H11.6128V62.069H9.03216V77.2414H2.66311L3.87086 56.5517ZM42.5806 77.2414V74.4828H45.1612C45.8735 74.4828 46.4516 73.8648 46.4516 73.1034V71.7986C47.1974 71.8786 47.9342 72.0248 48.6567 72.2414L48.9496 77.2414H42.5806ZM76.6129 64.4676L63.3071 72.1269C61.3884 73.2303 59.0438 73.4014 57.0013 72.5821L50.6116 70.0207C49.2683 69.4828 47.8735 69.1517 46.4516 69.0262V57.9959C50.1161 58.1517 53.7045 58.931 57.1238 60.3931L57.5845 60.5903C57.738 60.6566 57.9006 60.6897 58.0645 60.6897H63.2258C63.9368 60.6897 64.5161 61.309 64.5161 62.069C64.5161 62.829 63.9368 63.4483 63.2258 63.4483H55.4838V66.2069H63.2258C65.0942 66.2069 66.9277 65.851 68.6761 65.1503L76.2103 62.1297C76.7781 61.9034 77.4194 62.3834 77.4194 63.0248C77.4194 63.629 77.1097 64.1821 76.6129 64.4676Z" fill="#030734"/>
</svg>
