<svg width="35" height="35" viewBox="0 0 35 35" fill="none" xmlns="http://www.w3.org/2000/svg">
<g clip-path="url(#clip0_26_159)">
<path d="M24.6094 21.3281C24.4643 21.3281 24.3252 21.2705 24.2227 21.1679C24.1201 21.0654 24.0625 20.9263 24.0625 20.7812V14.2188H13.125V17.5C13.125 17.645 13.0674 17.7841 12.9648 17.8867C12.8623 17.9893 12.7232 18.0469 12.5781 18.0469C12.4331 18.0469 12.294 17.9893 12.1914 17.8867C12.0889 17.7841 12.0312 17.645 12.0312 17.5V13.6719C12.0312 13.5268 12.0889 13.3877 12.1914 13.2852C12.294 13.1826 12.4331 13.125 12.5781 13.125H24.6094C24.7544 13.125 24.8935 13.1826 24.9961 13.2852C25.0986 13.3877 25.1562 13.5268 25.1562 13.6719V20.7812C25.1562 20.9263 25.0986 21.0654 24.9961 21.1679C24.8935 21.2705 24.7544 21.3281 24.6094 21.3281Z" fill="#DF0A0A"/>
<path d="M24.6094 16.4062H12.5781C12.4331 16.4062 12.294 16.3486 12.1914 16.2461C12.0889 16.1435 12.0312 16.0044 12.0312 15.8594C12.0312 15.7143 12.0889 15.5752 12.1914 15.4727C12.294 15.3701 12.4331 15.3125 12.5781 15.3125H24.6094C24.7544 15.3125 24.8935 15.3701 24.9961 15.4727C25.0986 15.5752 25.1562 15.7143 25.1562 15.8594C25.1562 16.0044 25.0986 16.1435 24.9961 16.2461C24.8935 16.3486 24.7544 16.4062 24.6094 16.4062Z" fill="#DF0A0A"/>
<path d="M24.6094 18.5938H20.907C20.762 18.5938 20.6229 18.5361 20.5203 18.4336C20.4178 18.331 20.3602 18.1919 20.3602 18.0469C20.3602 17.9018 20.4178 17.7627 20.5203 17.6602C20.6229 17.5576 20.762 17.5 20.907 17.5H24.6094C24.7544 17.5 24.8935 17.5576 24.9961 17.6602C25.0986 17.7627 25.1563 17.9018 25.1563 18.0469C25.1563 18.1919 25.0986 18.331 24.9961 18.4336C24.8935 18.5361 24.7544 18.5938 24.6094 18.5938Z" fill="#DF0A0A"/>
<path d="M18.5938 13.6719C17.2958 13.6719 16.027 13.287 14.9478 12.5659C13.8686 11.8448 13.0275 10.8199 12.5308 9.62074C12.0341 8.4216 11.9041 7.1021 12.1573 5.8291C12.4106 4.5561 13.0356 3.38677 13.9534 2.46899C14.8711 1.55121 16.0405 0.92619 17.3135 0.672975C18.5865 0.419759 19.906 0.549718 21.1051 1.04642C22.3043 1.54312 23.3292 2.38425 24.0503 3.46345C24.7714 4.54265 25.1563 5.81144 25.1563 7.10938C25.1544 8.84928 24.4624 10.5174 23.2321 11.7477C22.0018 12.978 20.3337 13.67 18.5938 13.6719ZM18.5938 1.64063C17.5121 1.64063 16.4548 1.96136 15.5555 2.56228C14.6561 3.16319 13.9552 4.01729 13.5413 5.01658C13.1274 6.01586 13.0191 7.11544 13.2301 8.17628C13.4411 9.23711 13.9619 10.2115 14.7268 10.9764C15.4916 11.7412 16.466 12.262 17.5269 12.473C18.5877 12.6841 19.6873 12.5758 20.6866 12.1618C21.6858 11.7479 22.5399 11.047 23.1409 10.1477C23.7418 9.24832 24.0625 8.19099 24.0625 7.10938C24.0609 5.65946 23.4842 4.26939 22.459 3.24415C21.4337 2.2189 20.0437 1.64222 18.5938 1.64063Z" fill="#DF0A0A"/>
<path d="M19.1406 9.84375H16.9531C16.8081 9.84375 16.669 9.78613 16.5664 9.68357C16.4639 9.58102 16.4062 9.44192 16.4062 9.29688C16.4062 9.15183 16.4639 9.01273 16.5664 8.91018C16.669 8.80762 16.8081 8.75 16.9531 8.75H19.1406C19.2857 8.75 19.4248 8.69238 19.5273 8.58982C19.6299 8.48727 19.6875 8.34817 19.6875 8.20312C19.6875 8.05808 19.6299 7.91899 19.5273 7.81643C19.4248 7.71387 19.2857 7.65625 19.1406 7.65625H18.0469C17.6118 7.65625 17.1945 7.4834 16.8868 7.17572C16.5791 6.86805 16.4063 6.45075 16.4062 6.01562C16.4063 5.5805 16.5791 5.1632 16.8868 4.85553C17.1945 4.54785 17.6118 4.375 18.0469 4.375H20.2344C20.3794 4.375 20.5185 4.43262 20.6211 4.53518C20.7236 4.63774 20.7812 4.77683 20.7812 4.92188C20.7812 5.06692 20.7236 5.20601 20.6211 5.30857C20.5185 5.41113 20.3794 5.46875 20.2344 5.46875H18.0469C17.9018 5.46875 17.7627 5.52637 17.6602 5.62893C17.5576 5.73149 17.5 5.87058 17.5 6.01562C17.5 6.16067 17.5576 6.29976 17.6602 6.40232C17.7627 6.50488 17.9018 6.5625 18.0469 6.5625H19.1406C19.5757 6.5625 19.993 6.73535 20.3007 7.04303C20.6084 7.3507 20.7812 7.768 20.7812 8.20312C20.7812 8.63825 20.6084 9.05555 20.3007 9.36322C19.993 9.6709 19.5757 9.84375 19.1406 9.84375Z" fill="#DF0A0A"/>
<path d="M18.5938 5.46875C18.4487 5.46875 18.3096 5.41113 18.2071 5.30857C18.1045 5.20601 18.0469 5.06692 18.0469 4.92188V3.82812C18.0469 3.68308 18.1045 3.54399 18.2071 3.44143C18.3096 3.33887 18.4487 3.28125 18.5938 3.28125C18.7388 3.28125 18.8779 3.33887 18.9804 3.44143C19.083 3.54399 19.1406 3.68308 19.1406 3.82812V4.92188C19.1406 5.06692 19.083 5.20601 18.9804 5.30857C18.8779 5.41113 18.7388 5.46875 18.5938 5.46875Z" fill="#DF0A0A"/>
<path d="M18.5938 10.9375C18.4487 10.9375 18.3096 10.8799 18.2071 10.7773C18.1045 10.6748 18.0469 10.5357 18.0469 10.3906V9.29688C18.0469 9.15183 18.1045 9.01273 18.2071 8.91018C18.3096 8.80762 18.4487 8.75 18.5938 8.75C18.7388 8.75 18.8779 8.80762 18.9804 8.91018C19.083 9.01273 19.1406 9.15183 19.1406 9.29688V10.3906C19.1406 10.5357 19.083 10.6748 18.9804 10.7773C18.8779 10.8799 18.7388 10.9375 18.5938 10.9375Z" fill="#DF0A0A"/>
<path d="M10.3906 34.453C10.2456 34.453 10.1065 34.3953 10.004 34.2928L0.707115 24.9959C0.604591 24.8933 0.546997 24.7543 0.546997 24.6093C0.546997 24.4642 0.604591 24.3252 0.707115 24.2226L4.53524 20.3945C4.63779 20.292 4.77687 20.2344 4.92188 20.2344C5.06689 20.2344 5.20597 20.292 5.30852 20.3945L14.6054 29.6914C14.7079 29.7939 14.7655 29.933 14.7655 30.078C14.7655 30.223 14.7079 30.3621 14.6054 30.4646L10.7773 34.2928C10.6747 34.3953 10.5357 34.453 10.3906 34.453ZM1.86704 24.6093L10.3906 33.1329L13.4455 30.078L4.92188 21.5544L1.86704 24.6093Z" fill="#DF0A0A"/>
<path d="M6.01563 22.4219C5.90749 22.4219 5.80178 22.3898 5.71186 22.3297C5.62195 22.2696 5.55188 22.1842 5.51049 22.0843C5.46911 21.9844 5.45828 21.8744 5.47937 21.7683C5.50047 21.6623 5.55253 21.5648 5.62899 21.4884L10.004 17.1134C10.1065 17.0108 10.2456 16.9532 10.3906 16.9531H19.6875C20.2677 16.9531 20.8241 17.1836 21.2343 17.5938C21.6445 18.0041 21.875 18.5605 21.875 19.1406C21.875 19.7208 21.6445 20.2772 21.2343 20.6874C20.8241 21.0977 20.2677 21.3281 19.6875 21.3281H15.8594C15.7143 21.3281 15.5752 21.2705 15.4727 21.1679C15.3701 21.0654 15.3125 20.9263 15.3125 20.7812C15.3125 20.6362 15.3701 20.4971 15.4727 20.3946C15.5752 20.292 15.7143 20.2344 15.8594 20.2344H19.6875C19.9776 20.2344 20.2558 20.1191 20.4609 19.914C20.666 19.7089 20.7813 19.4307 20.7813 19.1406C20.7813 18.8505 20.666 18.5723 20.4609 18.3672C20.2558 18.1621 19.9776 18.0469 19.6875 18.0469H10.617L6.40227 22.2616C6.29974 22.3642 6.16066 22.4218 6.01563 22.4219Z" fill="#DF0A0A"/>
<path d="M13.125 29.5311C13.0169 29.5311 12.9112 29.499 12.8212 29.4389C12.7313 29.3788 12.6613 29.2934 12.6199 29.1935C12.5785 29.0936 12.5677 28.9837 12.5887 28.8776C12.6098 28.7715 12.6619 28.6741 12.7384 28.5976L15.4727 25.8633C15.5753 25.7607 15.7144 25.703 15.8594 25.703H23.8268L33.0859 15.9107C33.2713 15.7194 33.3731 15.4624 33.369 15.1961C33.3648 14.9298 33.255 14.6761 33.0638 14.4907C32.8726 14.3054 32.6155 14.2036 32.3492 14.2077C32.0829 14.2119 31.8292 14.3216 31.6438 14.5129L24.9966 21.1678C24.9457 21.2186 24.8854 21.259 24.8189 21.2865C24.7525 21.314 24.6813 21.3281 24.6094 21.328H19.1406C18.9956 21.328 18.8565 21.2704 18.7539 21.1678C18.6514 21.0653 18.5938 20.9262 18.5938 20.7811C18.5938 20.6361 18.6514 20.497 18.7539 20.3944C18.8565 20.2919 18.9956 20.2343 19.1406 20.2343H24.3824L30.8695 13.739C31.2618 13.3624 31.7851 13.1529 32.329 13.1546C32.8729 13.1562 33.3949 13.369 33.7849 13.7481C34.1749 14.1271 34.4026 14.6428 34.4198 15.1864C34.437 15.73 34.2425 16.2591 33.8773 16.6621L24.4601 26.6261C24.4089 26.6801 24.3472 26.7231 24.2789 26.7524C24.2105 26.7818 24.1369 26.7969 24.0625 26.7968H16.0858L13.5116 29.3709C13.4091 29.4735 13.27 29.5311 13.125 29.5311Z" fill="#DF0A0A"/>
</g>
<defs>
<clipPath id="clip0_26_159">
<rect width="35" height="35" fill="white"/>
</clipPath>
</defs>
</svg>
