<svg width="80" height="88" viewBox="0 0 80 88" fill="none" xmlns="http://www.w3.org/2000/svg">
<circle cx="58.5" cy="66.5" r="21.5" fill="#00A9A4" fill-opacity="0.23"/>
<path d="M78.6667 77.2881C76.5457 77.2857 74.5123 76.4277 73.0125 74.9025C71.5127 73.3774 70.6691 71.3095 70.6667 69.1525V10.8475C70.6635 7.97152 69.5387 5.21431 67.539 3.18071C65.5393 1.14712 62.828 0.00322998 60 0H5.33335C4.97973 0 4.64059 0.142857 4.39054 0.397143C4.14049 0.65143 4.00002 0.996317 4.00002 1.35593C4.00002 1.71555 4.14049 2.06043 4.39054 2.31472C4.64059 2.56901 4.97973 2.71186 5.33335 2.71186C7.45434 2.71433 9.48776 3.57226 10.9875 5.09745C12.4873 6.62263 13.3309 8.69052 13.3333 10.8475V44.0398L0.568683 53.1264C0.283277 53.3296 0.0874088 53.6383 0.0229935 53.9865C-0.0414217 54.3347 0.0307326 54.6947 0.224016 54.9895L2.89068 59.0573C3.08686 59.3565 3.39187 59.5642 3.73862 59.6347C4.08538 59.7052 4.44547 59.6327 4.73968 59.4332L5.33335 59.0307V78.6441C5.33335 79.0037 5.47382 79.3486 5.72387 79.6029C5.97392 79.8571 6.31306 80 6.66668 80H78.6667C79.0203 80 79.3594 79.8571 79.6095 79.6029C79.8595 79.3486 80 79.0037 80 78.6441C80 78.2845 79.8595 77.9396 79.6095 77.6853C79.3594 77.431 79.0203 77.2881 78.6667 77.2881ZM12.3815 2.71186H60C62.121 2.71433 64.1544 3.57226 65.6542 5.09745C67.1539 6.62263 67.9976 8.69052 68 10.8475V54.7458C65.9949 51.6638 63.0173 49.3684 59.5577 48.2377C56.0981 47.107 52.363 47.2085 48.9677 48.5254L28.7647 34.1434C28.5406 33.9838 28.2736 33.8982 28 33.8982C27.7264 33.8982 27.4595 33.9838 27.2353 34.1434L16 42.1415V10.8475C16.0005 9.30769 15.678 7.78553 15.054 6.3826C14.43 4.97967 13.5189 3.72824 12.3815 2.71186ZM4.36985 56.4247L3.16568 54.588L28 36.9093L46.247 49.8983C45.5368 50.347 44.862 50.8514 44.2288 51.4068L28.7397 40.9058C28.5206 40.7572 28.2633 40.678 28 40.678C27.7368 40.678 27.4794 40.7572 27.2603 40.9058L4.36985 56.4247ZM32 77.2881H24V58.3051C24.0009 57.5861 24.2821 56.8968 24.782 56.3884C25.2819 55.8801 25.9597 55.5941 26.6667 55.5932H29.3333C30.0403 55.5941 30.7181 55.8801 31.218 56.3884C31.718 56.8968 31.9992 57.5861 32 58.3051V77.2881ZM34.6667 77.2881V58.3051C34.6651 56.8671 34.1027 55.4885 33.1028 54.4717C32.103 53.4549 30.7473 52.883 29.3333 52.8814H26.6667C25.2527 52.883 23.897 53.4549 22.8972 54.4717C21.8973 55.4885 21.3349 56.8671 21.3333 58.3051V77.2881H8.00002V57.2229L28 43.6636L42.33 53.3786C40.9017 55.1359 39.8529 57.1792 39.2519 59.3756C38.6508 61.572 38.511 63.8725 38.8414 66.1275C39.1718 68.3825 39.9651 70.5415 41.1697 72.4643C42.3743 74.3872 43.9633 76.0307 45.8333 77.2881H34.6667ZM41.3333 63.7288C41.3333 61.047 42.1153 58.4255 43.5804 56.1957C45.0455 53.9658 47.1279 52.2279 49.5642 51.2016C52.0006 50.1754 54.6815 49.9068 57.2679 50.43C59.8543 50.9532 62.2301 52.2446 64.0948 54.1409C65.9595 56.0372 67.2293 58.4533 67.7438 61.0835C68.2583 63.7138 67.9942 66.4401 66.9851 68.9177C65.9759 71.3954 64.2669 73.5131 62.0743 75.003C59.8816 76.4929 57.3038 77.2881 54.6667 77.2881C51.1317 77.2841 47.7426 75.8542 45.243 73.3122C42.7434 70.7702 41.3374 67.3237 41.3333 63.7288ZM63.5 77.2881C65.4909 75.942 67.1626 74.1624 68.3938 72.0783C68.9526 74.0946 70.0724 75.9038 71.6185 77.2881H63.5Z" fill="#030734"/>
<path d="M17.3337 58.3052H12.0003C11.6467 58.3052 11.3076 58.448 11.0575 58.7023C10.8075 58.9566 10.667 59.3015 10.667 59.6611V65.0848C10.667 65.4445 10.8075 65.7893 11.0575 66.0436C11.3076 66.2979 11.6467 66.4408 12.0003 66.4408H17.3337C17.6873 66.4408 18.0264 66.2979 18.2765 66.0436C18.5265 65.7893 18.667 65.4445 18.667 65.0848V59.6611C18.667 59.3015 18.5265 58.9566 18.2765 58.7023C18.0264 58.448 17.6873 58.3052 17.3337 58.3052ZM16.0003 63.7289H13.3337V61.017H16.0003V63.7289Z" fill="#030734"/>
<path d="M54.667 59.661H57.3337C57.6873 59.661 58.0264 59.5182 58.2765 59.2639C58.5265 59.0096 58.667 58.6647 58.667 58.3051C58.667 57.9455 58.5265 57.6006 58.2765 57.3463C58.0264 57.092 57.6873 56.9492 57.3337 56.9492H56.0003V55.5932C56.0003 55.2336 55.8598 54.8887 55.6098 54.6344C55.3598 54.3802 55.0206 54.2373 54.667 54.2373C54.3134 54.2373 53.9742 54.3802 53.7242 54.6344C53.4741 54.8887 53.3337 55.2336 53.3337 55.5932V57.1824C52.4444 57.5025 51.6951 58.132 51.218 58.9595C50.7409 59.787 50.5667 60.7594 50.7262 61.7049C50.8857 62.6504 51.3687 63.5081 52.0898 64.1265C52.8109 64.745 53.7237 65.0844 54.667 65.0848C55.0206 65.0848 55.3598 65.2276 55.6098 65.4819C55.8598 65.7362 56.0003 66.0811 56.0003 66.4407C56.0003 66.8003 55.8598 67.1452 55.6098 67.3995C55.3598 67.6538 55.0206 67.7966 54.667 67.7966H52.0003C51.6467 67.7966 51.3076 67.9395 51.0575 68.1938C50.8075 68.4481 50.667 68.7929 50.667 69.1526C50.667 69.5122 50.8075 69.8571 51.0575 70.1113C51.3076 70.3656 51.6467 70.5085 52.0003 70.5085H53.3337V71.8644C53.3337 72.224 53.4741 72.5689 53.7242 72.8232C53.9742 73.0775 54.3134 73.2204 54.667 73.2204C55.0206 73.2204 55.3598 73.0775 55.6098 72.8232C55.8598 72.5689 56.0003 72.224 56.0003 71.8644V70.2753C56.8895 69.9551 57.6389 69.3257 58.116 68.4982C58.5931 67.6706 58.7673 66.6982 58.6078 65.7528C58.4482 64.8073 57.9653 63.9496 57.2442 63.3311C56.5231 62.7127 55.6103 62.3733 54.667 62.3729C54.3134 62.3729 53.9742 62.23 53.7242 61.9758C53.4741 61.7215 53.3337 61.3766 53.3337 61.017C53.3337 60.6574 53.4741 60.3125 53.7242 60.0582C53.9742 59.8039 54.3134 59.661 54.667 59.661Z" fill="#030734"/>
<path d="M21.3333 14.9153H62.6667C63.0203 14.9153 63.3594 14.7724 63.6095 14.5181C63.8595 14.2638 64 13.9189 64 13.5593V8.1356C64 7.77598 63.8595 7.43109 63.6095 7.17681C63.3594 6.92252 63.0203 6.77966 62.6667 6.77966H21.3333C20.9797 6.77966 20.6406 6.92252 20.3905 7.17681C20.1405 7.43109 20 7.77598 20 8.1356V13.5593C20 13.9189 20.1405 14.2638 20.3905 14.5181C20.6406 14.7724 20.9797 14.9153 21.3333 14.9153ZM22.6667 9.49153H61.3333V12.2034H22.6667V9.49153Z" fill="#030734"/>
<path d="M61.333 17.6272H22.6663C22.3127 17.6272 21.9736 17.7701 21.7235 18.0243C21.4735 18.2786 21.333 18.6235 21.333 18.9831C21.333 19.3427 21.4735 19.6876 21.7235 19.9419C21.9736 20.1962 22.3127 20.3391 22.6663 20.3391H61.333C61.6866 20.3391 62.0258 20.1962 62.2758 19.9419C62.5259 19.6876 62.6663 19.3427 62.6663 18.9831C62.6663 18.6235 62.5259 18.2786 62.2758 18.0243C62.0258 17.7701 61.6866 17.6272 61.333 17.6272Z" fill="#030734"/>
<path d="M61.333 23.0508H22.6663C22.3127 23.0508 21.9736 23.1936 21.7235 23.4479C21.4735 23.7022 21.333 24.0471 21.333 24.4067C21.333 24.7663 21.4735 25.1112 21.7235 25.3655C21.9736 25.6198 22.3127 25.7626 22.6663 25.7626H61.333C61.6866 25.7626 62.0258 25.6198 62.2758 25.3655C62.5259 25.1112 62.6663 24.7663 62.6663 24.4067C62.6663 24.0471 62.5259 23.7022 62.2758 23.4479C62.0258 23.1936 61.6866 23.0508 61.333 23.0508Z" fill="#030734"/>
<path d="M61.333 28.4746H22.6663C22.3127 28.4746 21.9736 28.6175 21.7235 28.8718C21.4735 29.126 21.333 29.4709 21.333 29.8305C21.333 30.1902 21.4735 30.535 21.7235 30.7893C21.9736 31.0436 22.3127 31.1865 22.6663 31.1865H61.333C61.6866 31.1865 62.0258 31.0436 62.2758 30.7893C62.5259 30.535 62.6663 30.1902 62.6663 29.8305C62.6663 29.4709 62.5259 29.126 62.2758 28.8718C62.0258 28.6175 61.6866 28.4746 61.333 28.4746Z" fill="#030734"/>
<path d="M61.333 33.8982H42.6663C42.3127 33.8982 41.9736 34.041 41.7235 34.2953C41.4735 34.5496 41.333 34.8945 41.333 35.2541C41.333 35.6137 41.4735 35.9586 41.7235 36.2129C41.9736 36.4672 42.3127 36.6101 42.6663 36.6101H61.333C61.6866 36.6101 62.0258 36.4672 62.2758 36.2129C62.5259 35.9586 62.6663 35.6137 62.6663 35.2541C62.6663 34.8945 62.5259 34.5496 62.2758 34.2953C62.0258 34.041 61.6866 33.8982 61.333 33.8982Z" fill="#030734"/>
</svg>
