<svg width="36" height="36" viewBox="0 0 36 36" fill="none" xmlns="http://www.w3.org/2000/svg">
<path d="M18 3.375V32.625" stroke="white" stroke-width="1.5" stroke-linecap="round" stroke-linejoin="round"/>
<path d="M25.875 12.375C25.875 11.6363 25.7295 10.9049 25.4468 10.2224C25.1641 9.53995 24.7498 8.91985 24.2275 8.39752C23.7051 7.87519 23.0851 7.46086 22.4026 7.17818C21.7201 6.89549 20.9887 6.75 20.25 6.75H15.1875C13.6957 6.75 12.2649 7.34263 11.21 8.39752C10.1551 9.45242 9.5625 10.8832 9.5625 12.375C9.5625 13.8668 10.1551 15.2976 11.21 16.3525C12.2649 17.4074 13.6957 18 15.1875 18H21.375C22.8668 18 24.2976 18.5926 25.3525 19.6475C26.4074 20.7024 27 22.1332 27 23.625C27 25.1168 26.4074 26.5476 25.3525 27.6025C24.2976 28.6574 22.8668 29.25 21.375 29.25H14.625C13.1332 29.25 11.7024 28.6574 10.6475 27.6025C9.59263 26.5476 9 25.1168 9 23.625" stroke="white" stroke-width="1.5" stroke-linecap="round" stroke-linejoin="round"/>
</svg>
