<svg width="69" height="73" viewBox="0 0 69 73" fill="none" xmlns="http://www.w3.org/2000/svg">
<path d="M68.0324 45.9141C67.374 44.8145 64.6741 41.5481 57.5728 45.6838L45.1499 52.9196C44.5844 53.2489 44.01 53.4896 43.4135 53.6438C43.6208 53.2818 43.7857 52.8796 43.9035 52.4403C44.2375 51.1937 44.043 49.8441 43.3697 48.7379C42.7247 47.6776 41.7197 46.9512 40.5402 46.6925C36.8788 45.8896 33.2614 44.6406 30.3547 43.6369C29.4544 43.326 28.6042 43.0325 27.8777 42.7969C24.6713 41.7569 21.7791 43.0408 19.3725 44.434L10.1909 49.7501L9.354 48.2715C8.5391 46.8312 6.70395 46.3224 5.26415 47.138L1.77856 49.1107C0.338615 49.9256 -0.169979 51.7603 0.64506 53.2004L10.8925 71.3066C11.444 72.281 12.4622 72.829 13.5093 72.829C14.0096 72.829 14.5167 72.7039 14.9824 72.4402L18.4678 70.4675C19.1638 70.0738 19.6652 69.4307 19.8796 68.6568C20.0942 67.883 19.9954 67.0735 19.6016 66.3777L18.579 64.5708L20.6011 63.4033L36.4847 67.6594C37.3685 67.8963 38.2479 68.0141 39.1127 68.0139C40.8621 68.0139 42.552 67.5324 44.0967 66.5814L66.6414 52.6993C68.727 51.4152 69.3902 48.1811 68.0324 45.9141ZM17.621 68.0308C17.5737 68.2013 17.4645 68.3422 17.3134 68.4277L13.8278 70.4006C13.5181 70.5761 13.1077 70.4624 12.932 70.1523L2.68485 52.0457C2.50937 51.7355 2.62304 51.3254 2.933 51.1499L6.41859 49.1772C6.51776 49.1211 6.62719 49.0947 6.73588 49.0947C6.96703 49.0947 7.19496 49.2147 7.31435 49.4256L8.73949 51.9437C8.73964 51.9438 8.73964 51.944 8.73979 51.9441C8.73979 51.9443 8.73993 51.9443 8.73993 51.9444L17.5618 67.5321C17.6472 67.6832 17.6683 67.8601 17.621 68.0308ZM65.4125 50.7034L42.8679 64.5855C41.0972 65.6756 39.1536 65.9482 37.0911 65.3954L20.7386 61.0137C20.4385 60.9332 20.1185 60.9753 19.8495 61.1309L17.4244 62.531L11.3452 51.7895L20.5466 46.462C22.6047 45.2703 24.8299 44.272 27.1542 45.0258C27.8598 45.2546 28.7 45.5448 29.5893 45.852C32.5536 46.8755 36.2428 48.1495 40.0379 48.9816C40.5861 49.1018 41.0582 49.4479 41.3673 49.9558C41.7092 50.5178 41.8083 51.2022 41.6392 51.8334C41.2167 53.4104 39.8992 53.6081 38.8488 53.4879C37.0224 53.1122 35.2855 52.6167 33.4479 52.0918C32.5748 51.8425 31.6722 51.5847 30.7441 51.3359C30.1195 51.1689 29.4764 51.5396 29.3088 52.1646C29.1413 52.7897 29.5124 53.4323 30.1375 53.5999C31.047 53.8435 31.9403 54.0986 32.8041 54.3455C34.7014 54.8873 36.4934 55.399 38.4244 55.7939C38.432 55.7955 38.4396 55.7959 38.4473 55.7974C38.4553 55.7989 38.4629 55.8012 38.4711 55.8025L40.0161 56.0538C42.3435 56.4263 44.408 56.063 46.3291 54.9446L58.7522 47.7088C62.2911 45.6478 65.0087 45.4268 66.0215 47.1181C66.7174 48.28 66.4101 50.0894 65.4125 50.7034ZM7.39579 52.6137C7.49526 53.2938 7.02445 53.9258 6.34433 54.0251C5.6642 54.1246 5.03241 53.6538 4.93295 52.9738C4.83349 52.2938 5.30429 51.6619 5.98427 51.5624C6.6644 51.4631 7.29633 51.9337 7.39579 52.6137ZM43.9423 21.6762V12.2936C43.9423 11.6464 44.467 11.1217 45.1142 11.1217C45.7614 11.1217 46.2861 11.6464 46.2861 12.2936V20.9996L52.4901 24.5817C53.0506 24.9053 53.2428 25.6221 52.919 26.1825C52.7021 26.5584 52.308 26.7686 51.903 26.7686C51.7042 26.7686 51.5028 26.7179 51.3183 26.6114L44.5283 22.6909C44.1656 22.4817 43.9423 22.0949 43.9423 21.6762ZM7.09872 22.4633L9.04872 23.2139C9.34521 24.2527 9.75961 25.2519 10.2853 26.1969L9.43661 28.1076C9.23988 28.5506 9.33613 29.069 9.67905 29.4119L12.5791 32.3119C12.9218 32.6545 13.4402 32.7506 13.8833 32.5542L15.7949 31.7051C16.74 32.231 17.7389 32.6453 18.7769 32.9415L19.5276 34.892C19.7017 35.3444 20.1364 35.6429 20.6213 35.6429H24.7224C25.2073 35.6429 25.6419 35.3444 25.8161 34.892L26.5666 32.942C26.6321 32.9234 26.6969 32.9028 26.7619 32.8833C30.6604 39.2584 37.6023 43.1806 45.1141 43.1806C56.9715 43.1806 66.6184 33.5338 66.6184 21.6761C66.6185 9.8186 56.9717 0.171875 45.1142 0.171875C39.2143 0.171875 33.5435 2.6208 29.4918 6.90195C28.5635 6.39102 27.5844 5.98672 26.5669 5.69639L25.8162 3.74595C25.6422 3.2936 25.2074 2.99507 24.7226 2.99507H20.6214C20.1366 2.99507 19.7019 3.29346 19.5278 3.74595L18.7769 5.69639C17.7389 5.99272 16.7402 6.40684 15.7949 6.93271L13.8833 6.08369C13.44 5.88667 12.9218 5.98306 12.579 6.32612L9.67905 9.22637C9.33627 9.56914 9.24003 10.0875 9.43676 10.5305L10.2856 12.4418C9.75976 13.3868 9.34565 14.3858 9.04931 15.4241L7.09902 16.1749C6.64667 16.3489 6.34814 16.7836 6.34814 17.2685V21.3696C6.34784 21.8545 6.64653 22.2891 7.09872 22.4633ZM64.2748 21.6762C64.2748 32.2414 55.6794 40.837 45.1142 40.837C38.5577 40.837 32.4861 37.4841 28.9753 32.0067C29.1686 31.9105 29.3605 31.8109 29.5498 31.7056L31.4605 32.5543C31.6869 32.6549 31.9329 32.6779 32.1653 32.6316C35.3733 36.4131 40.1311 38.6407 45.1142 38.6407C54.4683 38.6407 62.0786 31.0306 62.0786 21.6762C62.0786 12.3222 54.4684 4.71187 45.1142 4.71187C41.333 4.71187 37.6811 5.97031 34.714 8.27524L33.1517 6.71299C36.5263 4.01973 40.75 2.51562 45.1142 2.51562C55.6794 2.51562 64.2748 11.111 64.2748 21.6762ZM35.9072 28.1076L35.058 26.196C35.5841 25.2509 35.998 24.2521 36.2944 23.214L38.245 22.4633C38.6973 22.2893 38.9958 21.8545 38.9958 21.3696V17.2684C38.9958 16.7835 38.6973 16.3489 38.2448 16.1747L36.295 15.4243C35.9986 14.3857 35.5842 13.3865 35.0583 12.4411L35.9071 10.5305C35.9144 10.5141 35.9184 10.497 35.9249 10.4804C35.9367 10.4504 35.9481 10.4204 35.9572 10.3896C35.9652 10.3625 35.9714 10.3353 35.9774 10.3079C35.9815 10.2891 35.9881 10.2708 35.9913 10.2518C38.5762 8.18545 41.7871 7.05562 45.1139 7.05562C53.1757 7.05562 59.7345 13.6143 59.7345 21.6762C59.7345 29.7381 53.1758 36.297 45.1139 36.297C40.8207 36.297 36.7214 34.378 33.9562 31.1204L35.6646 29.4121C36.0077 29.069 36.1039 28.5506 35.9072 28.1076ZM8.69159 18.0731L10.4515 17.3957C10.8121 17.2569 11.081 16.9492 11.1704 16.5734C11.4601 15.3562 11.9405 14.1976 12.598 13.1297C12.8008 12.8006 12.828 12.3928 12.6713 12.0396L11.9053 10.3146L13.6674 8.55254L15.3925 9.31865C15.7454 9.47539 16.1534 9.44829 16.4825 9.24556C17.551 8.5877 18.7095 8.10737 19.9261 7.81777C20.3018 7.72842 20.6096 7.45947 20.7483 7.09883L21.4258 5.33882H23.9178L24.5953 7.09883C24.734 7.45933 25.0417 7.72842 25.4175 7.81777C26.6343 8.10752 27.7929 8.58784 28.861 9.24556C29.1903 9.44829 29.5981 9.47539 29.951 9.31865L30.5684 9.04443C30.5687 9.04429 30.569 9.04429 30.5693 9.04414L31.301 8.71909L31.6763 8.55239L33.4384 10.3143L32.6724 12.0386C32.5157 12.3919 32.5429 12.7997 32.7456 13.1289C33.4035 14.1972 33.884 15.356 34.1734 16.5731C34.2628 16.9492 34.5319 17.2569 34.8927 17.3957L36.6521 18.0729V20.5648L34.8919 21.2423C34.5314 21.3811 34.2623 21.6888 34.173 22.0646C33.8832 23.2814 33.4029 24.4399 32.7454 25.508C32.5426 25.8371 32.5154 26.2449 32.6721 26.5981L33.4384 28.3234L31.6763 30.0853L29.9519 29.3193C29.599 29.1626 29.1912 29.1896 28.8618 29.3926C27.7937 30.0503 26.6349 30.5308 25.4175 30.8205C25.0416 30.9099 24.7338 31.1788 24.5951 31.5395L23.9178 33.299H21.4259L20.7484 31.5389C20.6097 31.1784 20.3019 30.9093 19.9262 30.8199C18.7095 30.5302 17.551 30.05 16.4827 29.3921C16.1534 29.1894 15.7455 29.1622 15.3927 29.319L13.6674 30.0852L11.9053 28.3232L12.6713 26.5988C12.828 26.2457 12.8008 25.8378 12.598 25.5087C11.9406 24.441 11.46 23.2821 11.1701 22.0643C11.0808 21.6884 10.8117 21.3808 10.4512 21.242L8.69174 20.5648L8.69159 18.0731ZM22.6719 27.6433C27.262 27.6433 30.9962 23.9091 30.9962 19.3191C30.9962 14.7291 27.262 10.9947 22.6719 10.9947C18.0818 10.9947 14.3476 14.7291 14.3476 19.3191C14.3476 23.9091 18.0818 27.6433 22.6719 27.6433ZM22.6719 13.3385C25.9696 13.3385 28.6524 16.0213 28.6524 19.3191C28.6524 22.6168 25.9696 25.2995 22.6719 25.2995C19.3743 25.2995 16.6914 22.6168 16.6914 19.3191C16.6914 16.0213 19.3743 13.3385 22.6719 13.3385Z" fill="#002FF5"/>
</svg>
