<svg width="75" height="75" viewBox="0 0 75 75" fill="none" xmlns="http://www.w3.org/2000/svg">
<path fill-rule="evenodd" clip-rule="evenodd" d="M45.3059 46.0985C45.4786 46.4994 45.8597 46.7711 46.2951 46.8035C46.3244 46.8057 46.3534 46.8067 46.3825 46.8067C46.7857 46.8067 47.1633 46.5989 47.3781 46.2527L50.2174 41.6773L55.4926 42.7576C55.9207 42.8449 56.3612 42.6877 56.6367 42.3492C56.9123 42.0107 56.9767 41.5469 56.8042 41.146L52.8865 32.0499C53.0063 31.9991 53.1289 31.9468 53.2581 31.8915C55.2784 31.0264 56.4604 28.9788 56.1996 26.7967C56.1512 26.3913 56.1059 26.0307 56.0653 25.707C55.9026 24.4084 55.8207 23.7565 55.9086 23.2585C55.9965 22.7604 56.2962 22.1758 56.8934 21.0113C57.0424 20.7208 57.2082 20.3975 57.3923 20.033C58.3839 18.0716 57.9733 15.7432 56.3707 14.2394C56.0732 13.9601 55.8066 13.713 55.5676 13.4909C54.6079 12.6009 54.1263 12.1541 53.8736 11.7161C53.6206 11.2781 53.4746 10.6377 53.1835 9.3618C53.1109 9.04363 53.03 8.68914 52.9368 8.29158C52.4356 6.15174 50.6244 4.63211 48.4301 4.51009C48.0226 4.48738 47.6596 4.46937 47.3337 4.45311C46.0264 4.38807 45.3703 4.3554 44.8951 4.1824C44.42 4.00941 43.8964 3.61273 42.8532 2.8223C42.5931 2.62513 42.3032 2.40569 41.9766 2.16107C40.217 0.844171 37.8531 0.844025 36.0935 2.16107C35.7668 2.40569 35.4769 2.62513 35.2169 2.8223C34.1737 3.61273 33.6501 4.00941 33.1749 4.1824C32.6997 4.3554 32.0435 4.38807 30.7364 4.45311C30.4103 4.46937 30.0475 4.48738 29.64 4.51009C27.4456 4.63211 25.6344 6.15189 25.1332 8.29158C25.0401 8.68914 24.9592 9.04349 24.8866 9.3618C24.5955 10.6377 24.4494 11.2783 24.1965 11.7161C23.9436 12.1541 23.462 12.6009 22.5025 13.4909C22.2633 13.713 21.9969 13.9601 21.6993 14.2394C20.097 15.7434 19.6862 18.0718 20.6776 20.0332C20.8617 20.3973 21.0276 20.7206 21.1764 21.011C21.7736 22.1757 22.0735 22.7603 22.1614 23.2583C22.2492 23.7562 22.1674 24.4081 22.0046 25.7065C21.964 26.0304 21.9188 26.3912 21.8703 26.7967C21.6096 28.9788 22.7915 31.0264 24.8118 31.8915C25.1871 32.0522 25.522 32.1934 25.8227 32.3201C25.9141 32.3587 26.0009 32.3953 26.0855 32.431L21.2798 42.7529C21.0955 43.1487 21.1467 43.6139 21.4121 43.9605C21.6777 44.307 22.1138 44.4776 22.544 44.4019L27.8486 43.4751L30.554 48.1308C30.7645 48.4928 31.151 48.7138 31.5671 48.7138C31.5847 48.7138 31.6026 48.7134 31.6203 48.7126C32.0565 48.6929 32.4454 48.4323 32.6297 48.0366L37.4123 37.7638C38.1796 37.5332 38.6447 37.4171 39.0353 37.4171C39.541 37.4171 40.1688 37.6107 41.4195 37.9967C41.5642 38.0414 41.7175 38.0887 41.8782 38.1379L45.3059 46.0985ZM49.8873 39.2172C49.4066 39.1189 48.9153 39.3305 48.6564 39.7473L46.5703 43.1092L44.5787 38.4848C45.9457 38.2951 47.1969 37.5291 47.9967 36.306C48.2201 35.9642 48.4172 35.659 48.5943 35.3847C49.3043 34.2852 49.6606 33.7334 50.048 33.4082C50.2219 33.2623 50.4403 33.1305 50.7365 32.9836L53.7632 40.0109L49.8873 39.2172ZM31.4515 45.012L29.4639 41.5913C29.2172 41.1669 28.7324 40.9415 28.249 41.0257L24.3516 41.7066L28.157 33.5333C28.497 33.8711 28.8482 34.4146 29.4747 35.3849C29.6518 35.6591 29.849 35.9644 30.0724 36.306C31.0612 37.8181 32.7388 38.6327 34.4732 38.5217L31.4515 45.012ZM39.0345 35.0721C38.237 35.0721 37.4392 35.3005 35.9592 35.7573C35.6511 35.8523 35.3083 35.9581 34.9225 36.0747C33.8067 36.4116 32.6723 35.9994 32.0338 35.0232C31.8131 34.6859 31.6184 34.3843 31.4436 34.1136C29.763 31.5111 29.5869 31.3635 26.7321 30.1604C26.4352 30.0353 26.1044 29.8958 25.7338 29.737C24.6617 29.2778 24.0583 28.2328 24.1968 27.0747C24.2447 26.6743 24.2893 26.3179 24.3295 25.9982C24.7149 22.9246 24.6749 22.6982 23.2612 19.9413C23.1141 19.6545 22.9505 19.3353 22.7687 18.9757C22.2425 17.9348 22.4521 16.7465 23.3026 15.9483C23.5966 15.6725 23.8597 15.4284 24.096 15.2092C26.3672 13.1023 26.4821 12.9032 27.1711 9.88314C27.2428 9.56878 27.3226 9.21883 27.4146 8.8261C27.6804 7.69056 28.6049 6.91492 29.7695 6.85018C30.172 6.82776 30.5304 6.80989 30.8524 6.79393C33.9465 6.63983 34.1627 6.56116 36.6318 4.69041C36.8888 4.49573 37.1748 4.27894 37.4975 4.03738C38.4314 3.33851 39.6378 3.33851 40.5717 4.03738C40.8944 4.27894 41.1804 4.49573 41.4374 4.69041C43.9065 6.56116 44.1227 6.63983 47.2168 6.79393C47.5386 6.80989 47.8972 6.82776 48.2997 6.85018C49.4643 6.91492 50.3886 7.69056 50.6546 8.8261C50.7466 9.21868 50.8264 9.56863 50.8981 9.88299C51.5871 12.9031 51.702 13.1023 53.9732 15.209C54.2095 15.4283 54.4726 15.6723 54.7666 15.9482C55.6171 16.7464 55.8264 17.9346 55.3004 18.9756C55.1186 19.3353 54.9548 19.6548 54.8076 19.9416C53.3942 22.6982 53.3542 22.9246 53.7397 25.9985C53.7797 26.3182 53.8245 26.6743 53.8723 27.0745C54.0107 28.2326 53.4074 29.2778 52.3352 29.7369C51.9646 29.8955 51.6339 30.035 51.3369 30.1602C48.4823 31.3633 48.3062 31.5111 46.6256 34.1134C46.4508 34.3843 46.2561 34.6857 46.0354 35.0232C45.3971 35.9992 44.2637 36.4122 43.1467 36.0747C42.7609 35.9581 42.4179 35.8522 42.11 35.7573C40.6297 35.3005 39.8319 35.0721 39.0345 35.0721ZM50.6649 19.8521C50.6649 13.439 45.4475 8.22171 39.0345 8.22171C32.6215 8.22171 27.4042 13.439 27.4042 19.8521C27.4042 26.2652 32.6215 31.4827 39.0345 31.4827C45.4474 31.4827 50.6649 26.2654 50.6649 19.8521ZM39.0343 29.1389C33.9137 29.1389 29.7478 24.9729 29.7478 19.8521C29.7478 14.7315 33.9137 10.5655 39.0343 10.5655C44.155 10.5655 48.321 14.7315 48.321 19.8521C48.3211 24.9729 44.155 29.1389 39.0343 29.1389ZM45.4705 17.089L37.4682 24.3513C37.2444 24.5544 36.9624 24.6554 36.6809 24.6554C36.3803 24.6554 36.0803 24.5404 35.8521 24.3121L32.5574 21.0174C32.0997 20.5598 32.0997 19.8179 32.5574 19.3602C33.0151 18.9026 33.7569 18.9026 34.2147 19.3602L36.72 21.8656L43.8955 15.3536C44.3747 14.9188 45.1159 14.9546 45.5508 15.4339C45.9857 15.9129 45.9498 16.6541 45.4705 17.089ZM67.7178 55.4849C69.2625 53.9405 70.047 51.9921 69.9865 49.8504L69.4157 29.7039C69.3595 27.7145 67.3817 25.932 65.249 25.932C65.2285 25.932 65.2081 25.9321 65.1878 25.9324C64.1473 25.9491 60.7549 26.5096 60.7795 33.0212L60.8212 43.9649C60.8222 44.2151 60.8064 44.4581 60.7739 44.695C60.6913 44.5963 60.6028 44.4997 60.5085 44.4054C59.0621 42.9592 56.6934 42.9408 55.1158 44.3637C55.0765 44.399 55.0396 44.4369 55.0056 44.4772C53.2404 46.5643 51.0714 48.3924 49.3283 49.8612C48.7171 50.3764 48.1399 50.8629 47.6659 51.29C45.6782 53.0815 45.413 55.5499 45.4156 57.7282L45.425 65.522L44.4144 65.5134C43.7302 65.5071 43.0853 65.7691 42.5961 66.2499C42.1068 66.7308 41.8341 67.3721 41.8282 68.0555L41.802 71.1041C41.7961 71.7874 42.0577 72.4333 42.5387 72.9225C43.0194 73.4118 43.6607 73.6844 44.3441 73.6903L60.1814 73.8263C60.1889 73.8263 60.1963 73.8265 60.2038 73.8265C60.8788 73.8265 61.5159 73.5653 61.9997 73.0897C62.4889 72.6088 62.7616 71.9676 62.7674 71.2843L62.7936 68.2356C62.7995 67.5523 62.5379 66.9064 62.057 66.4172C61.5762 65.9279 60.9349 65.6553 60.2515 65.6494L58.9486 65.6383V64.2542L67.7178 55.4849ZM60.4499 68.2156L60.4237 71.2642C60.4231 71.3377 60.3869 71.3887 60.3566 71.4184C60.3264 71.4483 60.2792 71.4832 60.2013 71.4829L44.364 71.3468C44.2906 71.3462 44.2396 71.31 44.2099 71.2797C44.1802 71.2494 44.1449 71.198 44.1456 71.1244L44.1718 68.0758C44.1724 68.0023 44.2086 67.9513 44.2389 67.9216C44.2688 67.8921 44.3198 67.8571 44.392 67.8571H44.394H44.3942L60.2315 67.9932C60.351 67.9944 60.4511 68.096 60.4499 68.2156ZM47.7687 65.5424L47.7594 57.7255C47.7564 55.3386 48.184 53.9786 49.2352 53.0311C49.6801 52.6301 50.2169 52.1776 50.8386 51.6537C52.6304 50.1435 54.8562 48.2678 56.7372 46.0592C57.3951 45.5074 58.2932 45.5049 58.8512 46.0629C59.445 46.6566 59.4457 47.3629 58.8561 48.1624C57.9243 49.2098 56.9447 50.1586 55.908 51.1617C55.4104 51.6433 54.8956 52.1414 54.3765 52.6607C53.9189 53.1183 53.9189 53.8602 54.3766 54.3179C54.6054 54.5467 54.9052 54.6611 55.2052 54.6611C55.5052 54.6611 55.8052 54.5467 56.0338 54.3177C56.5393 53.8122 57.0469 53.3209 57.5379 52.8458C58.621 51.7977 59.6439 50.8078 60.646 49.6772C60.6513 49.6712 61.4309 48.7176 61.4309 48.7176C62.6044 47.273 63.1716 45.7154 63.165 43.9563L63.1232 33.0124C63.1122 30.1119 63.9178 28.297 65.2253 28.276C65.2333 28.2759 65.2411 28.2759 65.249 28.2759C66.1193 28.2759 67.0522 29.0368 67.0729 29.7704L67.6436 49.9169C67.6861 51.4192 67.1534 52.7351 66.0605 53.8277L56.948 62.9402C56.7283 63.1599 56.6048 63.458 56.6048 63.7687V65.6182L47.7687 65.5424ZM45.2992 69.2676C45.4924 68.7814 46.0433 68.544 46.5295 68.7373C47.0157 68.9305 47.2531 69.4815 47.0599 69.9677C46.8665 70.4538 46.3158 70.6913 45.8296 70.4979C45.3432 70.3046 45.1058 69.7538 45.2992 69.2676ZM32.404 66.2502C31.9147 65.7691 31.2684 65.5084 30.5855 65.5136L29.5751 65.5223L29.5845 57.7284C29.5871 55.5501 29.3218 53.0817 27.3342 51.2903C26.8604 50.863 26.283 50.3767 25.6719 49.8617C23.929 48.3927 21.7598 46.5646 19.9946 44.4775C19.9606 44.4372 19.9238 44.3993 19.8846 44.3639C18.3062 42.9411 15.9374 42.9596 14.4917 44.4057C14.3972 44.5 14.3089 44.5966 14.2263 44.6953C14.1936 44.4584 14.178 44.2156 14.179 43.9654L14.2207 33.0214C14.2453 26.5097 10.8529 25.9494 9.81243 25.9326C9.79192 25.9323 9.77186 25.9321 9.7512 25.9321C7.61854 25.9321 5.64056 27.7148 5.58445 29.7041L5.01375 49.8507C4.95325 51.9924 5.73768 53.9407 7.28221 55.485L16.0515 64.2545V65.6386L14.7485 65.6497C14.0652 65.6556 13.4239 65.9282 12.9431 66.4175C12.4622 66.9067 12.2006 67.5526 12.2064 68.2359L12.2326 71.2845C12.2385 71.9679 12.5111 72.6091 13.0004 73.09C13.4842 73.5656 14.1211 73.8268 14.7963 73.8268C14.8037 73.8268 14.8114 73.8268 14.8187 73.8266L30.656 73.6906C31.3393 73.6847 31.9806 73.4121 32.4614 72.9228C32.9423 72.4336 33.2039 71.7877 33.1981 71.1044L33.1719 68.0557C33.1661 67.3724 32.8932 66.7311 32.404 66.2502ZM18.3952 63.7687C18.3952 63.4579 18.2718 63.1599 18.052 62.9402L8.93939 53.8276C7.84661 52.7349 7.31399 51.4192 7.35648 49.9169L7.92718 29.7703C7.94813 29.03 8.90394 28.2633 9.77479 28.276C11.0823 28.297 11.8878 30.1119 11.8768 33.0123L11.8351 43.9563C11.8285 45.7154 12.3957 47.2728 13.5712 48.7201L14.3236 49.6412C14.3287 49.6475 14.3489 49.6712 14.3542 49.6772C15.3563 50.8078 16.3792 51.7977 17.4623 52.8458C17.9533 53.321 18.4607 53.8122 18.9664 54.3177C19.1952 54.5465 19.495 54.6611 19.795 54.6611C20.0949 54.6611 20.3949 54.5467 20.6236 54.3179C21.0813 53.8602 21.0813 53.1183 20.6237 52.6607C20.1046 52.1415 19.5898 51.6433 19.0922 51.1617C18.0555 50.1584 17.0759 49.2098 16.1441 48.1624C15.5546 47.3631 15.5552 46.6567 16.1491 46.063C16.7073 45.5049 17.6051 45.5074 18.2631 46.0592C20.144 48.2679 22.3697 50.1436 24.1617 51.6539C24.7833 52.1779 25.3201 52.6302 25.7652 53.0314C26.8162 53.9786 27.2438 55.3387 27.2409 57.7257L27.2315 65.5425L18.3954 65.6184L18.3952 63.7687ZM30.79 71.2799C30.7603 71.3102 30.7093 71.3464 30.6359 71.347L14.7986 71.483C14.7238 71.4832 14.6735 71.4485 14.6433 71.4186C14.613 71.3888 14.5768 71.338 14.5763 71.2643L14.55 68.2157C14.5493 68.1422 14.5846 68.0906 14.6143 68.0604C14.6441 68.0303 14.695 67.9939 14.7684 67.9933L30.6056 67.8573H30.6078C30.6802 67.8573 30.7311 67.8923 30.761 67.9217C30.7913 67.9514 30.8275 68.0024 30.8281 68.076L30.8543 71.1246C30.8551 71.1981 30.8198 71.2495 30.79 71.2799ZM29.7009 69.2676C29.8943 69.7538 29.6568 70.3046 29.1706 70.4979C28.6845 70.6913 28.1335 70.4538 27.9403 69.9677C27.747 69.4815 27.9844 68.9307 28.4706 68.7373C28.9568 68.544 29.5075 68.7814 29.7009 69.2676Z" fill="#002FF5"/>
</svg>
