<svg width="80" height="88" viewBox="0 0 80 88" fill="none" xmlns="http://www.w3.org/2000/svg">
<path d="M5.33313 72.0063H7.99969V74.6549C7.97861 76.0609 8.52614 77.416 9.5183 78.4132C10.5239 79.4341 11.8993 80.0062 13.3328 79.9999H57.3311C60.2765 79.9999 62.6643 77.614 62.6643 74.6709V58.6836C62.6643 57.9478 62.0673 57.3513 61.331 57.3513C60.5946 57.3513 59.9977 57.9478 59.9977 58.6836V74.6709C59.9977 76.1424 58.8038 77.3354 57.3311 77.3354H13.3328C12.6119 77.3389 11.9202 77.0505 11.4156 76.536C10.9237 76.0411 10.6534 75.3682 10.6663 74.6709V72.0063H49.3314C52.2769 72.0063 54.6646 69.6204 54.6646 66.6772V61.6945C54.6646 60.9587 54.0676 60.3623 53.3313 60.3623C52.5949 60.3623 51.998 60.9587 51.998 61.6945V66.6772C51.998 68.1488 50.8041 69.3418 49.3314 69.3418H5.33313C3.86043 69.3418 2.66656 68.1488 2.66656 66.6772V5.3928C2.66656 3.92122 3.86043 2.72826 5.33313 2.72826H49.3314C50.8041 2.72826 51.998 3.92122 51.998 5.3928V16.051C51.998 16.7868 52.5949 17.3832 53.3313 17.3832C54.0676 17.3832 54.6646 16.7868 54.6646 16.051V5.3928C54.6646 2.44963 52.2769 0.0637207 49.3314 0.0637207H5.33313C2.38772 0.0637207 0 2.44963 0 5.3928V66.6772C0 69.6204 2.38772 72.0063 5.33313 72.0063Z" fill="#030734"/>
<path d="M6.66629 8.05737C5.92994 8.05737 5.33301 8.65385 5.33301 9.38964V21.3801C5.33301 22.1159 5.92994 22.7123 6.66629 22.7123H11.9994C12.7358 22.7123 13.3327 22.1159 13.3327 21.3801C13.3327 20.6443 12.7358 20.0478 11.9994 20.0478H7.99957V9.38964C7.99957 8.65385 7.40264 8.05737 6.66629 8.05737Z" fill="#030734"/>
<path d="M25.3323 15.3849C25.3323 11.2761 22.9897 8.05737 19.9991 8.05737C17.0086 8.05737 14.666 11.2761 14.666 15.3849C14.666 19.4936 17.0086 22.7123 19.9991 22.7123C22.9897 22.7123 25.3323 19.4936 25.3323 15.3849ZM17.3326 15.3849C17.3326 12.6377 18.7379 10.7219 19.9991 10.7219C21.2604 10.7219 22.6657 12.6377 22.6657 15.3849C22.6657 18.132 21.2604 20.0478 19.9991 20.0478C18.7379 20.0478 17.3326 18.1333 17.3326 15.3849Z" fill="#030734"/>
<path d="M33.2638 8.96864C33.084 8.42191 32.5731 8.05237 31.9972 8.05237C31.4212 8.05237 30.9104 8.42191 30.7306 8.96864L26.7307 20.9591C26.498 21.6581 26.8765 22.4132 27.576 22.6457C28.2755 22.8782 29.0313 22.5001 29.2639 21.8011L29.8493 20.0478H34.1478L34.7331 21.8011C34.8836 22.2532 35.2641 22.5908 35.7312 22.6867C36.1984 22.7825 36.6812 22.622 36.9979 22.2657C37.3145 21.9093 37.4168 21.4112 37.2663 20.9591L33.2638 8.96864ZM30.7372 17.3833L31.9985 13.6023L33.2598 17.3833H30.7372Z" fill="#030734"/>
<path d="M42.6656 21.3801V14.5309L46.8334 22.0275C47.0687 22.4502 47.5147 22.7123 47.9987 22.7123C48.1116 22.7125 48.2241 22.6982 48.3334 22.6697C48.9214 22.5173 49.332 21.9871 49.332 21.3801V9.38962C49.332 8.65383 48.7351 8.05735 47.9987 8.05735C47.2624 8.05735 46.6654 8.65383 46.6654 9.38962V16.2388L42.4976 8.74214C42.2024 8.2116 41.5856 7.94753 40.9976 8.09991C40.4096 8.2523 39.999 8.7826 39.999 9.38962V21.3801C39.999 22.1158 40.596 22.7123 41.3323 22.7123C42.0687 22.7123 42.6656 22.1158 42.6656 21.3801Z" fill="#030734"/>
<path d="M6.66629 32.0383H23.999C24.7353 32.0383 25.3322 31.4418 25.3322 30.706C25.3322 29.9703 24.7353 29.3738 23.999 29.3738H6.66629C5.92994 29.3738 5.33301 29.9703 5.33301 30.706C5.33301 31.4418 5.92994 32.0383 6.66629 32.0383Z" fill="#030734"/>
<path d="M6.66629 38.6995H23.999C24.7353 38.6995 25.3322 38.103 25.3322 37.3672C25.3322 36.6314 24.7353 36.0349 23.999 36.0349H6.66629C5.92994 36.0349 5.33301 36.6314 5.33301 37.3672C5.33301 38.103 5.92994 38.6995 6.66629 38.6995Z" fill="#030734"/>
<path d="M6.66629 45.3608H23.999C24.7353 45.3608 25.3322 44.7644 25.3322 44.0286C25.3322 43.2928 24.7353 42.6963 23.999 42.6963H6.66629C5.92994 42.6963 5.33301 43.2928 5.33301 44.0286C5.33301 44.7644 5.92994 45.3608 6.66629 45.3608Z" fill="#030734"/>
<path d="M29.332 30.706C29.332 31.4418 29.929 32.0383 30.6653 32.0383H43.1182C43.8545 32.0383 44.4515 31.4418 44.4515 30.706C44.4515 29.9703 43.8545 29.3738 43.1182 29.3738H30.6653C29.929 29.3738 29.332 29.9703 29.332 30.706Z" fill="#030734"/>
<path d="M30.6653 38.6995H35.8384C36.5748 38.6995 37.1717 38.103 37.1717 37.3672C37.1717 36.6314 36.5748 36.0349 35.8384 36.0349H30.6653C29.929 36.0349 29.332 36.6314 29.332 37.3672C29.332 38.103 29.929 38.6995 30.6653 38.6995Z" fill="#030734"/>
<path d="M30.6653 45.3608H36.0918C36.8281 45.3608 37.4251 44.7644 37.4251 44.0286C37.4251 43.2928 36.8281 42.6963 36.0918 42.6963H30.6653C29.929 42.6963 29.332 43.2928 29.332 44.0286C29.332 44.7644 29.929 45.3608 30.6653 45.3608Z" fill="#030734"/>
<path d="M6.66629 52.0222H23.999C24.7353 52.0222 25.3322 51.4257 25.3322 50.6899C25.3322 49.9541 24.7353 49.3577 23.999 49.3577H6.66629C5.92994 49.3577 5.33301 49.9541 5.33301 50.6899C5.33301 51.4257 5.92994 52.0222 6.66629 52.0222Z" fill="#030734"/>
<path d="M39.825 50.6899C39.825 49.9541 39.228 49.3577 38.4917 49.3577H30.6653C29.929 49.3577 29.332 49.9541 29.332 50.6899C29.332 51.4257 29.929 52.0222 30.6653 52.0222H38.4917C39.228 52.0222 39.825 51.4257 39.825 50.6899Z" fill="#030734"/>
<path d="M7.9993 62.6804H12.1765C13.3909 62.6844 14.5021 61.9983 15.0417 60.9111C15.1329 60.7042 15.3512 60.5837 15.575 60.6167C15.7987 60.6289 15.988 60.7857 16.0417 61.003L16.2776 61.8251C16.6119 63.0299 17.6252 63.9249 18.8629 64.1086C19.0309 64.1351 19.2008 64.1484 19.3709 64.1485C20.4388 64.1504 21.4355 63.6138 22.0214 62.7217L23.556 60.4222C23.6545 60.2714 23.8225 60.1805 24.0027 60.1805C24.1829 60.1805 24.3509 60.2714 24.4493 60.4222L25.004 61.2562C25.5982 62.147 26.5991 62.6817 27.6705 62.6804H31.9984C32.7347 62.6804 33.3317 62.0839 33.3317 61.3481C33.3317 60.6123 32.7347 60.0158 31.9984 60.0158H27.6652C27.4861 60.0161 27.3188 59.9265 27.2199 59.7773L26.6652 58.95C26.0724 58.0569 25.0712 57.52 23.9987 57.52C22.9262 57.52 21.925 58.0569 21.3321 58.95L19.7988 61.2442C19.6844 61.4209 19.4767 61.5137 19.2686 61.4812C19.0605 61.4486 18.8911 61.2968 18.8362 61.0936L18.6016 60.2716C18.2413 59.0005 17.1358 58.0816 15.8194 57.9592C14.5029 57.8367 13.2467 58.5359 12.6578 59.7187C12.5675 59.9016 12.3806 60.017 12.1765 60.0158H7.9993C7.26295 60.0158 6.66602 60.6123 6.66602 61.3481C6.66602 62.0839 7.26295 62.6804 7.9993 62.6804Z" fill="#030734"/>
<path d="M37.3323 62.6804H44.6894H44.7107C45.2847 62.6795 45.8369 62.4609 46.256 62.0689C49.2918 59.2712 55.5236 54.5483 63.1513 54.3924C64.3636 54.3874 65.3597 53.4348 65.4179 52.2248C65.4419 51.7345 66.0565 40.1584 69.4177 33.8634L79.844 14.3057C80.0679 13.8854 80.0504 13.3777 79.7981 12.9738C79.5457 12.57 79.097 12.3313 78.6208 12.3477C78.1446 12.3641 77.7133 12.6331 77.4894 13.0534L67.6911 31.4387L62.6327 28.7475L55.9263 25.1757L68.2645 2.02217C68.5201 1.60022 68.5215 1.07169 68.2681 0.648403C68.0147 0.225115 67.548 -0.0236606 67.0551 0.00178032C66.5621 0.0272212 66.1236 0.322715 65.9152 0.769835L52.9437 25.0918C49.5838 31.3907 40.3109 38.3505 39.9175 38.6436C38.9475 39.3683 38.7134 40.7242 39.3842 41.7318C43.6521 48.3825 42.9321 56.7239 42.4214 60.0159H37.3323C36.596 60.0159 35.999 60.6124 35.999 61.3482C35.999 62.084 36.596 62.6804 37.3323 62.6804ZM41.7948 40.5647C43.3841 39.3484 50.9438 33.4011 54.625 27.5085L62.398 31.6385L66.4805 33.8141C63.634 40.1531 62.9047 49.7441 62.7807 51.7425C57.3322 52.0996 52.1124 54.0647 47.7826 57.3887L52.0944 49.2125C54.7196 49.8657 57.421 48.4652 58.3983 45.9445C59.3755 43.4238 58.3233 40.5703 55.9429 39.2857C53.5626 38.0012 50.5976 38.687 49.0241 40.886C47.4507 43.085 47.7602 46.1102 49.7465 47.9455L45.4653 56.0484C45.7949 50.6386 44.5179 45.252 41.7948 40.5647ZM52.0784 46.3801C51.1267 45.8733 50.5742 44.8437 50.6784 43.7712C50.7825 42.6987 51.5229 41.7944 52.5544 41.48C52.8065 41.4039 53.0683 41.3648 53.3317 41.3641C54.4414 41.3649 55.4347 42.0523 55.8256 43.0902C56.2164 44.128 55.9231 45.2993 55.0892 46.0309C54.2553 46.7626 53.0551 46.9016 52.0757 46.3801H52.0784Z" fill="#030734"/>
<circle cx="58.5" cy="66.5" r="21.5" fill="#00A9A4" fill-opacity="0.23"/>
</svg>
