<svg width="55" height="55" viewBox="0 0 55 55" fill="none" xmlns="http://www.w3.org/2000/svg">
<path d="M3.78619 13.0982C3.67694 11.859 3.74909 10.6112 4.00058 9.39287C4.33693 7.87568 4.99761 6.61617 5.96371 5.6504C7.31736 4.29572 9.22106 3.55328 11.6147 3.44333C12.7742 3.3997 13.9351 3.47907 15.0775 3.67936L15.3819 1.94882C14.1145 1.72654 12.8268 1.63893 11.5412 1.68806C8.68888 1.81964 6.3942 2.73456 4.72172 4.40841C3.51374 5.61605 2.69331 7.1669 2.28412 9.01975C2.28343 9.02319 2.2824 9.02697 2.28172 9.03041C1.99381 10.4184 1.9117 11.8408 2.03641 13.2525L3.78619 13.0982Z" fill="white"/>
<path d="M7.63887 24.577C7.10977 23.6115 6.62466 22.6413 6.19658 21.6924L4.59521 22.4149C5.04185 23.4047 5.54758 24.4165 6.09866 25.4214L7.63887 24.577Z" fill="white"/>
<path d="M2.54712 16.4924C2.76734 17.4334 3.03498 18.3631 3.349 19.2774L5.01152 18.7095C4.71674 17.8512 4.4649 16.9789 4.25842 16.0959L2.54712 16.4924Z" fill="white"/>
<path d="M14.4987 34.2514C14.4221 34.1638 14.3458 34.0769 14.2699 33.9893L12.9441 35.1412C13.0217 35.2309 13.0997 35.3206 13.1787 35.4102C13.6247 35.918 14.0889 36.43 14.5585 36.9322C14.7691 37.1569 14.9818 37.3813 15.1969 37.6046L16.4629 36.3867C16.2533 36.1692 16.0461 35.951 15.8417 35.7322C15.3841 35.2433 14.9327 34.7448 14.4987 34.2514Z" fill="white"/>
<path d="M10.8216 32.56L12.2082 31.4819C12.0808 31.3177 11.9547 31.1534 11.8296 30.9885C11.2947 30.2849 10.7769 29.5706 10.2911 28.866L8.84473 29.863C9.34633 30.5903 9.87989 31.3266 10.431 32.0512C10.5595 32.2212 10.69 32.3906 10.8216 32.56Z" fill="white"/>
<path d="M16.6912 39.1088C18.3509 40.7284 20.0973 42.2566 21.9226 43.6861C24.3984 45.6345 27.0407 47.3613 29.8195 48.8455C31.4425 49.7095 33.1246 50.4578 34.8527 51.0852L33.2483 51.5445L33.7313 53.2335L38.2231 51.9482C38.6893 51.8149 38.959 51.3284 38.8257 50.8619L37.6552 46.7707L35.9659 47.2537L36.7101 49.8528C34.6126 49.189 32.5818 48.3325 30.6434 47.2939C27.9563 45.8585 25.4012 44.1888 23.0076 42.3047C21.2317 40.9139 19.5325 39.4273 17.9177 37.8521L16.6912 39.1088Z" fill="white"/>
<path d="M52.6794 39.3961C52.3207 37.1553 51.5796 34.7449 50.4764 32.2317L48.8679 32.9377C49.9109 35.3142 50.6094 37.581 50.9444 39.6733C51.5731 43.6017 50.8825 46.7003 48.9479 48.6356C47.9897 49.5938 46.7436 50.2507 45.2439 50.5888C44.0315 50.8616 42.6569 50.9265 41.1572 50.7829C40.7875 50.7475 40.4062 50.6984 40.0234 50.6379L39.7493 52.3729C40.1664 52.4389 40.5838 52.4921 40.9895 52.5313C41.5609 52.5859 42.1175 52.6134 42.6593 52.6134C43.658 52.6196 44.6544 52.5148 45.6301 52.3021C47.4592 51.8895 48.9933 51.0739 50.1899 49.8772C52.5395 47.5276 53.4002 43.9037 52.6794 39.3961Z" fill="white"/>
<path d="M48.4209 28.1638L46.8948 29.0337C47.3177 29.7758 47.7166 30.5234 48.0804 31.2556L49.654 30.4746C49.2757 29.7119 48.861 28.9348 48.4209 28.1638Z" fill="white"/>
<path d="M44.3433 22.0576L42.9478 23.1247C43.6026 23.9812 44.2416 24.8659 44.848 25.7554L46.2999 24.7663C45.6753 23.8503 45.0171 22.9389 44.3433 22.0576Z" fill="white"/>
<path d="M40.0006 16.9807L38.7305 18.1935C39.4739 18.9724 40.2061 19.7828 40.9063 20.6016L42.2414 19.4599C41.5202 18.6171 40.7664 17.7829 40.0006 16.9807Z" fill="white"/>
<path d="M18.233 7.85189L19.9509 7.48462L19.3836 4.83126C20.9957 5.40296 22.5644 6.09181 24.0764 6.89128C26.7284 8.29166 29.2529 9.92085 31.6204 11.7617C32.7367 12.623 33.8612 13.5578 34.9623 14.5394C35.5728 15.0846 36.1878 15.6557 36.7897 16.237C37.0505 16.4888 37.3168 16.7509 37.582 17.0155L38.824 15.7735C38.5519 15.5017 38.2784 15.2324 38.0097 14.9733C37.392 14.3762 36.7602 13.7894 36.1325 13.2284C35.0001 12.2193 33.8433 11.2577 32.6968 10.373C31.5802 9.50479 30.4241 8.68229 29.2381 7.90377C29.9119 7.52379 30.5887 7.16408 31.2514 6.8346L30.4698 5.26141C29.6817 5.65239 28.8771 6.08322 28.0786 6.54085L28.6366 7.51451C27.4183 6.7384 26.1722 6.01313 24.8975 5.33802C23.762 4.7385 22.597 4.19876 21.4059 3.71983L22.9536 3.38932L22.5874 1.67114L18.019 2.64756C17.5445 2.74891 17.2422 3.21547 17.3435 3.68994L18.233 7.85189Z" fill="white"/>
<path d="M1.94424 39.5334C1.72195 40.8009 1.63434 42.0885 1.68382 43.3742C1.81471 46.2261 2.72963 48.5204 4.40383 50.194C5.61146 51.4019 7.16335 52.2217 9.01517 52.6305C9.01861 52.6309 9.02239 52.6319 9.02651 52.6326C9.99468 52.8336 10.9817 52.9349 11.9712 52.9349C12.3969 52.9349 12.8226 52.9164 13.2479 52.8789L13.0936 51.1285C11.8544 51.2384 10.6062 51.1659 9.38828 50.9137C7.87075 50.5784 6.61158 49.9184 5.64582 48.952C4.29148 47.5976 3.54869 45.6936 3.43875 43.3006C3.39512 42.1408 3.47379 40.9802 3.67478 39.8372L1.94424 39.5334Z" fill="white"/>
<path d="M22.4105 50.3197C23.401 49.8734 24.4125 49.367 25.4167 48.8166L24.5729 47.2764C23.6078 47.8051 22.6373 48.2906 21.688 48.7183L22.4105 50.3197Z" fill="white"/>
<path d="M16.488 52.3681C17.4294 52.1478 18.3591 51.8802 19.273 51.5662L18.7051 49.9033C17.8472 50.1984 16.9749 50.4496 16.0916 50.6568L16.488 52.3681Z" fill="white"/>
<path d="M33.9851 40.6444L35.1364 41.9713C35.2264 41.8936 35.3161 41.8153 35.4061 41.7363C35.9142 41.2897 36.4265 40.8248 36.9281 40.3565C37.1528 40.1459 37.3771 39.9333 37.6008 39.7178L36.3825 38.4521C36.165 38.6621 35.9469 38.8686 35.7277 39.0733C35.2395 39.5299 34.7413 39.9817 34.2466 40.416C34.1596 40.4926 34.0727 40.5689 33.9851 40.6444Z" fill="white"/>
<path d="M28.8621 44.6232L29.8591 46.0699C30.5864 45.569 31.3227 45.0351 32.0476 44.484C32.2173 44.3552 32.3867 44.225 32.5561 44.0934L31.478 42.7061C31.3141 42.8335 31.1495 42.9599 30.985 43.0854C30.281 43.6203 29.5674 44.1377 28.8621 44.6232Z" fill="white"/>
<path d="M39.6692 3.97029C43.5972 3.34225 46.6961 4.03248 48.6314 5.96744C49.589 6.92496 50.2462 8.17141 50.5846 9.67108C50.8571 10.8839 50.9227 12.2588 50.7784 13.7581C50.7433 14.1271 50.6949 14.5081 50.6337 14.8916L52.3688 15.1661C52.4347 14.7476 52.488 14.3302 52.5271 13.9258C52.6886 12.2413 52.6117 10.6801 52.298 9.28526C51.8857 7.45611 51.0701 5.9214 49.8734 4.72476C47.5234 2.37511 43.8985 1.51414 39.3919 2.23563C37.1522 2.59396 34.7411 3.33538 32.2275 4.43823L32.9336 6.04715C35.31 5.00408 37.5762 4.30527 39.6692 3.97029Z" fill="white"/>
<path d="M20.5967 14.0086L19.4547 12.6738C18.6119 13.395 17.7781 14.1488 16.9758 14.9135L18.189 16.1844C18.9682 15.4406 19.7786 14.7084 20.5967 14.0086Z" fill="white"/>
<path d="M25.7516 10.0671L24.7618 8.61523C23.8459 9.24018 22.9344 9.89845 22.0535 10.5718L23.1206 11.9674C23.9761 11.3129 24.8614 10.6735 25.7516 10.0671Z" fill="white"/>
<path d="M51.944 16.6924C51.8107 16.2259 51.3242 15.9562 50.858 16.0895L46.7665 17.2604L47.2495 18.9493L49.849 18.2055C49.1848 20.3026 48.328 22.3338 47.2894 24.2722C45.854 26.9592 44.1842 29.5143 42.3001 31.908C40.909 33.6838 39.4228 35.3828 37.8472 36.9975L39.1043 38.2244C40.7238 36.5646 42.2517 34.8183 43.6816 32.9929C45.63 30.5175 47.3567 27.8748 48.8409 25.0961C49.7047 23.4727 50.4533 21.7913 51.0806 20.0628L51.54 21.6673L53.229 21.1842L51.944 16.6924Z" fill="white"/>
<path d="M3.50208 37.5912C3.56358 37.5912 3.62542 37.5847 3.68623 37.5713L7.8475 36.6821L7.48023 34.9639L4.82721 35.5315C5.39891 33.9191 6.08741 32.3508 6.88723 30.8387C8.28692 28.1864 9.9168 25.6619 11.7573 23.2944C12.6183 22.1785 13.5531 21.054 14.535 19.9525C15.0803 19.3416 15.6513 18.727 16.2326 18.1254C16.4872 17.8619 16.749 17.5953 17.0114 17.3328L15.7694 16.0908C15.5001 16.3602 15.2307 16.6337 14.9693 16.9047C14.3718 17.5231 13.785 18.1546 13.224 18.783C12.2139 19.9151 11.2529 21.0722 10.3686 22.2183C8.46592 24.6666 6.78107 27.2756 5.33397 30.0176C4.73411 31.1524 4.19402 32.3178 3.71578 33.5093L3.38492 31.9605L1.66675 32.3274L2.64316 36.8958C2.72974 37.3012 3.08774 37.5905 3.50208 37.5912Z" fill="white"/>
<path d="M19.8723 20.4928V34.4272C19.8723 35.1706 20.2894 36.2175 22.4044 36.9826C23.7738 37.478 25.5642 37.7512 27.4655 37.7512H27.5335C28.6319 37.7512 29.7278 37.6508 30.808 37.4519C33.5462 36.9266 35.1339 35.8241 35.1339 34.4272V20.4928C35.1339 19.749 34.669 18.7028 32.5537 17.937C31.1839 17.4416 29.3695 17.1685 27.4658 17.1685C25.5614 17.1685 23.7793 17.4416 22.4095 17.937C20.2946 18.7025 19.8723 19.749 19.8723 20.4928ZM30.4792 35.7255C29.4853 35.9096 28.4766 35.9997 27.4662 35.9945C25.7597 35.9945 24.1899 35.7585 23.0074 35.3311C21.8506 34.9123 21.629 34.4924 21.629 34.4272V31.9755C21.8787 32.1077 22.1381 32.2218 22.4044 32.3163C23.7738 32.812 25.5642 33.0848 27.4689 33.0848C29.374 33.0848 31.1914 32.812 32.5609 32.3163C32.8612 32.2077 33.0477 32.0933 33.3772 31.9748V34.4268C33.3772 34.5917 32.666 35.306 30.4792 35.7255ZM33.3772 29.7605C33.3772 29.8265 33.113 30.246 31.9566 30.6648C30.7737 31.0928 29.1723 31.3282 27.4658 31.3282C25.7597 31.3282 24.1899 31.0928 23.0074 30.6648C21.8506 30.246 21.629 29.8261 21.629 29.7605V27.3411C21.8787 27.4737 22.1381 27.5878 22.4044 27.6823C23.7738 28.178 25.5642 28.4508 27.4689 28.4508C29.374 28.4508 31.1914 28.178 32.5609 27.6823C32.8612 27.5737 33.0477 27.4593 33.3772 27.3411V29.7605ZM31.9566 26.0304C30.7737 26.4585 29.1723 26.6938 27.4658 26.6938C25.7597 26.6938 24.1899 26.4585 23.0074 26.0304C21.8506 25.6119 21.629 25.1921 21.629 25.1268V22.7067C21.8791 22.839 22.1381 22.9531 22.4044 23.0479C23.7742 23.5437 25.5645 23.8165 27.4689 23.8165C29.3733 23.8165 31.1911 23.5433 32.5609 23.0479C32.8612 22.939 33.0477 22.8246 33.3772 22.7067V25.1268C33.3772 25.1921 33.113 25.6119 31.9566 26.0304ZM22.9754 19.5889C24.1583 19.1605 25.7494 18.9251 27.4552 18.9251C29.1606 18.9251 30.752 19.1605 31.9349 19.5889C33.091 20.0077 33.3346 20.4272 33.3346 20.4928C33.3346 20.5577 33.091 20.9772 31.9349 21.396C30.752 21.8245 29.1606 22.0598 27.4552 22.0598C25.7494 22.0598 24.1583 21.8238 22.9754 21.396C21.8186 20.9772 21.5754 20.5577 21.5754 20.4928C21.5754 20.4272 21.819 20.0077 22.9757 19.5889H22.9754Z" fill="white"/>
</svg>
