<svg width="55" height="55" viewBox="0 0 55 55" fill="none" xmlns="http://www.w3.org/2000/svg">
<path d="M48.125 29.9922V28.2734C48.5993 28.2734 48.9844 27.8887 48.9844 27.4141V22.2578C48.9844 21.7831 48.5993 21.3984 48.125 21.3984H43.4844L43.3179 20.7529C42.9379 19.2765 42.3477 17.8622 41.5646 16.554L41.2208 15.979L44.5156 12.6785C44.8473 12.3461 44.8473 11.8077 44.5156 11.4753L40.866 7.82031C40.5289 7.49905 39.9995 7.49905 39.6625 7.82031L36.3616 11.1212L35.7869 10.7774C34.4767 9.99393 33.0611 9.40378 31.5827 9.02344L30.9375 8.85559V4.21094C30.9375 3.73627 30.5528 3.35156 30.0781 3.35156H24.9219C24.4472 3.35156 24.0625 3.73627 24.0625 4.21094V8.85156L23.417 9.0184C21.9406 9.39807 20.5263 9.98822 19.2174 10.7704L18.6424 11.1145L15.3425 7.82031C15.0052 7.49637 14.4724 7.49637 14.135 7.82031L10.4844 11.47C10.3239 11.6301 10.2336 11.8476 10.2336 12.0742C10.2336 12.3011 10.3239 12.5183 10.4844 12.6785L13.7852 15.979L13.4415 16.554C12.6587 17.8622 12.0682 19.2765 11.6885 20.7529L11.52 21.3984H6.875C6.40033 21.3984 6.01563 21.7831 6.01563 22.2578V27.4141C6.01563 27.8887 6.40033 28.2734 6.875 28.2734V29.9922C5.45132 29.9922 4.29688 28.8377 4.29688 27.4141V22.2578C4.29688 20.8341 5.45132 19.6797 6.875 19.6797H10.2C10.5545 18.4913 11.0339 17.3439 11.6301 16.257L9.26682 13.8937C8.78342 13.4113 8.51184 12.7567 8.51184 12.0742C8.51184 11.3918 8.78342 10.7372 9.26682 10.2551L12.9192 6.60275C13.9366 5.62891 15.5409 5.62891 16.5584 6.60275L18.921 8.96503C20.008 8.36917 21.1557 7.89081 22.3438 7.53665V4.21094C22.3438 2.78726 23.4982 1.63281 24.9219 1.63281H30.0781C31.5018 1.63281 32.6563 2.78726 32.6563 4.21094V7.53665C33.8446 7.89081 34.9917 8.37018 36.079 8.96604L38.4423 6.60275C39.4601 5.62891 41.064 5.62891 42.0819 6.60275L45.7335 10.2541C46.2166 10.7365 46.4878 11.3904 46.4878 12.0732C46.4878 12.756 46.2166 13.4106 45.7335 13.8927L43.3702 16.256C43.9661 17.3436 44.4451 18.4913 44.8 19.6797H48.125C49.5487 19.6797 50.7031 20.8341 50.7031 22.2578V27.4141C50.7031 28.8377 49.5487 29.9922 48.125 29.9922Z" fill="white"/>
<path d="M39.5313 24.8359H37.8125C37.8125 19.1406 33.1954 14.5234 27.5 14.5234C21.8046 14.5234 17.1875 19.1406 17.1875 24.8359H15.4688C15.4688 18.1912 20.8553 12.8047 27.5 12.8047C34.1444 12.8047 39.5313 18.1912 39.5313 24.8359Z" fill="white"/>
<path d="M27.5 31.7109C24.6523 31.7109 22.3438 29.402 22.3438 26.5547C22.3438 23.707 24.6523 21.3984 27.5 21.3984C30.348 21.3984 32.6563 23.707 32.6563 26.5547C32.6532 29.4014 30.3467 31.7079 27.5 31.7109ZM27.5 23.1172C25.6017 23.1172 24.0625 24.6563 24.0625 26.5547C24.0625 28.453 25.6017 29.9922 27.5 29.9922C29.3983 29.9922 30.9375 28.453 30.9375 26.5547C30.9375 24.6563 29.3983 23.1172 27.5 23.1172Z" fill="white"/>
<path d="M42.1094 35.1484C39.2617 35.1484 36.9531 32.8395 36.9531 29.9922C36.9531 27.1445 39.2617 24.8359 42.1094 24.8359C44.9571 24.8359 47.2656 27.1445 47.2656 29.9922C47.2626 32.8389 44.9561 35.1454 42.1094 35.1484ZM42.1094 26.5547C40.211 26.5547 38.6719 28.0938 38.6719 29.9922C38.6719 31.8905 40.211 33.4297 42.1094 33.4297C44.0077 33.4297 45.5469 31.8905 45.5469 29.9922C45.5469 28.0938 44.0077 26.5547 42.1094 26.5547Z" fill="white"/>
<path d="M12.8906 35.1484C10.0429 35.1484 7.73438 32.8395 7.73438 29.9922C7.73438 27.1445 10.0429 24.8359 12.8906 24.8359C15.7386 24.8359 18.0469 27.1445 18.0469 29.9922C18.0439 32.8389 15.7373 35.1454 12.8906 35.1484ZM12.8906 26.5547C10.9923 26.5547 9.45313 28.0938 9.45313 29.9922C9.45313 31.8905 10.9923 33.4297 12.8906 33.4297C14.789 33.4297 16.3281 31.8905 16.3281 29.9922C16.3281 28.0938 14.789 26.5547 12.8906 26.5547Z" fill="white"/>
<path d="M49.9002 37.3533C48.6195 36.4731 47.1011 36.0035 45.5469 36.0079H38.6719C38.2539 36.0116 37.8367 36.0495 37.4248 36.121C36.8749 35.2609 36.1596 34.5191 35.3203 33.9373C35.1944 33.8423 35.0622 33.756 34.9242 33.6798C33.7221 32.9517 32.3427 32.5683 30.9375 32.5704H24.0625C21.4344 32.561 18.9855 33.9021 17.5776 36.121C17.1647 36.0495 16.7467 36.0116 16.3281 36.0079H9.45313C7.90021 36.0035 6.3822 36.4725 5.1022 37.3516C2.98666 38.7911 1.72009 41.1836 1.71875 43.7422V47.1797C1.72177 49.5262 3.08704 51.6572 5.21835 52.6401C6.00522 53.0107 6.86493 53.2004 7.73438 53.1954H16.3281V51.4766H8.59375V42.0235H6.875V51.3903C6.55139 51.3256 6.23718 51.2208 5.93909 51.0795C4.41672 50.3776 3.44086 48.8559 3.4375 47.1797V43.7422C3.43951 41.7509 4.42612 39.8895 6.07236 38.7696C7.06702 38.0868 8.24631 37.7233 9.45313 37.7266H16.3281C16.4795 37.7266 16.6256 37.7427 16.7733 37.7528C16.4825 38.5726 16.3318 39.4353 16.3281 40.3047V48.8985C16.3311 51.2705 18.2533 53.1923 20.625 53.1954H23.2031V39.4454H21.4844V51.4766H20.625C19.2013 51.4766 18.0469 50.3222 18.0469 48.8985V40.3047C18.0469 36.982 20.7405 34.2891 24.0625 34.2891H30.9375C32.0433 34.2898 33.1269 34.5959 34.0699 35.1733C34.1571 35.221 34.2411 35.2747 34.3206 35.3338C35.1259 35.8853 35.7869 36.6222 36.2475 37.4822C36.7104 38.351 36.9531 39.3201 36.9531 40.3047V48.8985C36.9531 50.3222 35.7987 51.4766 34.375 51.4766H33.5156V39.4454H31.7969V53.1954H34.375C36.747 53.1923 38.6689 51.2705 38.6719 48.8985V40.3047C38.6679 39.4353 38.5178 38.5729 38.2274 37.7528C38.3755 37.7427 38.5215 37.7266 38.6719 37.7266H45.5469C46.7544 37.7233 47.9347 38.0878 48.93 38.7713C50.5749 39.8918 51.5602 41.7519 51.5625 43.7422V47.1797C51.5595 48.8619 50.5762 50.388 49.0465 51.0862C48.7528 51.2252 48.4432 51.3272 48.125 51.3903V42.0235H46.4063V51.4766H38.6719V53.1954H47.2656C48.13 53.2007 48.9847 53.0134 49.7672 52.6468C51.9056 51.667 53.2779 49.5319 53.2813 47.1797V43.7422C53.2799 41.1846 52.0144 38.7931 49.9002 37.3533Z" fill="white"/>
<path d="M24.0625 51.4766H30.9375V53.1953H24.0625V51.4766Z" fill="white"/>
</svg>
