<svg width="55" height="55" viewBox="0 0 55 55" fill="none" xmlns="http://www.w3.org/2000/svg">
<g clip-path="url(#clip0_33_318)">
<path d="M15.8473 23.4941H51.2411C52.2792 23.4941 53.2155 23.9174 53.8957 24.5971V24.6036C54.5755 25.2838 54.9991 26.2201 54.9991 27.2518V51.2416C54.9991 52.2729 54.5755 53.2156 53.8957 53.8954C53.2155 54.576 52.2792 54.9988 51.2411 54.9988H15.8473C14.8156 54.9988 13.8729 54.576 13.1931 53.8954C12.5129 53.2156 12.0897 52.2789 12.0897 51.2416V27.2518C12.0897 26.2201 12.5129 25.2773 13.1931 24.5971C13.8733 23.9174 14.8156 23.4941 15.8473 23.4941ZM51.2411 25.212H15.8473C15.2866 25.212 14.7795 25.4445 14.41 25.814C14.04 26.184 13.8076 26.691 13.8076 27.2518V51.2416C13.8076 51.8024 14.04 52.315 14.41 52.685C14.7791 53.0541 15.2866 53.2809 15.8473 53.2809H51.2411C51.8018 53.2809 52.3145 53.0545 52.6844 52.685C53.0539 52.315 53.2812 51.802 53.2812 51.2416V27.2518C53.2812 26.691 53.0544 26.1784 52.6844 25.8084V25.8145C52.3145 25.4449 51.8018 25.212 51.2411 25.212Z" fill="white"/>
<path d="M26.3691 16.3306H40.7258C41.543 16.3306 42.2941 16.6644 42.8312 17.2071C43.3679 17.7498 43.7082 18.4958 43.7082 19.3126V24.3524V25.2113H42.8489H39.2227H38.3642V24.3524V21.5616H28.731V24.3528V25.2118H27.8717H24.2455H23.3866V24.3528V19.3126C23.3866 18.4958 23.7205 17.7438 24.2571 17.2071C24.7998 16.6644 25.5462 16.3306 26.3691 16.3306ZM40.7253 18.0485H26.3691C26.0227 18.0485 25.7069 18.1911 25.474 18.424C25.2476 18.6509 25.1049 18.9667 25.1049 19.3126V23.4935H27.0132V20.7022V19.8437H27.8721H39.2227H40.0821V20.7022V23.4939H41.9903V19.313C41.9903 18.9667 41.8473 18.6509 41.6208 18.4244H41.6144C41.3875 18.1915 41.0717 18.0485 40.7253 18.0485Z" fill="white"/>
<path d="M9.48922 46.6189C9.96059 46.6189 10.3482 47.0001 10.3482 47.4775C10.3482 47.9484 9.96059 48.336 9.48922 48.336H2.57684C1.87301 48.336 1.22891 48.0438 0.757539 47.5789V47.5728C0.292188 47.1075 0 46.4638 0 45.7536V2.57641C0 1.87258 0.292188 1.22848 0.757539 0.757539C1.22246 0.292188 1.86656 0 2.57684 0H26.7386C27.1086 0 27.4545 0.0717578 27.7771 0.214844C28.0934 0.35793 28.3796 0.566328 28.6361 0.834883L35.1196 7.77176C35.1373 7.7898 35.1493 7.80742 35.1673 7.82547C35.3753 8.05793 35.5248 8.31488 35.6323 8.58301C35.7397 8.87563 35.7994 9.18543 35.7994 9.51371V13.7246C35.7994 14.2016 35.4118 14.5836 34.9405 14.5836C34.4635 14.5836 34.0755 14.2016 34.0755 13.7246V9.51371C34.0755 9.39426 34.0639 9.28727 34.0278 9.19145C33.9921 9.1141 33.9505 9.04234 33.8968 8.97059C33.8847 8.95898 33.8723 8.95297 33.8607 8.94094L27.3831 2.00406C27.2933 1.90867 27.1923 1.83691 27.0849 1.7832C26.9839 1.74152 26.8705 1.71789 26.739 1.71789H2.57684C2.34438 1.71789 2.12953 1.81328 1.97441 1.97441L1.9684 1.9684C1.81328 2.12309 1.71789 2.34395 1.71789 2.57641V45.7536C1.71789 45.992 1.81328 46.2069 1.9684 46.362L1.97441 46.368C2.12953 46.5175 2.34395 46.6189 2.57684 46.6189H9.48922Z" fill="white"/>
<path d="M30.4309 39.1515L15.6926 36.3533C14.6966 36.1686 13.7775 35.7333 13.1162 35.0712C12.4833 34.4391 12.0897 33.6102 12.0897 32.6138H13.8076C13.8076 33.1208 14.0108 33.5385 14.3327 33.8607C14.7443 34.2659 15.3467 34.5465 16.0089 34.6715L30.7472 37.4688L30.4309 39.1515ZM54.9987 32.6138C54.9987 33.6098 54.6051 34.4331 53.9726 35.0651V35.0712C53.3105 35.7333 52.3922 36.169 51.4022 36.3533L36.6635 39.1747L36.3417 37.4929L51.08 34.6715C51.7481 34.5405 52.3506 34.2663 52.7618 33.8607C53.084 33.5385 53.2808 33.1204 53.2808 32.6138H54.9987Z" fill="white"/>
<path d="M21.8896 7.67578C22.3665 7.67578 22.7485 8.05777 22.7485 8.53473C22.7485 9.00609 22.3665 9.39367 21.8896 9.39367H9.90128C9.4239 9.39367 9.04191 9.00609 9.04191 8.53473C9.04191 8.05777 9.4239 7.67578 9.90128 7.67578H21.8896ZM5.80894 7.67578C6.28632 7.67578 6.67433 8.05777 6.67433 8.53473C6.67433 9.00609 6.28675 9.39367 5.80894 9.39367H5.16527C4.69347 9.39367 4.30589 9.00609 4.30589 8.53473C4.30589 8.05777 4.69347 7.67578 5.16527 7.67578H5.80894Z" fill="white"/>
<path d="M16.2409 15.4717C16.7123 15.4717 17.0998 15.8588 17.0998 16.3306C17.0998 16.8076 16.7123 17.1891 16.2409 17.1891H9.90085C9.4239 17.1891 9.04191 16.8076 9.04191 16.3306C9.04191 15.8593 9.4239 15.4717 9.90085 15.4717H16.2409ZM5.80937 15.4717C6.28632 15.4717 6.67433 15.8588 6.67433 16.3306C6.67433 16.8076 6.28675 17.1891 5.80937 17.1891H5.16527C4.6939 17.1891 4.30589 16.8076 4.30589 16.3306C4.30589 15.8593 4.69347 15.4717 5.16527 15.4717H5.80937Z" fill="white"/>
<path d="M21.8896 11.5767C22.3665 11.5767 22.7485 11.9587 22.7485 12.4356C22.7485 12.9065 22.3665 13.2946 21.8896 13.2946H9.90128C9.4239 13.2946 9.04191 12.907 9.04191 12.4356C9.04191 11.9587 9.4239 11.5767 9.90128 11.5767H21.8896ZM5.80894 11.5767C6.28632 11.5767 6.67433 11.9587 6.67433 12.4356C6.67433 12.9065 6.28675 13.2946 5.80894 13.2946H5.16527C4.69347 13.2946 4.30589 12.907 4.30589 12.4356C4.30589 11.9587 4.69347 11.5767 5.16527 11.5767H5.80894Z" fill="white"/>
<path d="M27.6216 0.31582L35.4406 8.80344C35.7569 9.14934 35.7393 9.69203 35.3869 10.0139C35.2258 10.163 35.0178 10.2407 34.8086 10.2407H29.4229C28.5046 10.2407 27.6753 9.86477 27.0729 9.26277C27.0553 9.24473 27.0368 9.22711 27.0192 9.20906C26.4464 8.61223 26.0945 7.80141 26.0945 6.91238V0.858945C26.0945 0.387578 26.4765 0 26.9539 0C27.2216 0 27.4605 0.125039 27.6216 0.31582ZM32.8526 8.52328L27.8124 3.05938V6.91281C27.8124 7.34207 27.9795 7.72965 28.2481 8.01582C28.2597 8.02785 28.2722 8.03988 28.2842 8.05192C28.5764 8.3441 28.9816 8.52285 29.4229 8.52285L32.8526 8.52328Z" fill="white"/>
<path d="M39.0556 4.62805C38.9602 5.09297 38.5073 5.39117 38.0419 5.2902C37.5766 5.19438 37.2784 4.74148 37.3738 4.28172L37.7021 2.71895L38.1313 0.685234C38.2147 0.280039 38.5726 -0.000976562 38.9722 -0.000976562H40.4753H41.9783C42.4136 -0.000976562 42.7719 0.321289 42.8312 0.744531L43.4633 3.75062C43.9046 3.87609 44.3343 4.0252 44.7515 4.19793C45.1752 4.37109 45.5864 4.57391 45.98 4.79477L48.6105 3.07687C48.9504 2.85602 49.3977 2.90973 49.6779 3.19031H49.6843L50.7461 4.25207C50.7577 4.27012 50.7757 4.28215 50.7882 4.29977L51.8078 5.31984C52.1056 5.61203 52.1361 6.07738 51.9037 6.41125L50.2034 9.01731C50.4298 9.41133 50.6271 9.82254 50.8058 10.2462C50.973 10.6634 51.1221 11.0931 51.2471 11.5344L54.3129 12.1845C54.7366 12.2679 55.0228 12.6499 54.9991 13.0671V14.5233V16.0264C54.9991 16.4616 54.6773 16.8256 54.2536 16.8793L51.2475 17.5114C51.1225 17.9587 50.973 18.3884 50.8062 18.7996C50.5557 19.402 50.2575 19.9743 49.9176 20.5059C49.6676 20.9111 49.1365 21.0305 48.7309 20.774C48.3312 20.5175 48.2122 19.9868 48.4683 19.5868C48.7609 19.1279 49.0114 18.6445 49.2203 18.1439C49.4231 17.6545 49.5838 17.1534 49.7032 16.6408C49.7569 16.3009 50.0191 16.0204 50.3714 15.943L53.2812 15.3346V14.5233H53.2873V13.7181L50.3705 13.1036C50.0547 13.0383 49.7862 12.7934 49.7084 12.4535C49.595 11.9229 49.4282 11.4098 49.2194 10.9032C49.0106 10.4022 48.7601 9.91879 48.4675 9.45988C48.2947 9.18531 48.2887 8.82738 48.4735 8.5352L50.1024 6.04215L49.5769 5.51148C49.5593 5.49988 49.5477 5.48742 49.5292 5.46938L48.9569 4.89703L46.5171 6.48945C46.2369 6.70387 45.8489 6.72793 45.5396 6.53113C45.0802 6.23895 44.5973 5.98844 44.0962 5.77961C43.6068 5.5768 43.1002 5.41566 42.5872 5.29664C42.2533 5.24293 41.9667 4.98641 41.8954 4.62848L41.2801 1.71734H40.4753H39.6636L39.3834 3.06527L39.0556 4.62805ZM40.4753 9.20293C39.9979 9.20293 39.6159 8.82094 39.6159 8.34398C39.6159 7.86703 39.9979 7.48504 40.4753 7.48504C42.4192 7.48504 44.1787 8.27266 45.4553 9.54883C46.7259 10.8194 47.5131 12.579 47.5131 14.5233C47.5131 15.0364 47.4594 15.5434 47.352 16.0264C47.2446 16.5209 47.0834 16.9988 46.8755 17.4577C46.6782 17.8873 46.1712 18.0781 45.7359 17.8813C45.3067 17.6841 45.1215 17.1771 45.3187 16.7478C45.4734 16.4139 45.5928 16.05 45.6762 15.668C45.754 15.2985 45.7957 14.9165 45.7957 14.5229C45.7957 13.0555 45.1993 11.7252 44.2389 10.7593C43.2725 9.79977 41.9422 9.20293 40.4753 9.20293Z" fill="white"/>
<path d="M30.7115 32.6382H36.3834C36.8311 32.6382 37.2363 32.8229 37.5289 33.1147L37.5349 33.1207C37.8275 33.4138 38.0119 33.825 38.0119 34.2723V40.559C38.0119 41.7875 37.5113 42.903 36.6996 43.7138C35.8948 44.5255 34.7733 45.0265 33.5444 45.0265C32.3155 45.0265 31.2 44.5255 30.3892 43.7138C29.5836 42.903 29.0765 41.7879 29.0765 40.559V34.2723C29.0765 33.825 29.2617 33.4129 29.5599 33.1207V33.1147C29.8581 32.8229 30.2642 32.6382 30.7115 32.6382ZM36.2944 34.3561H30.8009V40.559C30.8009 41.3101 31.1051 42.0024 31.6061 42.4978C32.1071 42.9988 32.7933 43.3086 33.5444 43.3086C34.3024 43.3086 34.9877 42.9988 35.4888 42.4978C35.9838 42.0028 36.2944 41.3101 36.2944 40.559V34.3561Z" fill="white"/>
<path d="M33.544 41.3043C34.0184 41.3043 34.4029 40.9198 34.4029 40.4454C34.4029 39.971 34.0184 39.5864 33.544 39.5864C33.0696 39.5864 32.685 39.971 32.685 40.4454C32.685 40.9198 33.0696 41.3043 33.544 41.3043Z" fill="white"/>
</g>
<defs>
<clipPath id="clip0_33_318">
<rect width="55" height="55" fill="white"/>
</clipPath>
</defs>
</svg>
