<svg width="55" height="55" viewBox="0 0 55 55" fill="none" xmlns="http://www.w3.org/2000/svg">
<g clip-path="url(#clip0_57_132)">
<path d="M53.9558 20.4944C53.7961 20.2921 53.5541 20.1722 53.2964 20.1677L49.3378 20.0979C48.8657 20.0907 48.4718 20.4674 48.4634 20.9419C48.455 21.4164 48.833 21.8079 49.3074 21.8163L50.8452 21.8434L47.8557 24.1851V11.8895C47.8557 11.4149 47.471 11.0301 46.9964 11.0301H40.4712C39.9966 11.0301 39.6119 11.4149 39.6119 11.8895V30.6427L35.7398 33.6758V23.1685C35.7398 22.694 35.355 22.3092 34.8805 22.3092H28.3552C27.8806 22.3092 27.4959 22.694 27.4959 23.1685V33.089L23.6235 32.2708V20.4489C23.6235 19.9744 23.2387 19.5896 22.7641 19.5896H16.239C15.7644 19.5896 15.3796 19.9744 15.3796 20.4489V31.1675L11.5074 34.1644V28.5278C11.5074 28.0532 11.1226 27.6685 10.648 27.6685H4.1229C3.6483 27.6685 3.26352 28.0532 3.26352 28.5278V40.5445L1.19286 42.147C0.817524 42.4375 0.748666 42.9773 1.03914 43.3526C1.20854 43.5714 1.46248 43.686 1.71944 43.686C1.90313 43.686 2.08832 43.6274 2.24484 43.5062L3.26363 42.7177V45.3593C3.26363 45.8339 3.64841 46.2187 4.123 46.2187H10.6481C11.1227 46.2187 11.5075 45.8339 11.5075 45.3593V36.3376L15.3797 33.3408V40.6455C14.5197 41.999 14.0192 43.6022 14.0192 45.321C14.0192 50.1429 17.9423 54.066 22.7642 54.066C27.2832 54.066 31.0123 50.6206 31.4633 46.2188H34.8804C35.3549 46.2188 35.7397 45.834 35.7397 45.3594V35.859L39.6118 32.826V45.3593C39.6118 45.8339 39.9965 46.2187 40.4711 46.2187H46.9964C47.471 46.2187 47.8557 45.8339 47.8557 45.3593V26.3683L51.9282 23.1783L51.5915 24.7092C51.4896 25.1727 51.7828 25.6312 52.2463 25.7331C52.3085 25.7468 52.3706 25.7533 52.4317 25.7533C52.8264 25.7533 53.1819 25.4797 53.2702 25.0784L54.1206 21.2115C54.176 20.9598 54.1154 20.6966 53.9558 20.4944ZM4.98227 29.3871H9.78865V35.4945L4.98227 39.2142V29.3871ZM9.78875 44.5H4.98227V41.3875L9.78865 37.6678L9.78875 44.5ZM29.2146 24.0279H34.0211V34.4675L29.2146 33.452V24.0279ZM27.4959 34.8456V37.9727C26.3579 37.2374 25.0404 36.7577 23.6235 36.6188V34.0275L27.4959 34.8456ZM17.0985 38.6677V32.649L21.9049 33.6644V36.6188C20.081 36.7976 18.4209 37.54 17.0985 38.6677ZM21.9049 21.3083V31.9077L17.0985 30.8923V21.3083H21.9049ZM22.7643 52.3473C18.8901 52.3473 15.7381 49.1954 15.7381 45.3211C15.7381 41.4471 18.8896 38.2953 22.7636 38.2949H22.7642H22.765C26.639 38.2953 29.7905 41.4471 29.7905 45.3212C29.7905 49.1954 26.6385 52.3473 22.7643 52.3473ZM31.4695 44.5001C31.2873 42.553 30.4651 40.7895 29.2147 39.4231V35.2086L34.0212 36.2241V44.5001H31.4695ZM41.3306 12.7488H46.1371V25.5314L41.3306 29.2963V12.7488ZM46.1371 44.5H41.3306V31.4797L46.1371 27.7146V44.5ZM3.44646 22.6638C3.15373 22.2902 3.21937 21.75 3.59298 21.4573L4.58309 20.6816C4.9567 20.3888 5.49682 20.4545 5.78955 20.8281C6.08227 21.2024 6.01663 21.7419 5.64302 22.0346L4.65291 22.8103C4.49565 22.9335 4.30884 22.9932 4.12354 22.9932C3.86841 22.9932 3.61597 22.8801 3.44646 22.6638ZM6.9077 19.9522C6.61497 19.5786 6.68061 19.0385 7.05412 18.7458L8.04422 17.9701C8.41773 17.6772 8.95795 17.7429 9.25068 18.1165C9.5434 18.4901 9.47777 19.0302 9.10426 19.323L8.11416 20.0986C7.95689 20.2219 7.77008 20.2816 7.58467 20.2816C7.32965 20.2816 7.07721 20.1685 6.9077 19.9522ZM10.3688 17.2406C10.0761 16.867 10.1417 16.3268 10.5152 16.0341L11.5054 15.2584C11.8789 14.9657 12.4191 15.0313 12.7118 15.4048C13.0045 15.7785 12.9389 16.3186 12.5654 16.6113L11.5753 17.387C11.418 17.5102 11.2312 17.5699 11.0458 17.5699C10.7909 17.5699 10.5385 17.4568 10.3688 17.2406ZM13.8301 14.5288C13.5373 14.1552 13.603 13.6151 13.9765 13.3224L14.9666 12.5467C15.3402 12.2538 15.8803 12.3195 16.173 12.6931C16.4658 13.0667 16.4001 13.6068 16.0266 13.8995L15.0365 14.6752C14.8793 14.7985 14.6925 14.8582 14.507 14.8582C14.252 14.8583 13.9996 14.7452 13.8301 14.5288ZM17.2912 11.8172C16.9985 11.4436 17.0641 10.9034 17.4377 10.6107L18.4278 9.83502C18.8016 9.54219 19.3416 9.60793 19.6343 9.98155C19.927 10.3552 19.8614 10.8953 19.4878 11.188L18.4977 11.9637C18.3404 12.0869 18.1536 12.1466 17.9683 12.1466C17.7133 12.1466 17.4607 12.0335 17.2912 11.8172ZM38.8348 6.69132C38.4978 6.35713 38.4954 5.81304 38.8296 5.47606L41.4254 2.85819L39.8648 2.99504C39.3923 3.03608 38.9752 2.68685 38.9337 2.21398C38.8922 1.74121 39.2419 1.32431 39.7148 1.28285L43.6589 0.936947C43.9152 0.914173 44.1688 1.00828 44.3488 1.19261C44.5289 1.37695 44.6166 1.6324 44.588 1.88849L44.1481 5.82325C44.099 6.26249 43.727 6.58723 43.2951 6.58723C43.2632 6.58723 43.231 6.58551 43.1987 6.58186C42.727 6.52911 42.3873 6.10405 42.4401 5.63236L42.611 4.10374L40.0501 6.68617C39.8821 6.85557 39.6611 6.94043 39.4399 6.94043C39.2212 6.94043 39.0023 6.8574 38.8348 6.69132ZM35.739 9.81343C35.402 9.47924 35.3996 8.93515 35.7338 8.59817L36.6194 7.70506C36.9536 7.36808 37.4977 7.36582 37.8347 7.69991C38.1717 8.0341 38.174 8.57819 37.8398 8.91517L36.9542 9.80827C36.7862 9.97768 36.5652 10.0625 36.344 10.0625C36.1253 10.0626 35.9066 9.97961 35.739 9.81343ZM32.6431 12.9358C32.3061 12.6016 32.3037 12.0575 32.6379 11.7205L33.5235 10.8274C33.8577 10.4905 34.4018 10.4881 34.7388 10.8222C35.0758 11.1564 35.0781 11.7005 34.7439 12.0375L33.8583 12.9306C33.6903 13.1 33.4693 13.1849 33.2481 13.1849C33.0295 13.1849 32.8108 13.1019 32.6431 12.9358ZM29.0484 13.1829C29.1948 12.7314 29.6794 12.484 30.131 12.6307L31.3274 13.0188C31.7789 13.1652 32.026 13.6499 31.8796 14.1014C31.7618 14.4647 31.4248 14.6958 31.0624 14.6958C30.9745 14.6958 30.8851 14.6822 30.797 14.6535L29.6007 14.2654C29.1492 14.1191 28.9019 13.6344 29.0484 13.1829ZM24.8661 11.826C25.0125 11.3745 25.4971 11.1271 25.9487 11.2737L27.1451 11.6618C27.5966 11.8083 27.8438 12.2929 27.6974 12.7444C27.5795 13.1077 27.2426 13.3388 26.8801 13.3388C26.7922 13.3388 26.7029 13.3253 26.6148 13.2966L25.4183 12.9085C24.9668 12.7622 24.7195 12.2775 24.8661 11.826ZM20.6838 10.469C20.8302 10.0175 21.3147 9.77025 21.7664 9.91677L22.9628 10.3049C23.4143 10.4513 23.6614 10.936 23.515 11.3875C23.3972 11.7508 23.0602 11.9818 22.6977 11.9818C22.6099 11.9818 22.5205 11.9683 22.4324 11.9396L21.2361 11.5515C20.7846 11.4052 20.5373 10.9205 20.6838 10.469ZM26.1332 47.0635C26.2194 47.7729 26.0276 48.4221 25.5786 48.9412C25.1305 49.4593 24.4286 49.8255 23.6236 49.9777V50.3112C23.6236 50.7857 23.2388 51.1705 22.7642 51.1705C22.2897 51.1705 21.9049 50.7857 21.9049 50.3112V49.9634C20.6534 49.6907 19.6961 48.8351 19.4006 47.6503C19.2858 47.1898 19.5661 46.7234 20.0266 46.6085C20.4873 46.4937 20.9535 46.774 21.0684 47.2345C21.2778 48.0744 22.1585 48.3523 22.8467 48.3367C23.4467 48.3225 24.0222 48.1135 24.2787 47.817C24.4089 47.6665 24.4546 47.498 24.427 47.2708C24.3789 46.8741 24.1314 46.3871 22.6322 46.1409C20.245 45.749 19.687 44.4929 19.6392 43.5081C19.5742 42.1692 20.4818 41.0464 21.905 40.6941V40.3314C21.905 39.8569 22.2898 39.4721 22.7643 39.4721C23.2389 39.4721 23.6237 39.8569 23.6237 40.3314V40.6864C24.5458 40.9041 25.4185 41.4985 25.8782 42.5932C26.0619 43.0309 25.8562 43.5346 25.4185 43.7182C24.9808 43.9022 24.4772 43.6961 24.2935 43.2586C23.9374 42.4105 23.0641 42.1926 22.3566 42.3533C22.1827 42.3928 21.3173 42.6297 21.3559 43.4249C21.3661 43.6357 21.3933 44.1958 22.9108 44.4451C24.8772 44.7677 25.9614 45.6487 26.1332 47.0635Z" fill="#002FF5"/>
</g>
<defs>
<clipPath id="clip0_57_132">
<rect width="55" height="55" fill="white"/>
</clipPath>
</defs>
</svg>
