<svg width="38" height="40" viewBox="0 0 38 40" fill="none" xmlns="http://www.w3.org/2000/svg">
<path d="M34.3125 18.5156C34.3906 19.5312 34.3906 20.5469 34.3125 21.4844L36.8125 22.9688C37.5156 23.3594 37.9062 24.2188 37.6719 25.0781C36.8125 28.3594 35.0156 31.3281 32.6719 33.75C32.0469 34.2969 31.1094 34.4531 30.4062 34.0625L27.9062 32.5781C27.125 33.2031 26.2656 33.6719 25.3281 34.0625V36.9531C25.3281 37.8125 24.7812 38.5156 23.9219 38.75C20.7188 39.6094 17.2031 39.6094 14 38.75C13.1406 38.5156 12.5938 37.8125 12.5938 36.9531V34.0625C11.6562 33.6719 10.7969 33.2031 10.0156 32.5781L7.51562 34.0625C6.8125 34.4531 5.875 34.2969 5.25 33.75C2.90625 31.3281 1.10938 28.3594 0.25 25.0781C0.015625 24.2188 0.40625 23.3594 1.10938 22.9688L3.60938 21.4844C3.53125 21.0156 3.53125 20.5469 3.53125 20.0781C3.53125 19.5312 3.53125 19.0625 3.60938 18.5156L1.10938 17.1094C0.40625 16.7188 0.015625 15.8594 0.25 15C1.10938 11.7188 2.90625 8.75 5.25 6.32812C5.875 5.78125 6.8125 5.625 7.51562 6.01562L10.0156 7.5C10.7969 6.875 11.6562 6.40625 12.5938 6.01562V3.125C12.5938 2.26562 13.1406 1.5625 14 1.32812C17.2031 0.46875 20.7188 0.46875 23.9219 1.32812C24.7812 1.5625 25.3281 2.26562 25.3281 3.125V6.01562C26.2656 6.40625 27.125 6.875 27.9062 7.5L30.4062 6.01562C31.1094 5.625 32.0469 5.78125 32.6719 6.32812C35.0156 8.75 36.8125 11.7188 37.6719 15C37.9062 15.8594 37.5156 16.7188 36.8125 17.1094L34.3125 18.5156ZM30.1719 23.5156C30.7969 20.2344 30.7969 19.8438 30.1719 16.5625L33.6094 14.6094C32.9844 12.9688 32.125 11.4062 30.9531 10.0781L27.5156 12.0312C25.0938 9.92188 24.7031 9.6875 21.5781 8.59375V4.60938C20.7188 4.45312 19.8594 4.375 19 4.375C18.0625 4.375 17.2031 4.45312 16.3438 4.60938V8.59375C13.2188 9.6875 12.9062 9.92188 10.4062 12.0312L6.96875 10.0781C5.79688 11.4062 4.9375 12.9688 4.3125 14.6094L7.75 16.5625C7.125 19.8438 7.125 20.2344 7.75 23.5156L4.3125 25.4688C4.9375 27.1094 5.79688 28.6719 6.96875 30L10.4062 28.0469C12.8281 30.1562 13.2188 30.3906 16.3438 31.4844V35.4688C17.2031 35.625 18.0625 35.7031 18.9219 35.7031C19.8594 35.7031 20.7188 35.625 21.5781 35.4688V31.4844C24.7031 30.3906 25.0156 30.1562 27.5156 28.0469L30.9531 30C32.125 28.6719 32.9844 27.1094 33.6094 25.4688L30.1719 23.5156ZM19 12.5C23.0625 12.5 26.5 15.9375 26.5 20C26.5 24.1406 23.0625 27.5 19 27.5C14.8594 27.5 11.5 24.1406 11.5 20C11.5 15.9375 14.8594 12.5 19 12.5ZM19 23.75C21.0312 23.75 22.75 22.1094 22.75 20C22.75 17.9688 21.0312 16.25 19 16.25C16.8906 16.25 15.25 17.9688 15.25 20C15.25 22.1094 16.8906 23.75 19 23.75Z" fill="#DF0A0A"/>
</svg>
