<svg width="45" height="45" viewBox="0 0 45 45" fill="none" xmlns="http://www.w3.org/2000/svg">
<g clip-path="url(#clip0_57_89)">
<path d="M10.6808 12.1807H23.6149C24.4672 12.1807 24.4672 10.8623 23.6149 10.8623H10.6808C9.82856 10.8623 9.82856 12.1807 10.6808 12.1807Z" fill="#002FF5"/>
<path d="M10.6808 17.0171H20.6266C21.4789 17.0171 21.4789 15.6987 20.6266 15.6987H10.6808C9.82856 15.6987 9.82856 17.0171 10.6808 17.0171Z" fill="#002FF5"/>
<path d="M10.6808 21.853H19.2204C20.0726 21.853 20.0726 20.5347 19.2204 20.5347H10.6808C9.82856 20.5347 9.82856 21.853 10.6808 21.853Z" fill="#002FF5"/>
<path d="M22.8259 38.0023H22.3892V31.56C22.3892 31.1959 22.0942 30.9008 21.73 30.9008H19.0847V28.5771C19.0847 28.2131 18.7896 27.918 18.4255 27.918H15.129C14.7649 27.918 14.4698 28.2131 14.4698 28.5771V32.5882H11.8297C11.4655 32.5882 11.1705 32.8834 11.1705 33.2474V38.0023H10.7338C10.3696 38.0023 10.0746 38.2974 10.0746 38.6615C10.0746 39.0255 10.3696 39.3206 10.7338 39.3206H22.8258C23.19 39.3206 23.485 39.0255 23.485 38.6615C23.485 38.2974 23.19 38.0023 22.8259 38.0023ZM12.4889 38.0023V33.9066H14.4672V38.0023H12.4889ZM15.7883 38.0023V29.2363H17.7664V38.0023H15.7883ZM19.0926 38.0023V32.2192H21.0708V38.0023H19.0926Z" fill="#002FF5"/>
<path d="M44.9946 20.5315C44.9087 17.7566 43.7786 15.1454 41.812 13.1788C40.8684 12.2353 39.793 11.5022 38.6447 10.9785C38.6254 10.9674 38.6055 10.9571 38.5848 10.9478C38.5637 10.9383 38.5424 10.9301 38.5209 10.923C37.0359 10.2682 35.4333 9.96091 33.838 10.002V6.37022C33.838 5.52595 33.1514 4.83908 32.3072 4.83908H31.3565V4.01607C31.3565 3.1718 30.6698 2.48493 29.8256 2.48493H28.8722V1.53114C28.8723 0.686865 28.1855 0 27.3414 0H1.53112C0.686934 0 0.000244141 0.686865 0.000244141 1.53114V38.6299C0.000244141 39.4741 0.686934 40.161 1.53112 40.161H2.48447V41.1148C2.48447 41.9591 3.17116 42.6459 4.01263 42.6459L4.96615 42.6498V43.4689C4.96615 44.3132 5.65284 45.0001 6.49703 45.0001H27.088C27.2603 45.0001 27.4308 44.9298 27.553 44.8081L33.6441 38.7459C33.7683 38.6221 33.8382 38.454 33.8382 38.2787V31.7436C33.9271 31.7458 34.0159 31.7479 34.1048 31.7479C35.9628 31.7479 37.8129 31.2731 39.431 30.3664C40.1747 29.9498 39.5302 28.7999 38.7866 29.2162C35.2672 31.1884 30.8626 30.7025 27.8457 28.0776L34.3189 21.6044L43.1686 23.9495C42.7785 25.1027 42.1621 26.197 41.3158 27.1624C40.754 27.8033 41.7452 28.6724 42.3071 28.0316C44.1255 25.9573 45.08 23.2937 44.9946 20.5315ZM37.4317 11.9043L33.5692 20.4893L26.9122 27.1464C23.6422 23.3959 23.7917 17.6812 27.3619 14.111C30.0798 11.3931 34.0407 10.6579 37.4317 11.9043ZM4.01518 41.3275C3.89802 41.3275 3.80274 41.232 3.80274 41.1147V4.01607C3.80274 3.89874 3.89802 3.80329 4.01518 3.80329H8.61344C9.46571 3.80329 9.46571 2.48493 8.61344 2.48493H4.01518C3.17107 2.48493 2.48438 3.1718 2.48438 4.01607V38.8426H1.53112C1.41396 38.8426 1.3186 38.7471 1.3186 38.6298V1.53114C1.3186 1.41381 1.41396 1.31836 1.53112 1.31836H27.3414C27.4586 1.31836 27.554 1.41381 27.554 1.53114V2.48502H12.3049C11.4527 2.48502 11.4527 3.80338 12.3049 3.80338H29.8257C29.9428 3.80338 30.0382 3.89883 30.0382 4.01616V4.83917H6.49694C5.65284 4.83917 4.96606 5.52604 4.96606 6.37031V41.3314L4.01518 41.3275ZM6.28442 43.4689V6.37022C6.28442 6.25289 6.37978 6.15744 6.49694 6.15744H32.3073C32.4244 6.15744 32.5198 6.25289 32.5198 6.37022V10.116C30.2895 10.4453 28.1426 11.4659 26.4297 13.1789C22.1888 17.4198 22.1888 24.3203 26.4297 28.5613C28.0977 30.2293 30.2005 31.2862 32.5198 31.6292V37.5629H27.9596C27.1155 37.5629 26.4287 38.2497 26.4287 39.094V43.6816H6.49694C6.37978 43.6816 6.28442 43.5862 6.28442 43.4689ZM27.747 42.7443V39.094C27.747 38.9767 27.8424 38.8812 27.9596 38.8812H31.5926L27.747 42.7443ZM35.0407 20.4318L38.6346 12.444C39.4418 12.8758 40.1997 13.4312 40.8797 14.1111C43.19 16.4216 44.077 19.6574 43.5034 22.6745L35.0407 20.4318Z" fill="#002FF5"/>
</g>
<defs>
<clipPath id="clip0_57_89">
<rect width="45" height="45" fill="white"/>
</clipPath>
</defs>
</svg>
