<svg width="41" height="42" viewBox="0 0 41 42" fill="none" xmlns="http://www.w3.org/2000/svg">
<path d="M17.5 8.57812V7.25H17.3438C17.8906 6.23438 18.5938 5.375 19.375 4.59375C22.3438 1.54688 26.6406 0.375 30.7812 1.39062C31.7969 1.625 32.5 2.40625 32.8125 3.34375C33.0469 4.28125 32.8125 5.29688 32.1094 6L27.5 10.5312L27.8906 13.1094L30.4688 13.5L35.0781 8.89062C35.7031 8.26562 36.7188 7.95312 37.7344 8.1875C38.6719 8.5 39.375 9.20312 39.6094 10.2188C40.625 14.2812 39.375 18.6562 36.4062 21.625C35.7031 22.3281 34.9219 22.9531 34.1406 23.4219L31.7188 21C31.5625 20.9219 31.4062 20.7656 31.3281 20.6875C32.1875 20.2969 33.0469 19.75 33.75 18.9688C35.3906 17.4062 36.25 15.2188 36.25 13.0312L31.7188 17.4844L24.6875 16.3125L23.5156 9.28125L27.9688 4.82812H27.8906C25.7031 4.82812 23.5938 5.60938 22.0312 7.25C20.0781 9.20312 19.2188 11.9375 19.7656 14.6719L17.5 12.3281V8.57812ZM8.28125 36.4688L17.5781 27.1719C17.5781 28.6562 18.0469 30.0625 18.75 31.3125L10.9375 39.125C9.6875 40.375 8.04688 41 6.40625 41C4.6875 41 3.04688 40.375 1.875 39.125C0.625 37.9531 0 36.3125 0 34.5938C0 32.9531 0.625 31.3125 1.875 30.0625L12.3438 19.5938L15 22.25L4.45312 32.7188C3.98438 33.2656 3.67188 33.8906 3.67188 34.5938C3.67188 35.2969 3.98438 36 4.45312 36.4688C5.46875 37.4844 7.26562 37.4844 8.28125 36.4688ZM39.1406 31.9375C40.2344 33.1094 40.2344 34.9062 39.1406 36.0781L35 40.2188C33.8281 41.3125 32.0312 41.3125 30.8594 40.2188L21.7188 31C19.9219 29.2031 19.6094 26.5469 20.625 24.3594L12.3438 16H7.5L0 6L5 1L15 8.5V13.4219L23.2812 21.7031C25.4688 20.6094 28.125 21 30 22.7969L39.1406 31.9375Z" fill="#DF0A0A"/>
</svg>
