<svg width="55" height="55" viewBox="0 0 55 55" fill="none" xmlns="http://www.w3.org/2000/svg">
<g clip-path="url(#clip0_57_123)">
<path d="M31.7969 9.45312H26.6406V21.4844H24.9219V6.01562H19.7656V21.4844H18.0469V12.8906H12.8906V23.2031H31.7969V9.45312ZM16.3281 21.4844H14.6094V14.6094H16.3281V21.4844ZM21.4844 7.73438H23.2031V21.4844H21.4844V7.73438ZM30.0781 21.4844H28.3594V11.1719H30.0781V21.4844Z" fill="#002FF5"/>
<path d="M38.6719 4.29688H40.3906V6.01562H38.6719V4.29688Z" fill="#002FF5"/>
<path d="M42.1094 4.29688H43.8281V6.01562H42.1094V4.29688Z" fill="#002FF5"/>
<path d="M45.5469 4.29688H47.2656V6.01562H45.5469V4.29688Z" fill="#002FF5"/>
<path d="M36.953 34.8787L35.8419 33.7676L34.6267 34.9827L36.953 37.3091L40.9981 33.264L39.783 32.0488L36.953 34.8787Z" fill="#002FF5"/>
<path d="M46.4062 14.6094C44.9848 14.6094 43.8281 15.7661 43.8281 17.1875C43.8281 18.6089 44.9848 19.7656 46.4062 19.7656C47.8277 19.7656 48.9844 18.6089 48.9844 17.1875C48.9844 15.7661 47.8277 14.6094 46.4062 14.6094ZM46.4062 18.0469C45.9319 18.0469 45.5469 17.6619 45.5469 17.1875C45.5469 16.7131 45.9319 16.3281 46.4062 16.3281C46.8806 16.3281 47.2656 16.7131 47.2656 17.1875C47.2656 17.6619 46.8806 18.0469 46.4062 18.0469Z" fill="#002FF5"/>
<path d="M54.1406 14.6094H52.6307L53.698 13.542L50.0517 9.8957L48.9844 10.963V9.45312H43.8281V10.963L42.7608 9.8957L39.1145 13.542L40.1818 14.6094H38.6719V19.7656H40.1818L39.1145 20.833L42.7608 24.4793L43.8281 23.412V24.9219H44.5706L40.9578 29.2574C40.0417 28.692 38.9658 28.3594 37.8125 28.3594C36.6781 28.3594 35.6194 28.6808 34.7127 29.2291L32.2291 26.1938C35.1252 23.5228 36.9531 19.7098 36.9531 15.4688C36.9531 7.41297 30.3995 0.859375 22.3438 0.859375C15.5762 0.859375 9.88539 5.49141 8.23281 11.7468C3.67898 14.5527 0.859375 19.5645 0.859375 24.9219C0.859375 32.2687 6.01219 38.4235 12.8906 39.9919V50.7031C12.8906 52.5989 14.4323 54.1406 16.3281 54.1406C18.2239 54.1406 19.7656 52.5989 19.7656 50.7031V39.9979C25.6652 38.6779 30.2827 34.0355 31.4849 27.9984L33.3833 30.3179C32.4019 31.3895 31.7969 32.8109 31.7969 34.375C31.7969 37.6913 34.4962 40.3906 37.8125 40.3906C41.1288 40.3906 43.8281 37.6913 43.8281 34.375C43.8281 32.8307 43.2377 31.4256 42.2778 30.3591L46.8093 24.9219H48.9844V23.412L50.0517 24.4793L53.698 20.833L52.6307 19.7656H54.1406V14.6094ZM22.3438 2.57812C29.4516 2.57812 35.2344 8.36086 35.2344 15.4688C35.2344 22.5766 29.4516 28.3594 22.3438 28.3594C15.2359 28.3594 9.45312 22.5766 9.45312 15.4688C9.45312 8.36086 15.2359 2.57812 22.3438 2.57812ZM22.3438 30.0781C23.4102 30.0781 24.4475 29.9561 25.4487 29.7387C23.6878 33.0825 20.2065 35.2344 16.3281 35.2344C10.6416 35.2344 6.01562 30.6084 6.01562 24.9219C6.01562 22.6368 6.75641 20.4875 8.10906 18.7086C9.58805 25.208 15.4026 30.0781 22.3438 30.0781ZM18.0469 50.7031C18.0469 51.651 17.276 52.4219 16.3281 52.4219C15.3802 52.4219 14.6094 51.651 14.6094 50.7031V40.2892C15.1748 40.352 15.7463 40.3906 16.3281 40.3906C16.9099 40.3906 17.4814 40.3502 18.0469 40.2892V50.7031ZM16.3281 38.6719C8.74672 38.6719 2.57812 32.5033 2.57812 24.9219C2.57812 20.7058 4.5418 16.7277 7.80141 14.1402C7.76188 14.5784 7.73438 15.0202 7.73438 15.4688C7.73438 15.8065 7.76273 16.1382 7.78508 16.4699C5.54039 18.7361 4.29688 21.7155 4.29688 24.9219C4.29688 31.5562 9.69375 36.9531 16.3281 36.9531C21.3941 36.9531 25.8732 33.8027 27.6109 29.0804C28.3396 28.7977 29.0374 28.4591 29.7043 28.0672C28.2829 34.2263 22.8405 38.6719 16.3281 38.6719ZM37.8125 38.6719C35.4432 38.6719 33.5156 36.7443 33.5156 34.375C33.5156 32.0057 35.4432 30.0781 37.8125 30.0781C40.1818 30.0781 42.1094 32.0057 42.1094 34.375C42.1094 36.7443 40.1818 38.6719 37.8125 38.6719ZM52.4219 18.0469H50.6877L50.0405 19.6066L51.2677 20.833L50.0517 22.049L48.8254 20.8218L47.2656 21.4689V23.2031H45.5469V21.468L43.9888 20.8209L42.7608 22.049L41.5448 20.833L42.7711 19.6066L42.1257 18.0469H40.3906V16.3281H42.1248L42.772 14.7684L41.5448 13.542L42.7608 12.326L43.9871 13.5532L45.5469 12.9061V11.1719H47.2656V12.9061L48.8254 13.5532L50.0517 12.326L51.2677 13.542L50.0405 14.7684L50.6877 16.3281H52.4219V18.0469Z" fill="#002FF5"/>
</g>
<defs>
<clipPath id="clip0_57_123">
<rect width="55" height="55" fill="white"/>
</clipPath>
</defs>
</svg>
