<svg width="50" height="50" viewBox="0 0 50 50" fill="none" xmlns="http://www.w3.org/2000/svg">
<path d="M47.4045 31.2376C46.9647 30.5032 45.1613 28.3221 40.418 31.0845L32.1171 35.9193C31.7377 36.1402 31.3523 36.3015 30.9522 36.4045C31.0917 36.1618 31.2024 35.892 31.2815 35.5971C31.712 33.9903 30.7578 32.3131 29.1091 31.7786C29.0756 31.7678 29.0415 31.7592 29.0068 31.7529C26.6248 31.3233 24.2722 30.4728 22.3817 29.7894C21.7241 29.5516 21.1028 29.3271 20.5742 29.1556C18.4321 28.4606 16.5002 29.3185 14.8926 30.2492L8.75595 33.8022L8.19589 32.8127C7.65175 31.8515 6.42714 31.5119 5.46562 32.056L3.13651 33.3741C2.67196 33.637 2.3373 34.0663 2.19413 34.5829C2.05097 35.0995 2.11689 35.6398 2.37978 36.1044L9.22704 48.2031C9.59521 48.8536 10.2749 49.2194 10.974 49.2194C11.308 49.2194 11.6465 49.1358 11.9573 48.96L14.2864 47.6418C15.2478 47.0977 15.5873 45.8729 15.0432 44.9115L14.359 43.7026L15.7123 42.9213L26.3263 45.7652C26.9167 45.9235 27.5042 46.0022 28.082 46.0022C29.2506 46.0022 30.3794 45.6805 31.4114 45.0452L46.4756 35.7693C47.8685 34.9115 48.3113 32.7516 47.4045 31.2376ZM13.5169 46.2818L11.1878 47.6C10.9798 47.718 10.7046 47.6413 10.5869 47.4334L3.73964 35.3346C3.68232 35.2333 3.66825 35.1146 3.69999 35.0001C3.73163 34.8856 3.80487 34.791 3.90624 34.7337L6.23534 33.4155C6.30185 33.3778 6.37528 33.3601 6.44814 33.3601C6.60321 33.3601 6.75614 33.4406 6.83632 33.582L13.6836 45.6808C13.8012 45.8889 13.7249 46.1641 13.5169 46.2818ZM45.6563 34.4386L30.5923 43.7145C29.4085 44.4432 28.1093 44.6254 26.7308 44.2558L15.8042 41.328C15.6041 41.2744 15.3908 41.3024 15.2114 41.4061L13.5894 42.3425L9.52567 35.1621L15.6757 31.6014C17.0512 30.8049 18.5382 30.1376 20.0923 30.6417C20.5962 30.8051 21.1775 31.0152 21.8507 31.2586C23.7815 31.9566 26.1814 32.8242 28.6727 33.2802C29.5159 33.5765 29.9873 34.3904 29.7724 35.1926C29.4897 36.2476 28.6082 36.3795 27.9057 36.2994C26.6851 36.0483 25.5246 35.7172 24.2967 35.3665C23.7134 35.1999 23.1103 35.0277 22.4901 34.8615C22.0735 34.7501 21.6451 34.9973 21.5333 35.414C21.4216 35.8308 21.669 36.2591 22.0857 36.3708C22.6935 36.5336 23.2904 36.7041 23.8676 36.8689C25.1352 37.2311 26.3327 37.5729 27.6229 37.8367C27.628 37.8378 27.6486 37.8416 27.654 37.8425L28.6863 38.0104C30.2411 38.259 31.6202 38.0166 32.9034 37.2694L41.2044 32.4346C43.5701 31.0567 45.3868 30.9095 46.0642 32.0403C46.5294 32.8174 46.3236 34.0277 45.6563 34.4386ZM6.88905 35.7135C6.95546 36.1679 6.64091 36.5901 6.18651 36.6565C5.73212 36.7229 5.30985 36.4085 5.24345 35.954C5.17704 35.4996 5.4915 35.0773 5.94599 35.0109C6.40038 34.9445 6.82265 35.2591 6.88905 35.7135ZM16.438 18.5602L18.4355 19.329C18.7256 20.3955 19.1495 21.4181 19.6996 22.3786L18.8304 24.3358C18.6992 24.6312 18.7634 24.9769 18.9919 25.2054L21.7344 27.9479C21.963 28.1764 22.3084 28.2406 22.6039 28.1095L24.562 27.2398C25.5226 27.79 26.5448 28.2139 27.6106 28.5038L28.3797 30.5018C28.4957 30.8034 28.7855 31.0023 29.1088 31.0023H32.9872C33.3104 31.0023 33.6002 30.8033 33.7163 30.5018L34.4851 28.5043C35.5517 28.2143 36.5742 27.7904 37.5348 27.24L39.4921 28.1094C39.7876 28.2406 40.133 28.1764 40.3616 27.9479L43.1041 25.2053C43.3326 24.9768 43.3968 24.6312 43.2656 24.3357L42.396 22.3777C42.9463 21.4172 43.3701 20.3949 43.6599 19.3292L45.6579 18.5602C45.9595 18.4441 46.1585 18.1543 46.1585 17.8311V13.9525C46.1585 13.6293 45.9595 13.3396 45.6579 13.2234L43.6605 12.4546C43.3705 11.3882 42.9466 10.3656 42.3963 9.40498L43.2656 7.44775C43.3968 7.15234 43.3326 6.80674 43.104 6.57822L40.3614 3.83574C40.133 3.60723 39.7874 3.54287 39.492 3.67422L37.534 4.54385C36.5734 3.99365 35.5512 3.56982 34.4853 3.27988L33.7163 1.28193C33.6002 0.980273 33.3104 0.78125 32.9872 0.78125H29.1088C28.7855 0.78125 28.4958 0.980273 28.3797 1.28184L27.6105 3.27979C26.5447 3.56973 25.5225 3.99355 24.5619 4.54375L22.6039 3.67412C22.3084 3.54277 21.963 3.60713 21.7344 3.83564L18.9919 6.57812C18.7634 6.80664 18.6992 7.15225 18.8304 7.44766L19.6998 9.40547C19.1495 10.3659 18.7257 11.3884 18.4357 12.4544L16.438 13.2234C16.1364 13.3395 15.9374 13.6293 15.9374 13.9525V17.8311C15.9374 18.1543 16.1364 18.4441 16.438 18.5602ZM17.4999 14.489L19.3737 13.7677C19.6142 13.6752 19.7934 13.47 19.853 13.2194C20.135 12.0348 20.6026 10.9068 21.2429 9.86699C21.378 9.64756 21.3962 9.37568 21.2917 9.14023L20.4761 7.30371L22.4599 5.31982L24.2966 6.13555C24.5318 6.24014 24.8039 6.22197 25.0232 6.08682C26.0632 5.44648 27.191 4.97891 28.3755 4.69707C28.626 4.6374 28.8311 4.45811 28.9236 4.21768L29.6451 2.34375H32.4507L33.1721 4.21768C33.2645 4.45811 33.4697 4.6374 33.7202 4.69707C34.9047 4.97891 36.0325 5.44648 37.0725 6.08682C37.292 6.22197 37.5639 6.24014 37.7991 6.13555L39.6358 5.31982L41.6197 7.30371L40.8042 9.13965C40.6997 9.37519 40.7179 9.64707 40.853 9.8665C41.4934 10.9063 41.9611 12.0345 42.243 13.2195C42.3026 13.4701 42.4819 13.6753 42.7224 13.7678L44.5958 14.4889V17.2945L42.7219 18.0158C42.4814 18.1083 42.3021 18.3135 42.2426 18.5641C41.9607 19.7483 41.4931 20.8763 40.8527 21.9163C40.7177 22.1357 40.6995 22.4075 40.804 22.643L41.6198 24.4797L39.636 26.4636L37.8 25.6481C37.5647 25.5436 37.2928 25.5617 37.0732 25.697C36.0335 26.3373 34.9054 26.805 33.7202 27.0869C33.4696 27.1465 33.2644 27.3259 33.172 27.5663L32.4508 29.4397H29.6452L28.9238 27.5658C28.8313 27.3254 28.6262 27.1461 28.3757 27.0864C27.1912 26.8046 26.0633 26.3369 25.0234 25.6967C24.8039 25.5615 24.532 25.5435 24.2968 25.6479L22.46 26.4637L20.4762 24.4798L21.2916 22.6438C21.3961 22.4084 21.3779 22.1365 21.2428 21.9171C20.6025 20.8774 20.1349 19.7493 19.8528 18.564C19.7933 18.3134 19.6139 18.1082 19.3735 18.0157L17.5 17.2946V14.489H17.4999ZM31.048 23.4372C35.2086 23.4372 38.5935 20.0523 38.5935 15.8918C38.5935 11.7312 35.2087 8.34639 31.048 8.34639C26.8874 8.34639 23.5025 11.7312 23.5025 15.8918C23.5025 20.0523 26.8874 23.4372 31.048 23.4372ZM27.1889 20.4586C27.5637 18.6476 29.1594 17.3254 31.048 17.3254C32.9369 17.3254 34.5325 18.6476 34.9073 20.4586C33.8646 21.3411 32.5179 21.8747 31.048 21.8747C29.5782 21.8747 28.2314 21.341 27.1889 20.4586ZM31.0481 15.7629C30.162 15.7629 29.4411 15.042 29.4411 14.1559C29.4411 13.2697 30.162 12.5488 31.0481 12.5488C31.9342 12.5488 32.6551 13.2697 32.6551 14.1559C32.6551 15.042 31.9342 15.7629 31.0481 15.7629ZM31.048 9.90889C34.3471 9.90889 37.031 12.5928 37.031 15.8918C37.031 17.0653 36.6901 18.1601 36.104 19.0848C35.5713 17.8452 34.6013 16.8521 33.3938 16.2852C33.9055 15.7221 34.2176 14.9747 34.2176 14.1559C34.2176 12.4082 32.7957 10.9863 31.0481 10.9863C29.3005 10.9863 27.8786 12.4082 27.8786 14.1559C27.8786 14.9747 28.1908 15.7221 28.7023 16.2852C27.4949 16.8521 26.5248 17.8452 25.9921 19.0848C25.4059 18.1601 25.065 17.0653 25.065 15.8918C25.065 12.5928 27.7489 9.90889 31.048 9.90889Z" fill="#C20B0B"/>
</svg>
