<svg width="55" height="55" viewBox="0 0 55 55" fill="none" xmlns="http://www.w3.org/2000/svg">
<path d="M48.3108 13.1909H48.2832V12.4546C48.2832 12.2552 48.204 12.0639 48.063 11.9229C47.9219 11.7819 47.7307 11.7026 47.5312 11.7026H43.1694V8.85167H44.0102C44.3186 9.69719 45.1283 10.3037 46.0792 10.3037C47.2945 10.3037 48.2832 9.31498 48.2832 8.09972C48.2832 6.88445 47.2945 5.89563 46.0792 5.89563C45.1283 5.89563 44.3185 6.50214 44.0102 7.34776H42.4174C42.0021 7.34776 41.6655 7.68442 41.6655 8.09972V11.7029H38.748C38.3327 11.7029 37.996 12.0395 37.996 12.4548C37.996 16.6689 34.5676 20.0975 30.3534 20.0975C26.1392 20.0975 22.7108 16.669 22.7108 12.4548C22.7108 12.0395 22.3741 11.7029 21.9588 11.7029H19.0412V8.09972C19.0412 7.68442 18.7046 7.34776 18.2893 7.34776H16.6965C16.3881 6.50214 15.5784 5.89563 14.6275 5.89563C13.4122 5.89563 12.4235 6.88435 12.4235 8.09972C12.4235 9.31487 13.4122 10.3037 14.6275 10.3037C15.5784 10.3037 16.3881 9.69719 16.6965 8.85167H17.5373V11.7028H13.1755C12.7602 11.7028 12.4235 12.0394 12.4235 12.4547V13.2663C10.7719 13.6081 9.52667 15.0739 9.52667 16.8253V28.4711C9.47994 28.4348 9.4345 28.3956 9.39121 28.3523C8.85743 27.8185 7.98903 27.8188 7.45536 28.3523L6.1272 29.6805C5.86863 29.939 5.7263 30.2828 5.7263 30.6484C5.7263 31.0141 5.86874 31.3578 6.1272 31.6163C6.51886 32.008 6.62585 32.5483 6.41326 33.0614C6.20067 33.5746 5.74306 33.881 5.18919 33.881C4.43444 33.881 3.82031 34.4951 3.82031 35.2498V37.1281C3.82031 37.8829 4.43434 38.4969 5.18919 38.4969C5.74316 38.4969 6.20078 38.8034 6.41326 39.3165C6.62585 39.8296 6.51886 40.3699 6.1273 40.7614C5.86874 41.0199 5.7263 41.3637 5.7263 41.7294C5.7263 42.0952 5.86874 42.4389 6.1272 42.6974L7.45515 44.0256C7.98882 44.5591 8.85722 44.5591 9.391 44.0256C9.78341 43.6332 10.3237 43.5255 10.8367 43.738C11.3494 43.9504 11.6556 44.4085 11.6556 44.9635C11.6556 45.7182 12.2697 46.3323 13.0244 46.3323H14.9026C15.6573 46.3323 16.2715 45.7182 16.2715 44.9635C16.2715 44.4096 16.5778 43.952 17.0909 43.7394C17.6042 43.5268 18.1444 43.6338 18.5361 44.0255C19.0699 44.559 19.9383 44.5591 20.472 44.0254L20.9908 43.5065H24.3971C24.3512 45.6158 23.8502 47.7251 23.2838 49.0201H20.9688C19.5867 49.0201 18.4623 50.1445 18.4623 51.5265C18.4623 52.9086 19.5867 54.0331 20.9688 54.0331H39.738C41.1201 54.0331 42.2445 52.9086 42.2445 51.5265C42.2445 50.1445 41.1201 49.0201 39.738 49.0201H37.4156C36.8219 47.7037 36.2881 45.5875 36.2223 43.5065H47.5457C49.5497 43.5065 51.18 41.8762 51.18 39.8722V16.0605C51.18 14.4782 49.8929 13.1909 48.3108 13.1909ZM46.0791 7.39954C46.4652 7.39954 46.7792 7.71364 46.7792 8.09972C46.7792 8.48579 46.4652 8.79979 46.0791 8.79979C45.693 8.79979 45.379 8.48579 45.379 8.09972C45.379 7.71364 45.6931 7.39954 46.0791 7.39954ZM14.6273 8.79968C14.2412 8.79968 13.9272 8.48568 13.9272 8.09961C13.9272 7.71354 14.2412 7.39943 14.6273 7.39943C15.0133 7.39943 15.3273 7.71354 15.3273 8.09961C15.3273 8.48568 15.0133 8.79968 14.6273 8.79968ZM13.9272 13.2067H21.2374C21.6209 17.8998 25.5629 21.6012 30.3533 21.6012C35.1437 21.6012 39.0857 17.8999 39.4692 13.2067L46.7793 13.2066V14.1724C46.7793 14.3799 46.6104 14.5488 46.4029 14.5488C44.528 14.5488 42.917 15.6263 42.1986 17.361C41.4801 19.0956 41.8572 20.9969 43.1829 22.3225C43.3298 22.4693 43.3298 22.7082 43.1829 22.8551L40.7537 25.2843C40.6067 25.4312 40.3678 25.4311 40.2211 25.2844C38.8954 23.9586 36.9944 23.5815 35.2596 24.3C33.5249 25.0184 32.4473 26.6295 32.4473 28.5043C32.4473 28.7118 32.2784 28.8807 32.0709 28.8807H28.6355C28.428 28.8807 28.2591 28.7118 28.2591 28.5043C28.2591 26.6275 27.182 25.0154 25.448 24.2973C24.8669 24.0567 24.2671 23.9391 23.6764 23.9391C22.5042 23.9391 21.3678 24.4021 20.4854 25.2843C20.3386 25.4311 20.0998 25.4312 19.9529 25.2844L17.5236 22.855C17.3768 22.7082 17.3768 22.4693 17.5236 22.3226C18.8493 20.9969 19.2264 19.0957 18.508 17.3611C17.7896 15.6264 16.1784 14.5488 14.3036 14.5488C14.0961 14.5488 13.9272 14.3799 13.9272 14.1724V13.2067ZM12.5298 14.7903C12.7862 15.5241 13.4836 16.0528 14.3037 16.0528C15.8039 16.0528 16.7414 17.0259 17.1187 17.9367C17.4959 18.8474 17.5211 20.1984 16.4603 21.2592C15.7273 21.9925 15.7273 23.1854 16.4603 23.9184L18.8897 26.3479C19.6229 27.0811 20.8157 27.0808 21.5488 26.3478C22.6112 25.2853 23.9622 25.3098 24.8725 25.6868C25.7827 26.0638 26.7552 27.0019 26.7552 28.5044C26.7552 29.5411 27.5988 30.3847 28.6355 30.3847H32.0709C33.1077 30.3847 33.9512 29.5411 33.9512 28.5044C33.9512 27.0044 34.9243 26.0668 35.835 25.6895C36.7458 25.3122 38.0968 25.2872 39.1576 26.348C39.8909 27.0812 41.0838 27.0809 41.8168 26.3479L44.2462 23.9187C44.9793 23.1855 44.9793 21.9926 44.2462 21.2592C43.1854 20.1985 43.2105 18.8475 43.5878 17.9367C43.965 17.0259 44.9025 16.0529 46.4027 16.0529C47.2581 16.0529 47.9806 15.4781 48.2076 14.6949H48.3106C49.0635 14.6949 49.6759 15.3075 49.6759 16.0606V36.2694H24.1071V35.2498C24.1071 34.4951 23.493 33.881 22.7383 33.881C22.1844 33.881 21.7268 33.5746 21.5142 33.0614C21.3016 32.5483 21.4086 32.008 21.8002 31.6164C22.0587 31.358 22.2012 31.0142 22.2012 30.6484C22.2012 30.2829 22.0588 29.939 21.8003 29.6803L20.4721 28.3523C19.9383 27.8187 19.0699 27.8187 18.5362 28.3523C18.1445 28.7439 17.6042 28.851 17.0911 28.6383C16.5779 28.4258 16.2716 27.9681 16.2716 27.4142C16.2716 26.6594 15.6576 26.0454 14.9027 26.0454H13.0245C12.2698 26.0454 11.6557 26.6594 11.6557 27.4142C11.6557 27.894 11.4255 28.3013 11.0304 28.54V16.8252C11.0304 15.8701 11.6621 15.0599 12.5298 14.7903ZM19.5021 42.8688C18.684 42.1209 17.5519 41.9211 16.5155 42.3501C15.4792 42.7794 14.8203 43.7212 14.7707 44.8285H13.1566C13.1069 43.7202 12.4482 42.7776 11.4122 42.3486C10.3762 41.9195 9.24394 42.12 8.42517 42.8688L7.2837 41.7273C8.03168 40.9093 8.23159 39.7772 7.80244 38.7408C7.37318 37.7046 6.43142 37.0456 5.324 36.996V35.3818C6.43142 35.3321 7.37318 34.6732 7.80244 33.6369C8.2317 32.6007 8.03168 31.4687 7.2837 30.6505L8.42517 29.509C9.24329 30.2569 10.3752 30.4567 11.4116 30.0277C12.4478 29.5985 13.1067 28.6566 13.1565 27.5493H14.7707C14.8203 28.6567 15.4793 29.5985 16.5155 30.0277C17.5519 30.457 18.6838 30.2571 19.5021 29.509L20.6435 30.6505C19.8956 31.4686 19.6955 32.6006 20.1248 33.637C20.5541 34.6732 21.4958 35.3321 22.6032 35.3818V36.996C21.4958 37.0456 20.554 37.7046 20.1248 38.7408C19.6955 39.7771 19.8956 40.9091 20.6435 41.7273L19.5021 42.8688ZM40.7406 51.5267C40.7406 52.0795 40.2908 52.5294 39.738 52.5294H20.9688C20.416 52.5294 19.9662 52.0795 19.9662 51.5267C19.9662 50.9739 20.416 50.5243 20.9688 50.5243H39.738C40.2909 50.5242 40.7406 50.9739 40.7406 51.5267ZM35.7867 49.0203H24.905C25.4867 47.441 25.8609 45.3905 25.9006 43.5066H34.7187C34.7744 45.3697 35.1757 47.4214 35.7867 49.0203ZM47.5457 42.0027H22.1739C22.1918 41.9137 22.2012 41.8222 22.2012 41.7293C22.2012 41.3637 22.0587 41.0199 21.8003 40.7613C21.4086 40.3697 21.3016 39.8295 21.5142 39.3163C21.7268 38.8031 22.1843 38.4968 22.7383 38.4968C23.2598 38.4968 23.714 38.2034 23.9449 37.7732H49.6761V39.8723C49.6761 41.0471 48.7205 42.0027 47.5457 42.0027ZM32.6898 39.888C32.6898 40.3033 32.3532 40.64 31.9379 40.64H28.7686C28.3533 40.64 28.0167 40.3033 28.0167 39.888C28.0167 39.4727 28.3533 39.136 28.7686 39.136H31.9379C32.3532 39.136 32.6898 39.4727 32.6898 39.888ZM18.2892 5.37475C19.2401 5.37475 20.0498 4.76824 20.3582 3.92272H23.5693V12.4548C23.5693 16.1955 26.6127 19.2387 30.3533 19.2387C34.0939 19.2387 37.1373 16.1955 37.1373 12.4548V3.92272H40.3483C40.6567 4.76835 41.4664 5.37485 42.4173 5.37485C43.6326 5.37485 44.6214 4.38614 44.6214 3.17077C44.6214 1.9554 43.6326 0.966797 42.4172 0.966797C41.4663 0.966797 40.6565 1.5733 40.3482 2.41893H36.3853C35.97 2.41893 35.6333 2.75559 35.6333 3.17088V11.703H31.1051V10.1687C31.9507 9.86025 32.5572 9.05051 32.5572 8.09972C32.5572 6.88445 31.5685 5.89563 30.3532 5.89563C29.1379 5.89563 28.1491 6.88435 28.1491 8.09972C28.1491 9.05062 28.7556 9.86036 29.6012 10.1688V11.7029H25.0731V3.17077C25.0731 2.75548 24.7364 2.41882 24.3211 2.41882H20.3581C20.0498 1.5733 19.24 0.966797 18.2892 0.966797C17.0739 0.966797 16.0852 1.95551 16.0852 3.17077C16.0852 4.38604 17.0739 5.37475 18.2892 5.37475ZM42.4172 2.4707C42.8033 2.4707 43.1174 2.7848 43.1174 3.17088C43.1174 3.55695 42.8033 3.87105 42.4172 3.87105C42.0311 3.87105 41.7171 3.55695 41.7171 3.17088C41.7171 2.7848 42.0312 2.4707 42.4172 2.4707ZM30.3532 7.39954C30.7393 7.39954 31.0533 7.71364 31.0533 8.09972C31.0533 8.48579 30.7393 8.79979 30.3532 8.79979C29.9671 8.79979 29.653 8.48579 29.653 8.09972C29.653 7.71364 29.9672 7.39954 30.3532 7.39954ZM35.58 13.2068C35.214 15.7634 33.0095 17.7348 30.3533 17.7348C27.6971 17.7348 25.4926 15.7633 25.1266 13.2068H35.58ZM18.2892 2.4707C18.6753 2.4707 18.9892 2.7847 18.9892 3.17077C18.9892 3.55685 18.6753 3.87084 18.2892 3.87084C17.9031 3.87084 17.5891 3.55685 17.5891 3.17077C17.5891 2.7847 17.9031 2.4707 18.2892 2.4707ZM13.9636 30.8475C11.0183 30.8475 8.62207 33.2436 8.62207 36.1889C8.62207 39.1342 11.0182 41.5305 13.9636 41.5305C16.9089 41.5305 19.3051 39.1342 19.3051 36.1889C19.3051 33.2436 16.9089 30.8475 13.9636 30.8475ZM13.9636 40.0265C11.8475 40.0265 10.126 38.3049 10.126 36.1888C10.126 34.0727 11.8475 32.3513 13.9636 32.3513C16.0796 32.3513 17.8012 34.0727 17.8012 36.1888C17.8012 38.3049 16.0796 40.0265 13.9636 40.0265Z" fill="#002FF5"/>
</svg>
