<svg width="50" height="50" viewBox="0 0 50 50" fill="none" xmlns="http://www.w3.org/2000/svg">
<g clip-path="url(#clip0_31_11)">
<path d="M7.15459 34.3952H0.675781C0.302539 34.3952 9.74395e-05 34.6976 9.74395e-05 35.0709V49.3242C9.74395e-05 49.6974 0.302539 49.9999 0.675781 49.9999H7.15449C7.52773 49.9999 7.83018 49.6974 7.83018 49.3242V35.0708C7.83018 34.6975 7.52783 34.3952 7.15459 34.3952ZM6.47891 48.6485H1.35146V35.7464H6.47881L6.47891 48.6485ZM21.211 25.6486H14.7323C14.3591 25.6486 14.0566 25.951 14.0566 26.3243V49.3243C14.0566 49.6975 14.3591 50 14.7323 50H21.211C21.5843 50 21.8867 49.6975 21.8867 49.3243V26.3242C21.8867 25.9509 21.5843 25.6486 21.211 25.6486ZM20.5354 48.6485H15.408V26.9999H20.5354V48.6485ZM35.2676 19.7095H28.7889C28.4156 19.7095 28.1132 20.012 28.1132 20.3852V49.3242C28.1132 49.6974 28.4156 49.9999 28.7889 49.9999H35.2676C35.6408 49.9999 35.9433 49.6974 35.9433 49.3242V20.3852C35.9433 20.012 35.6408 19.7095 35.2676 19.7095ZM34.5919 48.6485H29.4646V21.0609H34.5919V48.6485ZM49.3243 12.3669H42.8456C42.4724 12.3669 42.1699 12.6693 42.1699 13.0425V49.3242C42.1699 49.6974 42.4724 49.9999 42.8456 49.9999H49.3243C49.6976 49.9999 50 49.6974 50 49.3242V13.0425C50 12.6693 49.6976 12.3669 49.3243 12.3669ZM48.6486 48.6485H43.5213V13.7182H48.6486V48.6485ZM0.0377927 27.5484C-0.0849612 27.1961 0.101367 26.8109 0.453711 26.6881C17.0401 20.9122 31.5608 12.4205 43.6517 1.45309L40.2139 1.63951C39.8439 1.65953 39.5228 1.37408 39.5028 1.00143C39.4826 0.628869 39.7681 0.310607 40.1409 0.290295L45.4706 0.00103679C45.6726 -0.0101937 45.8693 0.0702751 46.006 0.219884C46.1426 0.369494 46.205 0.572424 46.1758 0.773009L45.4068 6.05475C45.3578 6.39078 45.069 6.63297 44.7391 6.63297C44.7065 6.63297 44.6739 6.63072 44.6407 6.62594C44.2717 6.57203 44.0158 6.22916 44.0695 5.85983L44.5664 2.44762C32.3392 13.5407 17.6602 22.127 0.897949 27.9643C0.824511 27.9898 0.749512 28.0021 0.675781 28.0021C0.396289 28.0022 0.134961 27.8273 0.0377927 27.5484Z" fill="#DF0A0A"/>
</g>
<defs>
<clipPath id="clip0_31_11">
<rect width="50" height="50" fill="white"/>
</clipPath>
</defs>
</svg>
