<svg width="48" height="40" viewBox="0 0 48 40" fill="none" xmlns="http://www.w3.org/2000/svg">
<path d="M32.5 25C33.8281 25 35 26.1719 35 27.5V37.5C35 38.9062 33.8281 40 32.5 40H27.5C26.0938 40 25 38.9062 25 37.5V27.5C25 26.1719 26.0938 25 27.5 25H32.5ZM31.25 36.25V28.75H28.75V36.25H31.25ZM45 15C46.3281 15 47.5 16.1719 47.5 17.5V37.5C47.5 38.9062 46.3281 40 45 40H40C38.5938 40 37.5 38.9062 37.5 37.5V17.5C37.5 16.1719 38.5938 15 40 15H45ZM43.75 36.25V18.75H41.25V36.25H43.75ZM20 15C21.3281 15 22.5 16.1719 22.5 17.5V37.5C22.5 38.9062 21.3281 40 20 40H15C13.5938 40 12.5 38.9062 12.5 37.5V17.5C12.5 16.1719 13.5938 15 15 15H20ZM18.75 36.25V18.75H16.25V36.25H18.75ZM7.5 27.5C8.82812 27.5 10 28.6719 10 30V37.5C10 38.9062 8.82812 40 7.5 40H2.5C1.09375 40 0 38.9062 0 37.5V30C0 28.6719 1.09375 27.5 2.5 27.5H7.5ZM6.25 36.25V31.25H3.75V36.25H6.25ZM5 20C2.89062 20 1.25 18.3594 1.25 16.25C1.25 14.2188 2.89062 12.5 5 12.5C5.3125 12.5 5.625 12.5781 5.9375 12.6562L13.8281 4.76562C13.75 4.45312 13.75 4.14062 13.75 3.75C13.75 1.71875 15.3906 0 17.5 0C19.5312 0 21.25 1.71875 21.25 3.75C21.25 3.98438 21.1719 4.14062 21.1719 4.375L28.5938 10.3125C29.0625 10.1562 29.4531 10 29.9219 10C30.4688 10 30.8594 10.1562 31.3281 10.3125L38.75 4.375C38.75 4.14062 38.75 3.98438 38.75 3.75C38.75 1.71875 40.3906 0 42.5 0C44.5312 0 46.25 1.71875 46.25 3.75C46.25 5.85938 44.5312 7.5 42.5 7.5C41.9531 7.5 41.5625 7.42188 41.0938 7.26562L33.6719 13.2031C33.6719 13.4375 33.75 13.5938 33.75 13.75C33.75 15.8594 32.0312 17.5 30 17.5C27.8906 17.5 26.25 15.8594 26.25 13.75C26.25 13.5938 26.25 13.4375 26.25 13.2031L18.8281 7.26562C18.3594 7.42188 17.9688 7.5 17.5 7.5C17.1094 7.5 16.7969 7.5 16.4844 7.42188L8.59375 15.3125C8.67188 15.625 8.75 15.9375 8.75 16.25C8.75 18.3594 7.03125 20 5 20Z" fill="#DF0A0A"/>
</svg>
