<svg width="50" height="40" viewBox="0 0 50 40" fill="none" xmlns="http://www.w3.org/2000/svg">
<path d="M8.75 15C8.75 16.0938 7.89062 16.875 6.875 16.875H1.875C0.78125 16.875 0 16.0938 0 15C0 13.9844 0.78125 13.125 1.875 13.125H6.875C7.89062 13.125 8.75 13.9844 8.75 15ZM8.35938 22.5C8.59375 22.3438 8.90625 22.2656 9.21875 22.2656C10.2344 22.2656 11.0938 23.0469 11.0938 24.1406C11.0938 24.7656 10.7812 25.3906 10.2344 25.7031L5.85938 28.2031C5.625 28.3594 5.23438 28.5156 4.92188 28.5156C3.90625 28.5156 3.04688 27.6562 3.04688 26.6406C3.04688 25.9375 3.4375 25.3125 3.98438 25L8.35938 22.5ZM10.2344 4.375C10.7812 4.6875 11.1719 5.3125 11.1719 6.01562C11.1719 7.03125 10.3125 7.89062 9.29688 7.89062C8.90625 7.89062 8.59375 7.73438 8.35938 7.57812L3.98438 5.07812C3.4375 4.76562 3.04688 4.14062 3.04688 3.4375C3.04688 2.42188 3.90625 1.5625 4.92188 1.5625C5.23438 1.5625 5.625 1.71875 5.85938 1.875L10.2344 4.375ZM40.625 7.8125C39.6094 7.8125 38.75 7.03125 38.75 6.01562C38.75 5.3125 39.1406 4.6875 39.6875 4.375L44.0625 1.875C44.2969 1.71875 44.6094 1.64062 45 1.64062C46.0156 1.64062 46.875 2.42188 46.875 3.51562C46.875 4.14062 46.4844 4.76562 45.9375 5.07812L41.5625 7.57812C41.3281 7.73438 41.0156 7.8125 40.625 7.8125ZM48.125 13.125C49.1406 13.125 50 13.9844 50 15C50 16.0938 49.1406 16.875 48.125 16.875H43.125C42.0312 16.875 41.25 16.0938 41.25 15C41.25 13.9844 42.0312 13.125 43.125 13.125H48.125ZM45.9375 25C46.4844 25.3125 46.7969 25.9375 46.7969 26.5625C46.7969 27.6562 46.0156 28.4375 44.9219 28.4375C44.6094 28.4375 44.2969 28.3594 44.0625 28.2031L39.6875 25.7031C39.1406 25.3906 38.75 24.7656 38.75 24.0625C38.75 23.0469 39.6094 22.1875 40.625 22.1875C41.0156 22.1875 41.3281 22.3438 41.5625 22.5L45.9375 25ZM25 0V0.078125C32.5781 0.078125 38.6719 6.17188 38.6719 13.8281C38.6719 17.2656 37.4219 20.3906 35.3125 22.8125C33.9844 24.2969 31.9531 27.4219 31.25 30H27.5C27.5 29.6094 27.5 29.2969 27.6562 28.9062C28.0469 27.5 29.4531 23.8281 32.5 20.3906C34.0625 18.5938 34.9219 16.3281 34.9219 13.75C34.9219 8.28125 30.4688 3.75 25 3.75C19.6094 3.75 14.9219 8.04688 15 13.75C15 13.8281 15 13.8281 15 13.8281C15 16.3281 15.9375 18.5938 17.4219 20.3906C20.5469 23.9062 21.875 27.5 22.2656 28.9062C22.4219 29.2969 22.4219 29.6094 22.4219 30H18.6719C17.9688 27.4219 15.9375 24.2969 14.6094 22.8125C12.5 20.3906 11.25 17.2656 11.25 13.8281V13.75C11.25 6.48438 16.9531 0 25 0ZM25 6.25C25.625 6.25 26.25 6.875 26.25 7.5C26.25 8.20312 25.625 8.75 25 8.75C22.1875 8.82812 20 11.0156 20 13.75C20 14.4531 19.375 15 18.75 15C18.0469 15 17.5 14.4531 17.5 13.75C17.5 9.6875 20.8594 6.32812 25 6.25ZM18.75 35.9375V32.5H31.25L31.1719 35.9375C31.1719 36.1719 31.0938 36.4062 31.0156 36.5625L29.0625 39.4531C28.8281 39.8438 28.4375 40 28.0469 40H21.875C21.4844 40 21.0938 39.8438 20.8594 39.4531L18.9062 36.6406C18.8281 36.4062 18.75 36.1719 18.75 35.9375Z" fill="#DF0A0A"/>
</svg>
