<svg width="46" height="46" viewBox="0 0 46 46" fill="none" xmlns="http://www.w3.org/2000/svg">
<circle cx="23" cy="23" r="23" fill="#00A9A4" fill-opacity="0.13"/>
<path d="M10.7901 27.5388C10.8735 27.6946 11.0358 27.7918 11.2126 27.7918H13.6084V34.7877C13.6084 35.0523 13.8229 35.2668 14.0876 35.2668H31.9126C32.1772 35.2668 32.3917 35.0523 32.3917 34.7877V27.7918H34.7876C34.9643 27.7918 35.1267 27.6946 35.21 27.5388C35.2934 27.383 35.2843 27.1939 35.1862 27.0469L32.3112 22.7344C32.2224 22.6011 32.0728 22.521 31.9126 22.521H30.0917C29.8271 22.521 29.6126 22.7355 29.6126 23.0002C29.6126 23.2648 29.8271 23.4793 30.0917 23.4793H31.6561L33.8922 26.8335H26.1315L23.8954 23.4793H25.7792C26.0439 23.4793 26.2584 23.2648 26.2584 23.0002C26.2584 22.7355 26.0439 22.521 25.7792 22.521C25.232 22.521 14.6171 22.521 14.0876 22.521C13.9273 22.521 13.7777 22.6011 13.6889 22.7344L10.8139 27.0469C10.7159 27.1939 10.7067 27.383 10.7901 27.5388ZM14.5667 27.7918H20.1251C20.2853 27.7918 20.4349 27.7118 20.5237 27.5785L22.5209 24.5827V34.3085H14.5667V27.7918ZM25.4764 27.5785C25.5652 27.7118 25.7149 27.7918 25.8751 27.7918H31.4334V34.3085H23.4792V24.5827L25.4764 27.5785ZM14.344 23.4793H22.1047L19.8686 26.8335H12.1079L14.344 23.4793Z" fill="#00A9A4"/>
<path d="M20.1247 11.9328C19.7333 11.3576 19.0576 10.7334 17.9684 10.7334C16.4329 10.7334 15.333 11.9708 15.333 13.4632C15.333 15.1201 16.674 16.2084 18.7038 17.8555C19.0595 18.1441 19.4272 18.4426 19.818 18.7682C19.9068 18.8422 20.0157 18.8792 20.1247 18.8792C20.2336 18.8792 20.3426 18.8422 20.4314 18.7682C20.8221 18.4426 21.1899 18.1441 21.5455 17.8555C23.5754 16.2084 24.9163 15.1201 24.9163 13.4632C24.9163 11.9696 23.8153 10.7334 22.2809 10.7334C21.1917 10.7334 20.5161 11.3576 20.1247 11.9328ZM23.958 13.4632C23.958 14.6636 22.7581 15.6374 20.9417 17.1114C20.6777 17.3256 20.4071 17.5452 20.1247 17.7779C19.8422 17.5452 19.5716 17.3256 19.3076 17.1114C17.4913 15.6374 16.2913 14.6637 16.2913 13.4632C16.2913 12.4533 17.0123 11.6917 17.9684 11.6917C19.2194 11.6917 19.6471 13.0846 19.6642 13.1421C19.7233 13.3473 19.9111 13.4886 20.1247 13.4886C20.3382 13.4886 20.526 13.3473 20.5851 13.1421C20.5893 13.1276 21.0174 11.6917 22.2809 11.6917C23.237 11.6917 23.958 12.4533 23.958 13.4632Z" fill="#00A9A4"/>
<path d="M28.7497 20.3167C28.8623 20.3167 28.9749 20.2772 29.0653 20.1981C29.3255 19.9703 29.5709 19.7613 29.8081 19.5591C31.1409 18.4233 32.1038 17.6026 32.1038 16.3818C32.1038 15.2297 31.2619 14.3271 30.1872 14.3271C29.5032 14.3271 29.0447 14.675 28.7497 15.0475C28.4547 14.675 27.9962 14.3271 27.3122 14.3271C26.2374 14.3271 25.3955 15.2297 25.3955 16.3818C25.3955 17.6026 26.3585 18.4233 27.6913 19.5591C27.9285 19.7613 28.1738 19.9703 28.4341 20.1981C28.5244 20.2772 28.6371 20.3167 28.7497 20.3167ZM26.3538 16.3818C26.3538 15.8503 26.6897 15.2855 27.3122 15.2855C28.0185 15.2855 28.2763 16.1517 28.2882 16.193C28.346 16.4 28.5343 16.5445 28.7493 16.5445C28.9652 16.5445 29.154 16.4015 29.2111 16.1933C29.2217 16.1563 29.479 15.2855 30.1872 15.2855C30.8097 15.2855 31.1455 15.8503 31.1455 16.3818C31.1455 17.1602 30.4081 17.7886 29.1865 18.8297C29.0444 18.9508 28.8994 19.0743 28.7497 19.2032C28.5999 19.0743 28.455 18.9508 28.3129 18.8297C27.0912 17.7886 26.3538 17.1602 26.3538 16.3818Z" fill="#00A9A4"/>
<path d="M27.9352 23.4793C28.1999 23.4793 28.4144 23.2648 28.4144 23.0002C28.4144 22.7355 28.1999 22.521 27.9352 22.521C27.6706 22.521 27.4561 22.7355 27.4561 23.0002C27.4561 23.2648 27.6706 23.4793 27.9352 23.4793Z" fill="#00A9A4"/>
</svg>
