<svg width="50" height="50" viewBox="0 0 50 50" fill="none" xmlns="http://www.w3.org/2000/svg">
<g clip-path="url(#clip0_30_669)">
<path d="M49.2882 13.1296C49.2881 13.1296 49.2881 13.1296 49.288 13.1296L49.2863 13.128L46.0589 12.6675C45.6053 12.6029 45.29 12.1828 45.3546 11.7292C45.3856 11.5112 45.502 11.3146 45.6781 11.1824L48.2866 9.22612C48.6532 8.95119 48.7274 8.43121 48.4525 8.06461L45.4657 4.08228C45.1908 3.71568 44.6708 3.64142 44.3042 3.91635L41.6966 5.87267C41.3316 6.14967 40.8112 6.07832 40.5342 5.71327C40.3997 5.53604 40.342 5.31213 40.3742 5.09197L40.8355 1.86462C40.9005 1.41101 40.5855 0.990685 40.132 0.925558C40.1317 0.925558 40.1314 0.925454 40.1311 0.925454L35.2063 0.221909C34.7528 0.156782 34.3322 0.471634 34.2671 0.925247C34.2671 0.92535 34.2671 0.92535 34.2671 0.925454L33.8058 4.1528C33.7412 4.60641 33.3211 4.92178 32.8675 4.85717C32.6495 4.82617 32.4529 4.7097 32.3207 4.53361L30.3653 1.92518C30.0903 1.55858 29.5703 1.48433 29.2037 1.75925L26.7106 3.63012C25.5827 3.51023 24.4453 3.51023 23.3174 3.63012C15.9308 4.47439 10.1382 10.3651 9.41821 17.7649C9.39581 17.9997 9.38751 18.2328 9.3759 18.466H9.127C8.73333 18.4667 8.39431 18.744 8.3156 19.1297L7.74231 21.8559L5.44584 20.2721C5.11626 20.0447 4.67115 20.0852 4.38803 20.3683L1.89907 22.8573C1.61637 23.1403 1.57593 23.5848 1.80284 23.9143L3.37917 26.2066L0.652108 26.7799C0.270676 26.8635 -0.000827756 27.2017 1.8962e-06 27.5921V30.9107C-0.000205517 31.3032 0.27472 31.6421 0.658745 31.723L3.38581 32.2962L1.80947 34.5886C1.58256 34.9181 1.62301 35.3625 1.90571 35.6456L4.39467 38.1345C4.67779 38.4176 5.12289 38.4582 5.45247 38.2307L7.7448 36.6503L8.31809 39.3773C8.3968 39.763 8.73582 40.0403 9.12949 40.041H12.4481C12.8405 40.0413 13.1794 39.7663 13.2603 39.3823L13.8336 36.6552L16.1259 38.2316C16.4554 38.4585 16.8999 38.418 17.1829 38.1353L18.4714 36.8427V39.2072C18.4751 40.3875 19.1074 41.4763 20.1307 42.0646V46.6741C20.1307 48.5069 21.6165 49.9927 23.4493 49.9927H26.7679C28.6007 49.9927 30.0865 48.5069 30.0865 46.6741V42.0646C31.1098 41.4763 31.7421 40.3875 31.7458 39.2072V35.9235C31.7683 34.5418 32.4911 33.2662 33.6648 32.5368C34.3533 32.0902 35.0062 31.5908 35.6178 31.0435L34.511 29.8073C33.964 30.2976 33.3795 30.7445 32.763 31.1439C31.1156 32.1778 30.1071 33.9786 30.0865 35.9235V39.2072C30.0865 40.1237 29.3436 40.8666 28.4272 40.8666H21.79C20.8735 40.8666 20.1307 40.1237 20.1307 39.2072V35.8546C20.1115 33.9465 19.1189 32.1805 17.499 31.1721C10.9233 27.0402 8.94209 18.3601 13.074 11.7844C15.6376 7.70443 20.1117 5.22118 24.9302 5.20397C24.9179 5.23352 24.907 5.2637 24.8979 5.2944C24.867 5.51218 24.9241 5.73339 25.0563 5.90917L27.0118 8.51677C27.218 8.7836 27.2378 9.1501 27.0616 9.43768C26.8919 9.72702 26.5639 9.88486 26.2319 9.83674L23.0046 9.37546C22.551 9.31043 22.1306 9.62539 22.0655 10.0789C22.0655 10.0792 22.0654 10.0795 22.0654 10.0798L21.361 15.0071C21.296 15.4606 21.611 15.8811 22.0645 15.9462C22.0648 15.9462 22.0651 15.9463 22.0654 15.9463L25.2928 16.4076C25.7464 16.4722 26.0617 16.8923 25.9971 17.3459C25.9661 17.5639 25.8497 17.7605 25.6736 17.8927L23.066 19.8482C22.6994 20.1231 22.6251 20.6431 22.9 21.0097L25.8868 24.992C26.1617 25.3586 26.6817 25.4328 27.0483 25.1579L29.6567 23.2024C30.0236 22.928 30.5436 23.003 30.818 23.37C30.9493 23.5456 31.0058 23.7661 30.975 23.9831L30.5146 27.2105C30.4495 27.664 30.7643 28.0845 31.2179 28.1496C31.218 28.1496 31.218 28.1496 31.2181 28.1496L36.1463 28.854C36.1851 28.859 36.2242 28.8615 36.2632 28.8615C36.6763 28.862 37.0267 28.5586 37.0854 28.1496L37.5459 24.9223C37.6105 24.4687 38.0306 24.1533 38.4842 24.2179C38.7022 24.2489 38.8988 24.3654 39.031 24.5415L40.9873 27.1491C41.2622 27.5157 41.7822 27.5899 42.1488 27.315L46.1311 24.3283C46.4977 24.0533 46.572 23.5334 46.2971 23.1668L44.3416 20.5592C44.1363 20.2919 44.1165 19.926 44.2918 19.6383C44.4578 19.3451 44.7889 19.1862 45.1214 19.24L48.3488 19.7005C48.8023 19.7656 49.2228 19.4506 49.288 18.9971C49.288 18.997 49.288 18.997 49.288 18.9969L49.9915 14.0688C50.0566 13.6152 49.7418 13.1948 49.2882 13.1296ZM21.79 42.5259H28.4272V44.1852H21.79V42.5259ZM21.79 45.8445H28.4272V46.6741C28.4272 47.5906 27.6843 48.3334 26.7679 48.3334H23.4493C22.5328 48.3334 21.79 47.5906 21.79 46.6741V45.8445ZM15.1851 31.5371C15.6381 31.9076 16.1114 32.2525 16.603 32.57C17.3869 33.0654 17.977 33.8149 18.2747 34.6931L16.4951 36.4694L14.772 35.2813C14.0174 34.7614 12.9842 34.9515 12.4641 35.7061C12.3394 35.8871 12.2519 36.091 12.2067 36.306L11.7719 38.3776H9.79985L9.36511 36.3093C9.17636 35.4125 8.29641 34.8385 7.39966 35.0273C7.18468 35.0725 6.98079 35.16 6.79983 35.2847L5.07581 36.4694L3.56419 34.9611L4.75142 33.2387C5.27192 32.4845 5.08234 31.4511 4.32809 30.9306C4.14702 30.8057 3.94292 30.7179 3.72763 30.6726L1.65931 30.2371V28.2658L3.72763 27.8302C4.62407 27.6401 5.19673 26.7594 5.00664 25.8628C4.96153 25.6501 4.87514 25.4484 4.75225 25.2691L3.56419 23.5418L5.07581 22.0335L6.80066 23.2215C7.55554 23.741 8.58876 23.5502 9.10823 22.7953C9.23268 22.6145 9.32 22.4108 9.36511 22.1961L9.5103 21.5058C9.64325 22.4618 9.86342 23.4034 10.1682 24.3191C7.43835 24.6446 5.48919 27.1215 5.81462 29.8514C6.14005 32.5812 8.61697 34.5304 11.3468 34.205C12.9902 34.009 14.4287 33.0091 15.1851 31.5371ZM13.8967 30.3681C13.2771 32.0902 11.379 32.9839 9.65694 32.3645C7.93489 31.7449 7.04115 29.8468 7.66059 28.1248C8.13453 26.8074 9.38533 25.9299 10.7854 25.9328C10.7962 25.9328 10.8061 25.9328 10.8169 25.9328C11.5799 27.5779 12.6218 29.0784 13.8967 30.3681ZM47.7581 17.9383L45.3521 17.5948C43.9912 17.4005 42.7306 18.3462 42.5362 19.7069C42.4429 20.3604 42.613 21.0242 43.0091 21.5523L44.4668 23.4961L41.812 25.4873L40.3534 23.5442C39.5288 22.4444 37.9687 22.2214 36.869 23.046C36.3409 23.442 35.9917 24.0316 35.8982 24.685L35.5622 27.0943L32.2776 26.6247L32.6211 24.2188C32.8159 22.858 31.8708 21.597 30.51 21.4022C29.8562 21.3085 29.192 21.4786 28.6636 21.875L26.7198 23.3327L24.7286 20.6778L26.6716 19.2193C27.7715 18.3946 27.9945 16.8345 27.1699 15.7348C26.7739 15.2068 26.1843 14.8576 25.5309 14.764L23.1249 14.4206L23.5945 11.136L26.0005 11.4795C27.3612 11.6743 28.6223 10.7291 28.817 9.36841C28.9107 8.71454 28.7406 8.0504 28.3442 7.52201L26.8815 5.57648L29.5364 3.58532L30.995 5.52919C31.8196 6.629 33.3797 6.85207 34.4794 6.0274C35.0075 5.63145 35.3566 5.04187 35.4502 4.38842L35.7937 1.98243L39.0783 2.45118L38.7348 4.85717C38.5404 6.21801 39.486 7.47867 40.8469 7.67301C41.5003 7.76635 42.1641 7.59627 42.6922 7.20011L44.6361 5.74241L46.6273 8.3973L44.6834 9.85583C43.5836 10.6805 43.3605 12.2406 44.1852 13.3403C44.5811 13.8683 45.1707 14.2175 45.8242 14.3111L48.2301 14.6545L47.7581 17.9383Z" fill="#DF0A0A"/>
<path d="M35.675 7.89941C32.0094 7.89941 29.0378 10.871 29.0378 14.5366C29.0378 18.2022 32.0094 21.1738 35.675 21.1738C39.3406 21.1738 42.3122 18.2022 42.3122 14.5366C42.3081 10.8727 39.339 7.90346 35.675 7.89941ZM35.675 19.5145C32.9258 19.5145 30.6971 17.2859 30.6971 14.5366C30.6971 11.7874 32.9258 9.55872 35.675 9.55872C38.4243 9.55872 40.6529 11.7874 40.6529 14.5366C40.6497 17.2845 38.4229 19.5113 35.675 19.5145Z" fill="#DF0A0A"/>
<path d="M25.9382 36.7183H24.2789V39.2072H25.9382V36.7183Z" fill="#DF0A0A"/>
<path d="M21.4797 28.57C16.3581 26.5693 13.8282 20.7956 15.829 15.674C16.6043 13.6895 17.9958 12.006 19.7988 10.8711L18.9119 9.46729C13.4843 12.8866 11.8562 20.0584 15.2756 25.486C16.5998 27.588 18.5632 29.2101 20.8774 30.114C22.9258 30.8988 24.2784 32.8651 24.2789 35.0587H25.9382C25.9408 32.1807 24.1672 29.5995 21.4797 28.57Z" fill="#DF0A0A"/>
<path d="M46.6795 30.9106H40.8719V32.5699H46.6795V30.9106Z" fill="#DF0A0A"/>
<path d="M40.5735 35.2505L39.5114 36.5254L44.4896 40.673L45.5518 39.3981L40.5735 35.2505Z" fill="#DF0A0A"/>
<path d="M37.5533 37.5479H35.894V43.3554H37.5533V37.5479Z" fill="#DF0A0A"/>
<path d="M7.48392 12.6828L0.847168 14.3418L1.24935 15.9507L7.8861 14.2917L7.48392 12.6828Z" fill="#DF0A0A"/>
<path d="M3.18925 4.51769L2.22534 5.86719L8.03245 10.015L8.99635 8.66552L3.18925 4.51769Z" fill="#DF0A0A"/>
<path d="M10.9414 0.00695925L9.33389 0.417969L11.0307 7.05467L12.6383 6.64366L10.9414 0.00695925Z" fill="#DF0A0A"/>
</g>
<defs>
<clipPath id="clip0_30_669">
<rect width="50" height="50" fill="white"/>
</clipPath>
</defs>
</svg>
