<svg width="50" height="50" viewBox="0 0 50 50" fill="none" xmlns="http://www.w3.org/2000/svg">
<g clip-path="url(#clip0_30_715)">
<path d="M40.6818 16.8941C40.7576 16.8183 40.9849 16.4395 40.7576 16.0607L37.0455 9.24256C36.9697 9.1668 36.9697 9.09104 36.8182 9.01528C36.6667 8.93953 36.5152 8.86377 36.3637 8.86377H25.0758H13.6364C13.3334 8.86377 13.1061 9.01528 12.9546 9.24256C12.8788 9.31831 9.16669 16.1365 9.24244 16.0607C9.16669 16.3638 9.09093 16.591 9.3182 16.8941L24.394 36.3638C24.4697 36.5153 24.7727 36.6668 25 36.6668C25.2273 36.6668 25.4546 36.5153 25.6061 36.3638L40.6818 16.8941ZM26.6667 10.3789H34.697L30.6818 15.2274L26.6667 10.3789ZM29.0909 15.682H20.9849L25.0758 10.8335L29.0909 15.682ZM19.3182 15.3032L15.2273 10.4547H23.4091L19.3182 15.3032ZM29.6212 17.1971L25 33.1819L20.3788 17.1971H29.6212ZM31.2121 17.1971H38.4849L26.8182 32.2729L31.2121 17.1971ZM32.2727 15.682L36.2121 10.985L38.7879 15.682H32.2727ZM13.7879 10.985L17.7273 15.682H11.2121L13.7879 10.985ZM18.7879 17.1971L23.1818 32.2729L11.5152 17.1971H18.7879Z" fill="#DF0A0A"/>
<path d="M46.8182 15.3032C45.303 15.3032 44.1667 16.5153 44.1667 18.0305V26.3638L42.9545 27.8032C42.2727 25.682 39.6212 25.0002 38.2576 26.7426L33.5606 32.7275C33.1818 33.2578 32.9545 33.9396 32.9545 34.6214V41.4396H32.0454C31.5151 41.4396 31.1364 41.8184 31.1364 42.3487V48.8638C31.1364 49.3184 31.4394 49.6214 31.8939 49.6214H44.8485C45.303 49.6214 45.6061 49.3184 45.6061 48.8638V42.3487C45.6061 41.8184 45.2273 41.4396 44.697 41.4396H43.4848V39.2426C43.4848 38.6366 43.6364 37.5002 43.8636 37.1972L49.2424 29.7729C49.4697 29.3941 49.6212 29.0153 49.6212 28.5608V17.9547C49.4697 16.5153 48.2576 15.3032 46.8182 15.3032ZM44.0151 48.0305H32.5757V42.9547H44.0151V48.0305ZM47.9545 28.6366C47.9545 28.7881 47.8788 28.9396 47.8788 29.0153L42.5 36.3638C42.0454 37.1214 41.8939 38.7123 41.8939 39.2426V41.4396H34.3939V34.6214C34.3939 34.2426 34.4697 33.8638 34.697 33.6366L39.3939 27.6517C40.4545 26.3638 42.4242 28.2578 41.2121 29.6972L40.3788 30.682C40.0757 30.985 40.1515 31.4396 40.4545 31.7426C40.7576 32.0456 41.2121 31.9699 41.5151 31.6669L45.3788 27.1972C45.5303 27.0456 45.6061 26.8184 45.6061 26.5911V18.0305C45.6061 17.3487 46.1364 16.8184 46.7424 16.8184C47.4242 16.8184 47.8788 17.3487 47.8788 18.0305V28.6366H47.9545Z" fill="#DF0A0A"/>
<path d="M18.0303 41.5153H17.1212V34.6971C17.1212 34.0153 16.894 33.3335 16.5152 32.8031L11.8182 26.8183C10.4546 25.0759 7.80305 25.7577 7.12123 27.8789L5.90911 26.4395V18.1062C5.90911 16.591 4.69699 15.3789 3.25759 15.3789C1.8182 15.3789 0.606079 16.591 0.606079 18.1062V28.7122C0.606079 29.1668 0.757594 29.5456 0.984867 29.9244L6.36365 37.2728C6.51517 37.5759 6.74244 38.7122 6.74244 39.3183V41.5153H5.37881C4.8485 41.5153 4.46972 41.8941 4.46972 42.4244V48.9395C4.46972 49.3941 4.77275 49.6971 5.22729 49.6971H18.1818C18.6364 49.6971 18.9394 49.3941 18.9394 48.9395V42.4244C18.9394 41.8941 18.5606 41.5153 18.0303 41.5153ZM7.50002 36.3638L2.12123 29.0153C2.04547 28.9395 2.04547 28.788 2.04547 28.6365V18.0304C2.04547 17.3486 2.57578 16.8183 3.18184 16.8183C3.86365 16.8183 4.3182 17.3486 4.3182 18.0304V26.591C4.3182 26.8183 4.39396 26.9698 4.54547 27.1971L8.48487 31.7425C8.7879 32.0456 9.24244 32.1213 9.54547 31.8183C9.8485 31.5153 9.92426 31.0607 9.62123 30.7577L8.7879 29.7728C7.57578 28.3335 9.54547 26.4395 10.6061 27.7274L15.3031 33.6365C15.5303 33.9395 15.6061 34.3183 15.6061 34.6971V41.5153H8.10608V39.3183C8.10608 38.788 7.95456 37.1213 7.50002 36.3638ZM17.4243 48.1062H5.98487V43.0304H17.4243V48.1062Z" fill="#DF0A0A"/>
<path d="M15.303 44.4697C14.697 44.4697 14.2424 44.9243 14.2424 45.5303C14.2424 46.1364 14.697 46.5909 15.303 46.5909C15.9091 46.5909 16.3636 46.1364 16.3636 45.5303C16.3636 44.9243 15.9091 44.4697 15.303 44.4697Z" fill="#DF0A0A"/>
<path d="M34.697 44.4697C34.0909 44.4697 33.6364 44.9243 33.6364 45.5303C33.6364 46.1364 34.0909 46.5909 34.697 46.5909C35.303 46.5909 35.7576 46.1364 35.7576 45.5303C35.7576 44.9243 35.303 44.4697 34.697 44.4697Z" fill="#DF0A0A"/>
<path d="M18.0303 6.97004C18.2576 7.34882 18.7121 7.50034 19.0909 7.27307C19.4697 7.04579 19.6212 6.59125 19.3939 6.21246L17.5758 2.80337C17.3485 2.42458 16.8939 2.27307 16.5152 2.50034C16.1364 2.72761 15.9849 3.18216 16.2121 3.56094L18.0303 6.97004Z" fill="#DF0A0A"/>
<path d="M25 5.75769C25.4546 5.75769 25.7576 5.45466 25.7576 5.00012V1.13648C25.7576 0.681937 25.4546 0.378906 25 0.378906C24.5455 0.378906 24.2424 0.681937 24.2424 1.13648V5.00012C24.2424 5.45466 24.5455 5.75769 25 5.75769Z" fill="#DF0A0A"/>
<path d="M30.9091 7.27307C31.2879 7.50034 31.7424 7.34882 31.9697 6.97004L33.7879 3.56094C34.0151 3.18216 33.8636 2.72761 33.4848 2.50034C33.1061 2.27307 32.6515 2.42458 32.4242 2.80337L30.6061 6.21246C30.3788 6.59125 30.5303 7.04579 30.9091 7.27307Z" fill="#DF0A0A"/>
</g>
<defs>
<clipPath id="clip0_30_715">
<rect width="50" height="50" fill="white"/>
</clipPath>
</defs>
</svg>
