<svg width="46" height="46" viewBox="0 0 46 46" fill="none" xmlns="http://www.w3.org/2000/svg">
<circle cx="23" cy="23" r="23" fill="#00A9A4" fill-opacity="0.13"/>
<path d="M35.2667 27.2619V26.557C35.2667 24.992 34.5687 23.4719 33.3011 22.2766C33.1405 22.1251 32.8564 22.1061 32.6664 22.2343C32.4765 22.3626 32.4527 22.5893 32.6134 22.7408C33.7435 23.8065 34.3658 25.1618 34.3658 26.557V27.2619C34.3658 29.3052 33.0657 31.179 30.8877 32.2746C30.7568 32.3404 30.6775 32.4552 30.6775 32.5786V34.5481H27.8284L27.6332 33.4945C27.5996 33.3132 27.4 33.1831 27.1709 33.1879C27.0683 33.191 26.9775 33.1925 26.8932 33.1925H25.6425C25.3937 33.1925 25.192 33.3534 25.192 33.5519C25.192 33.7504 25.3937 33.9112 25.6425 33.9112H26.7998L26.9178 34.5481H23.0438L23.1618 33.9112H23.5405C23.7893 33.9112 23.9909 33.7503 23.9909 33.5518C23.9909 33.3533 23.7893 33.1924 23.5405 33.1924H22.773C22.5497 33.1924 22.3602 33.323 22.3275 33.4993L22.1331 34.5481H19.284V33.2056C19.284 33.0523 19.1622 32.9159 18.9805 32.8659C17.1952 32.3744 15.7216 31.3735 14.8308 30.0474C14.7524 29.9307 14.5999 29.8578 14.4339 29.8578H11.6342V26.4012H13.5331C13.7677 26.4012 13.963 26.2575 13.982 26.071C14.2006 23.9312 15.8691 22.0482 18.3364 21.1567C18.4975 21.0985 18.601 20.9704 18.601 20.8293V18.0548C18.8798 18.1298 19.5379 18.3356 20.2014 18.7509C20.5578 18.974 20.8608 19.2243 21.1096 19.4994C21.1048 19.5614 21.1015 19.6237 21.1015 19.6867C21.1015 20.4764 21.4881 21.209 22.1473 21.7513H21.8391C21.5903 21.7513 21.3886 21.9122 21.3886 22.1107C21.3886 22.3092 21.5903 22.4701 21.8391 22.4701H23.6086H26.0846H28.0542C28.3029 22.4701 28.5046 22.3092 28.5046 22.1107C28.5046 21.9122 28.3029 21.7513 28.0542 21.7513H27.5458C27.8978 21.4618 28.1717 21.118 28.3509 20.7402C29.3472 20.8962 30.2933 21.2116 31.1396 21.6763C31.3445 21.7889 31.6249 21.7475 31.766 21.584C31.907 21.4205 31.8552 21.1968 31.6503 21.0842C30.713 20.5695 29.6669 20.2178 28.5653 20.0409C28.5826 19.9244 28.5917 19.8063 28.5917 19.6867C28.5917 18.8053 28.1063 18.0126 27.3371 17.4674V16.8405C27.3371 16.6419 27.1355 16.4811 26.8867 16.4811C26.638 16.4811 26.4363 16.6419 26.4363 16.8405V16.9939C26.0943 16.866 25.7242 16.7784 25.3355 16.738V15.5583C25.3355 15.3598 25.1338 15.199 24.8851 15.199C24.6364 15.199 24.4347 15.3598 24.4347 15.5583V16.7302C24.0178 16.7666 23.6214 16.8576 23.2569 16.9939V16.5972C23.2569 16.3987 23.0552 16.2378 22.8065 16.2378C22.5577 16.2378 22.3561 16.3987 22.3561 16.5972V17.4675C21.9162 17.7793 21.5697 18.1722 21.3533 18.6163C21.1697 18.4633 20.971 18.3191 20.7574 18.1855C19.776 17.5712 18.8059 17.35 18.6976 17.3266C18.465 17.2769 18.2043 17.3173 18.0113 17.4346C17.8165 17.5531 17.7002 17.7404 17.7002 17.9356V20.6021C15.2054 21.5882 13.4911 23.4967 13.1284 25.6824H11.5253C11.0887 25.6824 10.7334 25.9652 10.7334 26.3129V29.946C10.7334 30.2937 11.0887 30.5765 11.5253 30.5765H14.1692C15.1239 31.8942 16.6039 32.9054 18.3832 33.4565V34.5481H11.1838C10.9351 34.5481 10.7334 34.7089 10.7334 34.9074C10.7334 35.106 10.9351 35.2668 11.1838 35.2668H18.8336H22.5219H27.4397H31.128H34.8163C35.0651 35.2668 35.2667 35.106 35.2667 34.9074C35.2667 34.7089 35.0651 34.5481 34.8163 34.5481H31.5784V32.7734C33.8927 31.5324 35.2667 29.4869 35.2667 27.2619ZM24.8466 17.4306C26.4149 17.4306 27.6909 18.4427 27.6909 19.6868C27.6909 20.5871 27.0276 21.3902 25.9938 21.7514H23.6994C22.6656 21.3902 22.0023 20.5871 22.0023 19.6868C22.0023 18.4427 23.2783 17.4306 24.8466 17.4306Z" fill="#00A9A4"/>
<path d="M15.7275 25.4465V27.3172C15.7275 27.5157 15.9292 27.6765 16.178 27.6765C16.4267 27.6765 16.6284 27.5157 16.6284 27.3172V25.4465C16.6284 25.248 16.4267 25.0872 16.178 25.0872C15.9292 25.0872 15.7275 25.248 15.7275 25.4465Z" fill="#00A9A4"/>
<path d="M24.8466 21.2907C25.9596 21.2907 26.8651 20.571 26.8651 19.6865C26.8651 18.8019 25.9596 18.0823 24.8466 18.0823C23.7336 18.0823 22.8281 18.8019 22.8281 19.6865C22.8281 20.571 23.7336 21.2907 24.8466 21.2907ZM24.8466 18.8011C25.4629 18.8011 25.9643 19.1983 25.9643 19.6865C25.9643 20.1748 25.4629 20.572 24.8466 20.572C24.2303 20.572 23.7289 20.1748 23.7289 19.6865C23.7289 19.1983 24.2303 18.8011 24.8466 18.8011Z" fill="#00A9A4"/>
<path d="M19.3116 16.7097C20.864 16.7097 22.233 15.9647 22.7995 14.8117C22.8902 14.627 22.7761 14.4184 22.5445 14.346C22.3129 14.2734 22.0516 14.3646 21.9608 14.5494C21.5305 15.4251 20.4907 15.991 19.3116 15.991C17.7432 15.991 16.4672 14.9729 16.4672 13.7216C16.4672 12.4702 17.7432 11.4521 19.3116 11.4521C20.5802 11.4521 21.7062 12.1318 22.0497 13.1048C22.1171 13.2959 22.3658 13.4071 22.6053 13.3533C22.8448 13.2996 22.9842 13.1011 22.9168 12.91C22.4644 11.6285 20.9819 10.7334 19.3116 10.7334C17.2465 10.7334 15.5664 12.0739 15.5664 13.7215C15.5664 15.3691 17.2465 16.7097 19.3116 16.7097Z" fill="#00A9A4"/>
<path d="M19.3115 12.1111C18.1985 12.1111 17.293 12.8335 17.293 13.7215C17.293 14.6095 18.1985 15.3319 19.3115 15.3319C20.4245 15.3319 21.33 14.6095 21.33 13.7215C21.33 12.8335 20.4245 12.1111 19.3115 12.1111ZM19.3115 14.6132C18.6952 14.6132 18.1938 14.2132 18.1938 13.7216C18.1938 13.2299 18.6952 12.8299 19.3115 12.8299C19.9278 12.8299 20.4292 13.2299 20.4292 13.7216C20.4292 14.2132 19.9278 14.6132 19.3115 14.6132Z" fill="#00A9A4"/>
<path d="M13.5712 19.8172C14.6842 19.8172 15.5897 19.0948 15.5897 18.2068C15.5897 17.3187 14.6842 16.5962 13.5712 16.5962C12.4582 16.5962 11.5527 17.3187 11.5527 18.2068C11.5527 19.0948 12.4582 19.8172 13.5712 19.8172ZM13.5712 17.3149C14.1875 17.3149 14.6889 17.715 14.6889 18.2068C14.6889 18.6985 14.1875 19.0985 13.5712 19.0985C12.955 19.0985 12.4536 18.6984 12.4536 18.2068C12.4536 17.715 12.955 17.3149 13.5712 17.3149Z" fill="#00A9A4"/>
<path d="M31.33 18.1905C32.443 18.1905 33.3485 17.468 33.3485 16.58C33.3485 15.692 32.443 14.9695 31.33 14.9695C30.217 14.9695 29.3115 15.692 29.3115 16.58C29.3115 17.468 30.217 18.1905 31.33 18.1905ZM31.33 15.6882C31.9463 15.6882 32.4477 16.0882 32.4477 16.58C32.4477 17.0717 31.9463 17.4717 31.33 17.4717C30.7137 17.4717 30.2123 17.0717 30.2123 16.58C30.2123 16.0882 30.7137 15.6882 31.33 15.6882Z" fill="#00A9A4"/>
<path d="M24.885 14.4622C25.1337 14.4622 25.3354 14.3013 25.3354 14.1028C25.3354 13.9043 25.1337 13.7434 24.885 13.7434C24.6362 13.7434 24.4346 13.9043 24.4346 14.1028C24.4346 14.3013 24.6362 14.4622 24.885 14.4622Z" fill="#00A9A4"/>
<path d="M26.8869 15.8008C27.1357 15.8008 27.3373 15.6399 27.3373 15.4414C27.3373 15.2429 27.1357 15.082 26.8869 15.082C26.6382 15.082 26.4365 15.2429 26.4365 15.4414C26.4365 15.6399 26.6382 15.8008 26.8869 15.8008Z" fill="#00A9A4"/>
</svg>
