<svg width="46" height="46" viewBox="0 0 46 46" fill="none" xmlns="http://www.w3.org/2000/svg">
<circle cx="23" cy="23" r="23" fill="#00A9A4" fill-opacity="0.13"/>
<path d="M12.329 16.9409C13.21 17.8163 14.3871 18.2931 15.609 18.2931C15.9155 18.2931 16.2217 18.2625 16.5281 18.2015C17.1751 18.0717 17.8359 18.014 18.4965 18.0242L20.135 20.0681L20.1417 20.0752C20.1451 20.0785 20.1451 20.0821 20.1489 20.0854C20.5273 20.5146 21.0538 20.8006 21.6286 20.8894H21.6459C21.7181 20.8994 21.7905 20.9064 21.8626 20.9064C22.0588 20.9064 22.2516 20.8654 22.4273 20.7837C22.7436 21.0052 23.1119 21.1585 23.5044 21.22H23.5078C23.5836 21.2335 23.6593 21.2369 23.7349 21.2369C23.962 21.2369 24.179 21.1823 24.3718 21.0802C24.6815 21.3289 25.0705 21.4616 25.4628 21.4616C25.7174 21.4616 25.9721 21.4071 26.2129 21.2914C26.2166 21.2914 26.22 21.2881 26.2234 21.2848C26.2267 21.281 26.2337 21.281 26.2371 21.2777H26.2404C26.251 21.2708 26.2646 21.2642 26.2749 21.2573L26.2783 21.2539C26.2819 21.2539 26.2819 21.2506 26.2853 21.2506C26.6948 20.9985 26.977 20.5862 27.0665 20.116C27.1561 19.6458 27.0389 19.1588 26.7464 18.7738C26.7464 18.7738 26.7464 18.7738 26.7464 18.7702L22.4511 12.8934C21.8317 12.0451 20.7992 11.5815 19.7528 11.6838L16.5658 11.9938C16.2356 12.028 15.9049 11.9224 15.6642 11.7076L14.7072 10.8559C14.5077 10.6788 14.2046 10.6957 14.0259 10.8936C13.8468 11.0911 13.8641 11.3907 14.0636 11.568L15.0206 12.4199C15.4129 12.7638 15.9222 12.9544 16.4454 12.9544C16.514 12.9544 16.5866 12.9511 16.6588 12.9444L19.8458 12.6342C20.5513 12.5661 21.25 12.8796 21.6699 13.4519L25.9687 19.3358L25.9721 19.3392C25.9721 19.3425 25.9755 19.3425 25.9755 19.346C26.1064 19.5165 26.1615 19.7344 26.1236 19.9456C26.0855 20.15 25.9687 20.3237 25.7964 20.4362C25.4729 20.5862 25.0839 20.4977 24.8674 20.225L22.4959 17.169C22.6818 16.4671 22.3446 15.728 21.6768 15.4007C20.4618 14.6988 19.0303 14.4161 17.6362 14.614C17.3712 14.6513 17.1887 14.893 17.2268 15.1521C17.2645 15.4144 17.5089 15.595 17.7702 15.5575C18.9543 15.3907 20.1726 15.6292 21.2024 16.2321C21.2123 16.239 21.226 16.2457 21.2361 16.2492H21.2399C21.5183 16.3819 21.6492 16.6954 21.5459 16.9815C21.4428 17.2711 21.1363 17.4346 20.8404 17.3631C19.3742 17.0088 17.8187 16.9748 16.3387 17.2677C15.1271 17.5098 13.8845 17.135 13.0138 16.2696L11.6477 14.9169C11.4583 14.7296 11.1553 14.7296 10.9663 14.9169C10.7769 15.1044 10.7769 15.4044 10.9663 15.5915L12.329 16.9409ZM21.9315 18.0106L23.6936 20.2829C23.6833 20.2829 23.6694 20.2829 23.6593 20.2796C23.3359 20.2283 23.0364 20.0821 22.8127 19.864C22.8091 19.8606 22.8091 19.8606 22.8055 19.8571C22.8021 19.8537 22.7988 19.8502 22.792 19.8467C22.7746 19.8298 22.7609 19.816 22.7472 19.7992L21.5562 18.225C21.6907 18.1708 21.818 18.099 21.9315 18.0106ZM20.3551 18.2283L21.6322 19.9148C21.3397 19.84 21.078 19.6833 20.8783 19.4619L19.8113 18.1296C19.994 18.1569 20.176 18.1911 20.3551 18.2283Z" fill="#00A9A4"/>
<path d="M35.0956 30.1935L31.6607 26.7729C30.1153 25.2365 27.9126 24.5721 25.7686 24.998C24.815 25.1886 23.8374 25.274 22.8636 25.2534L20.4922 22.2999C20.4888 22.2961 20.4854 22.2928 20.4819 22.2894C20.4785 22.2861 20.4751 22.2828 20.4751 22.2792C19.945 21.6763 19.2223 21.2809 18.4375 21.162C18.4375 21.162 18.4375 21.162 18.4341 21.162C18.4307 21.162 18.4307 21.162 18.4271 21.162C18.4238 21.162 18.4204 21.162 18.417 21.1584C18.4137 21.1584 18.4137 21.1584 18.4099 21.1584C18.0245 21.0938 17.6322 21.1584 17.2915 21.3253C16.8441 20.9947 16.3173 20.7699 15.76 20.6849C15.76 20.6849 15.76 20.6849 15.7564 20.6849C15.7564 20.6849 15.7564 20.6849 15.753 20.6849C15.3159 20.6168 14.8788 20.7018 14.5141 20.9132C13.8016 20.2963 12.7658 20.1432 11.9018 20.5724C11.8985 20.5757 11.8913 20.579 11.8879 20.579C11.8844 20.5826 11.8776 20.5826 11.8743 20.5861C11.8673 20.5895 11.8604 20.5928 11.8534 20.5963C11.8501 20.5963 11.8501 20.5997 11.8467 20.5997C11.2892 20.9232 10.9002 21.4957 10.7729 22.1738C10.6523 22.8176 10.8108 23.4853 11.2065 24.0098C11.2065 24.0098 11.2065 24.0132 11.2098 24.0132L17.3498 32.4352C18.1279 33.505 19.3875 34.132 20.7092 34.132C20.8432 34.132 20.9775 34.1252 21.112 34.1114C21.1358 34.1081 21.1566 34.1081 21.1806 34.1048L21.9755 34.0264C22.0652 34.016 22.1512 34.0093 22.2407 33.9991C22.3371 33.9887 22.4368 33.9787 22.5332 33.9718C22.633 33.9614 22.7327 33.9514 22.8361 33.9412C22.9428 33.931 23.0461 33.9206 23.1526 33.9106C23.2593 33.9004 23.3696 33.89 23.4761 33.8798C23.5794 33.8698 23.6828 33.8593 23.7861 33.8491C23.9065 33.8391 24.0235 33.8252 24.1439 33.8152L24.5124 33.7777C24.65 33.7639 24.791 33.7504 24.9285 33.7366C25.0112 33.73 25.0905 33.7198 25.173 33.7096C25.3313 33.6925 25.4828 33.6754 25.6308 33.6685C25.7958 33.6583 25.9612 33.6718 26.154 33.6925C26.295 33.706 26.4741 33.7673 26.653 33.8627C26.787 33.9343 26.9179 34.0298 27.0453 34.1218L28.1778 35.12C28.2878 35.2187 28.4288 35.2666 28.5667 35.2666C28.7283 35.2666 28.8902 35.2016 29.0036 35.072C29.217 34.8337 29.1964 34.4658 28.9554 34.2548L27.8025 33.2427C27.7888 33.2327 27.7783 33.2223 27.7646 33.2121C27.6064 33.0929 27.417 32.9566 27.2069 32.8475C26.8868 32.6737 26.5705 32.5716 26.2708 32.541C26.0542 32.5204 25.82 32.5 25.5653 32.5137C25.3864 32.5237 25.2109 32.541 25.0423 32.5612C24.9666 32.5683 24.8908 32.5783 24.8117 32.5852C24.6704 32.5989 24.5328 32.6125 24.3918 32.626L24.0235 32.6637C23.9031 32.6737 23.7827 32.6873 23.6621 32.6977C23.559 32.7079 23.4557 32.7179 23.3557 32.7283C23.2456 32.7385 23.1391 32.7487 23.0286 32.7591C22.9255 32.7691 22.819 32.7794 22.7157 32.7898C22.6157 32.7998 22.5126 32.81 22.4126 32.8204C22.3164 32.8306 22.2201 32.8406 22.1203 32.8475C22.0306 32.8579 21.9448 32.8646 21.8553 32.8748L21.0568 32.9533C21.036 32.9566 21.0156 32.9566 20.9914 32.96C19.9416 33.0621 18.9091 32.6023 18.2931 31.7573L12.1632 23.3319C12.1632 23.3286 12.1598 23.3286 12.1598 23.3253C12.1598 23.3219 12.1565 23.3219 12.1565 23.3184C11.9498 23.0526 11.8673 22.7117 11.9328 22.3815C11.9982 22.0407 12.1908 21.7478 12.449 21.5945C12.9478 21.3561 13.564 21.5024 13.9115 21.9453L13.9803 22.034C13.9942 22.0545 14.0079 22.0747 14.0254 22.092L17.3294 26.354C17.0781 27.2873 17.5188 28.2856 18.4204 28.7796C19.7831 29.5733 21.3424 29.989 22.9152 29.989C23.325 29.989 23.7377 29.9619 24.1475 29.904C24.4674 29.8596 24.6911 29.5667 24.6431 29.2498C24.5983 28.9329 24.3024 28.7115 23.9822 28.7594C22.2683 29.0011 20.5061 28.6536 19.0122 27.7848C19.0089 27.7815 19.0055 27.7815 19.0021 27.7815C18.9985 27.7815 18.9952 27.7781 18.9918 27.7746C18.5338 27.5294 18.3173 27.0284 18.4753 26.5855C18.4789 26.5755 18.4823 26.5686 18.4859 26.5586C18.5063 26.5209 18.5271 26.4834 18.541 26.4459C18.7439 26.0815 19.1774 25.8907 19.6078 25.993C19.6215 25.9963 19.6316 25.9996 19.6457 26.003C19.6903 26.0202 19.7385 26.0302 19.7867 26.0371C20.678 26.2417 21.5901 26.3607 22.5057 26.3982C22.5299 26.4017 22.5503 26.4017 22.5745 26.4017H22.5953C22.7673 26.4086 22.9394 26.4119 23.1114 26.4119C24.082 26.4119 25.0491 26.3165 25.9957 26.129C27.7541 25.7782 29.5613 26.3232 30.8277 27.584L34.2626 31.0044C34.3762 31.1169 34.5276 31.1748 34.6791 31.1748C34.827 31.1748 34.9784 31.1202 35.092 31.0079C35.3227 30.7865 35.326 30.4183 35.0956 30.1935ZM20.1895 24.9403L18.1933 22.2928C18.207 22.2928 18.2209 22.2961 18.2346 22.2999H18.2483C18.7681 22.378 19.2326 22.6303 19.587 23.0286L21.2702 25.1275C20.9087 25.0832 20.5473 25.0184 20.1895 24.9403ZM17.99 25.3148L15.2951 21.8363C15.3847 21.8159 15.4775 21.8126 15.5739 21.8263H15.5809C16.1007 21.9078 16.5789 22.1634 16.9266 22.5484L18.7129 24.9163C18.4446 25.0015 18.2001 25.1344 17.99 25.3148Z" fill="#00A9A4"/>
</svg>
