<svg width="50" height="50" viewBox="0 0 50 50" fill="none" xmlns="http://www.w3.org/2000/svg">
<g clip-path="url(#clip0_30_663)">
<path d="M38.1808 42.9713C37.6841 43.2419 37.1805 43.5212 36.6705 43.8039C32.3552 46.1965 27.4641 48.9084 22.7632 48.4886L6.11553 47.0024C6.09385 47.0005 6.07207 46.9995 6.05029 46.9995H1.46768V38.7609H6.0502C6.22373 38.7609 6.3917 38.6994 6.52412 38.5874C6.53711 38.5765 7.84854 37.4746 9.84502 36.4375C10.2047 36.2507 10.3447 35.8076 10.158 35.4479C9.97109 35.0884 9.52822 34.9481 9.16846 35.135C7.48506 36.0096 6.26387 36.9202 5.79063 37.2933H0.733887C0.328613 37.2933 0 37.6219 0 38.0271V47.7334C0 48.1387 0.328516 48.4673 0.733887 48.4673H6.01748L22.6326 49.9506C23.0079 49.9841 23.3823 50.0001 23.7568 50.0001C28.5217 50.0001 33.2103 47.4007 37.3821 45.0877C37.889 44.8067 38.3895 44.5292 38.883 44.2601C39.2389 44.0662 39.3702 43.6205 39.1763 43.2646C38.9824 42.9086 38.5368 42.7773 38.1808 42.9713Z" fill="#DF0A0A"/>
<path d="M49.4335 34.8423C48.6532 33.808 47.2937 33.4508 46.1204 33.942C46.0904 33.4727 45.9315 33.0155 45.6532 32.6258C44.9194 31.5986 43.5244 31.2676 42.4083 31.8559L40.663 32.7757C40.6406 32.3658 40.5197 31.9625 40.3042 31.6064C39.6079 30.4553 38.1365 30.0556 36.9544 30.6963L35.6499 31.4035C35.6264 30.8964 35.4546 30.4021 35.148 29.9848C34.3831 28.9439 32.9981 28.6237 31.8549 29.2234L22.4371 34.1628C21.378 33.7562 18.0018 32.6565 14.0572 33.3908C13.3767 33.5176 12.6757 33.7008 11.9733 33.9357C11.5889 34.0642 11.3815 34.4799 11.5099 34.8643C11.6386 35.2487 12.0545 35.456 12.4387 35.3277C13.0769 35.1143 13.7118 34.9482 14.3258 34.8338C18.5367 34.0497 22.1403 35.6249 22.1752 35.6405C22.2698 35.6829 22.3723 35.7049 22.476 35.7049H32.2787C32.9752 35.7049 33.5418 36.2732 33.5418 36.9716C33.5418 37.6082 33.0668 38.1485 32.437 38.2282L20.0127 39.8019C19.6451 39.8485 19.3699 40.1616 19.3711 40.5321C19.3722 40.9026 19.6493 41.2141 20.0171 41.2584L25.2937 41.8945C30.4052 42.5104 35.486 41.5134 39.9874 39.0111L46.5812 35.3455C47.1613 35.0433 47.867 35.2029 48.2617 35.7262C48.7549 36.3487 48.5405 37.3469 47.8343 37.7105L40.7594 41.5659C39.9135 42.0105 40.6385 43.3234 41.4617 42.8547L48.5366 38.9992C49.2536 38.6086 49.7638 37.9264 49.9364 37.1276C50.1092 36.328 49.9259 35.495 49.4335 34.8423ZM32.5366 30.5231C33.0325 30.263 33.6333 30.4021 33.9654 30.8539C34.3734 31.3801 34.1882 32.2148 33.595 32.5176L30.4231 34.2372H25.4553L32.5366 30.5231ZM33.2041 34.399L37.6539 31.9865C38.146 31.7198 38.7584 31.8866 39.0484 32.3661C39.3645 32.8626 39.1667 33.5795 38.6398 33.842L34.7803 35.8762C34.4805 35.1925 33.9096 34.6542 33.2041 34.399ZM39.2743 37.7282C35.2379 39.9722 30.7053 40.928 26.1258 40.507L32.6215 39.6842C33.8265 39.5317 34.7687 38.6002 34.9694 37.4355L43.0926 33.1542C43.5623 32.9067 44.1497 33.0461 44.4589 33.4788C44.8332 33.9762 44.6594 34.7524 44.1078 35.0412L39.2743 37.7282Z" fill="#DF0A0A"/>
<path d="M17.0889 19.94C17.9177 19.94 18.7151 19.7607 19.4587 19.4071C19.8247 19.2331 19.9803 18.7952 19.8062 18.4292C19.6322 18.0633 19.1946 17.9075 18.8283 18.0816C18.2833 18.3408 17.698 18.4723 17.0889 18.4723C14.8525 18.4723 13.033 16.6527 13.033 14.4163C13.033 12.1799 14.8525 10.3604 17.0889 10.3604C19.3254 10.3604 21.1449 12.1799 21.1449 14.4163C21.1449 15.1011 20.9713 15.7775 20.6428 16.3727C20.447 16.7275 20.5759 17.1739 20.9307 17.3697C21.2857 17.5655 21.7321 17.4366 21.9278 17.0818C22.3758 16.2701 22.6126 15.3484 22.6126 14.4162C22.6126 11.3704 20.1346 8.89258 17.0889 8.89258C14.0432 8.89258 11.5653 11.3704 11.5653 14.4162C11.5653 17.462 14.0432 19.94 17.0889 19.94Z" fill="#DF0A0A"/>
<path d="M5.62957 16.598L7.15056 16.8267C7.3989 17.857 7.8033 18.833 8.3574 19.7387L7.44304 20.9765C7.01101 21.5614 7.07068 22.3591 7.58494 22.8731L8.63201 23.9203C9.14617 24.4345 9.94392 24.4941 10.5288 24.0621L11.7665 23.1479C12.6721 23.702 13.648 24.1064 14.6785 24.3548L14.9072 25.8758C15.0153 26.5948 15.6216 27.1167 16.3486 27.1167H17.8294C18.5565 27.1167 19.1628 26.5948 19.2708 25.8757L19.4994 24.3548C20.5299 24.1064 21.5057 23.702 22.4114 23.1479L23.6492 24.0622C24.2341 24.4941 25.0318 24.4346 25.5459 23.9204L26.5929 22.8733C27.1072 22.3593 27.1669 21.5615 26.7348 20.9766L25.8206 19.7389C26.3747 18.8332 26.7792 17.8573 27.0274 16.8269L28.5483 16.5982C29.2674 16.4901 29.7893 15.884 29.7893 15.1567V15.1501H34.1444V24.5038C34.1444 25.4475 34.9122 26.2152 35.8558 26.2152H38.991C39.3266 27.7111 40.6645 28.8325 42.2602 28.8325C44.1081 28.8325 45.6115 27.3292 45.6115 25.4813C45.6115 23.6334 44.1082 22.13 42.2602 22.13C40.6644 22.13 39.3265 23.2515 38.9909 24.7475H35.8557C35.7214 24.7475 35.6121 24.6382 35.6121 24.5038V15.1501H38.9909C39.3265 16.6461 40.6644 17.7676 42.2602 17.7676C44.1081 17.7676 45.6115 16.2643 45.6115 14.4163C45.6115 12.5684 44.1082 11.065 42.2602 11.065C40.6645 11.065 39.3266 12.1864 38.9909 13.6823H35.6123V4.32881C35.6123 4.19443 35.7216 4.08516 35.8559 4.08516H38.9911C39.3267 5.58115 40.6646 6.70254 42.2604 6.70254C44.1083 6.70254 45.6117 5.19922 45.6117 3.35127C45.6117 1.50332 44.1082 0 42.2603 0C40.6646 0 39.3267 1.12139 38.991 2.61738H35.8558C34.9122 2.61738 34.1444 3.38506 34.1444 4.32871V13.6822H29.7893V13.6758C29.7893 12.9487 29.2675 12.3425 28.5484 12.2344L27.0274 12.0058C26.7791 10.9753 26.3747 9.99941 25.8206 9.09375L26.7348 7.85605C27.1669 7.27109 27.1073 6.47334 26.593 5.95928L25.546 4.91211C25.0319 4.39795 24.2342 4.33838 23.6492 4.77031L22.4115 5.68457C21.5057 5.13047 20.5299 4.72598 19.4995 4.47773L19.2709 2.95674C19.1629 2.2377 18.5566 1.71572 17.8295 1.71572H16.3486C15.6216 1.71572 15.0153 2.2376 14.9072 2.95674L14.6785 4.47773C13.6481 4.72607 12.6722 5.13047 11.7665 5.68457L10.5288 4.77031C9.94402 4.33828 9.14617 4.39785 8.63201 4.91211L7.58494 5.95908C7.07068 6.47324 7.01101 7.271 7.44304 7.85586L8.3573 9.09355C7.8032 9.99922 7.39871 10.9752 7.15046 12.0056L5.62947 12.2342C4.91042 12.3423 4.38855 12.9485 4.38855 13.6756V15.1563C4.38855 15.8838 4.91052 16.4899 5.62957 16.598ZM42.2603 23.5976C43.2989 23.5976 44.1438 24.4425 44.1438 25.4811C44.1438 26.5196 43.2989 27.3646 42.2603 27.3646C41.2218 27.3646 40.3768 26.5196 40.3768 25.4811C40.3768 24.4425 41.2218 23.5976 42.2603 23.5976ZM42.2603 12.5326C43.2989 12.5326 44.1438 13.3775 44.1438 14.4161C44.1438 15.4547 43.2989 16.2996 42.2603 16.2996C41.2218 16.2996 40.3768 15.4547 40.3768 14.4161C40.3768 13.3775 41.2218 12.5326 42.2603 12.5326ZM42.2603 1.46768C43.2989 1.46768 44.1438 2.3126 44.1438 3.35117C44.1438 4.38975 43.2989 5.23467 42.2603 5.23467C41.2218 5.23467 40.3768 4.38975 40.3768 3.35117C40.3768 2.3127 41.2218 1.46768 42.2603 1.46768ZM5.85623 13.6844L7.87058 13.3815C8.17957 13.3352 8.42527 13.0981 8.48279 12.7911C8.70642 11.5984 9.16814 10.4845 9.85486 9.48008C10.0311 9.22227 10.025 8.88105 9.83933 8.62979L8.62878 6.99082L9.66365 5.95605L11.3026 7.1667C11.5538 7.35225 11.8949 7.3585 12.1528 7.18223C13.1573 6.49541 14.2713 6.03379 15.4638 5.81006C15.7709 5.75254 16.0078 5.50684 16.0543 5.19785L16.3571 3.1835H17.8206L18.1234 5.19785C18.1699 5.50684 18.4068 5.75254 18.7138 5.81006C19.9064 6.03369 21.0205 6.49541 22.0249 7.18223C22.2828 7.35859 22.6239 7.35225 22.8752 7.1667L24.5141 5.95605L25.549 6.99082L24.3385 8.62988C24.1529 8.88105 24.1467 9.22227 24.3229 9.48018C25.0097 10.4846 25.4714 11.5985 25.6951 12.7913C25.7527 13.0983 25.9984 13.3353 26.3073 13.3817L28.3217 13.6846V15.148L26.3073 15.4509C25.9984 15.4973 25.7527 15.7343 25.6951 16.0413C25.4714 17.2341 25.0097 18.348 24.3229 19.3524C24.1467 19.6103 24.1528 19.9515 24.3385 20.2026L25.5491 21.8416L24.5142 22.8765L22.8753 21.6658C22.6241 21.4803 22.2829 21.474 22.025 21.6504C21.0206 22.3372 19.9066 22.7988 18.7138 23.0226C18.4068 23.0802 18.1699 23.3259 18.1234 23.6348L17.8206 25.6491H16.3571L16.0543 23.6348C16.0078 23.3259 15.7709 23.0802 15.4638 23.0226C14.2711 22.7988 13.1571 22.3372 12.1527 21.6504C11.8949 21.4741 11.5538 21.4803 11.3025 21.6658L9.66355 22.8765L8.62869 21.8416L9.83933 20.2026C10.0249 19.9515 10.0311 19.6102 9.85486 19.3524C9.16804 18.348 8.70642 17.2341 8.48279 16.0414C8.42517 15.7344 8.17957 15.4974 7.87058 15.451L5.85623 15.1481V13.6844Z" fill="#DF0A0A"/>
</g>
<defs>
<clipPath id="clip0_30_663">
<rect width="50" height="50" fill="white"/>
</clipPath>
</defs>
</svg>
