<svg width="55" height="55" viewBox="0 0 55 55" fill="none" xmlns="http://www.w3.org/2000/svg">
<g clip-path="url(#clip0_41_9160)">
<path d="M34.6498 20.5171C34.6498 16.5747 31.4425 13.3673 27.5 13.3673C23.5575 13.3673 20.3501 16.5747 20.3501 20.5171C20.3501 22.5115 21.0045 23.5242 21.6373 24.5036C22.2812 25.5 22.9449 26.5288 23.2171 28.8678C22.5917 29.153 22.1551 29.7827 22.1551 30.5138V32.7965C22.1551 33.7944 22.9669 34.6062 23.9647 34.6062H24.3V34.9147C24.3 35.8794 25.0849 36.6645 26.0497 36.6645H28.9501C29.9148 36.6645 30.6998 35.8796 30.6998 34.9147V34.6062H31.035C32.0329 34.6062 32.8447 33.7944 32.8447 32.7965V30.5138C32.8447 29.7828 32.4081 29.1531 31.7827 28.8678C32.0548 26.5287 32.7184 25.5 33.3624 24.5036C33.9954 23.5242 34.6498 22.5115 34.6498 20.5171ZM31.3409 32.7965C31.3409 32.9622 31.2009 33.1023 31.0351 33.1023H29.9479C29.5326 33.1023 29.196 33.4389 29.196 33.8542V34.9147C29.196 35.048 29.0834 35.1606 28.9502 35.1606H26.0498C25.9166 35.1606 25.804 35.048 25.804 34.9147V33.8542C25.804 33.4389 25.4674 33.1023 25.0521 33.1023H23.9649C23.7991 33.1023 23.6591 32.9623 23.6591 32.7965V30.5138C23.6591 30.3482 23.7991 30.2081 23.9649 30.2081H31.0351C31.2009 30.2081 31.3409 30.3481 31.3409 30.5138V32.7965ZM32.0995 23.6874C31.4278 24.7269 30.6046 26.0025 30.2886 28.7042H28.252V22.1419L30.6195 20.775C30.9792 20.5673 31.1024 20.1074 30.8947 19.7478C30.687 19.3881 30.2272 19.2647 29.8676 19.4726L27.5 20.8395L25.1324 19.4726C24.7726 19.2647 24.3128 19.3881 24.1053 19.7478C23.8977 20.1074 24.0209 20.5673 24.3805 20.775L26.748 22.1419V28.7042H24.7115C24.3954 26.0026 23.5723 24.7269 22.9005 23.6874C22.293 22.7472 21.8541 22.0679 21.8541 20.5171C21.8541 17.404 24.3868 14.8712 27.5001 14.8712C30.6132 14.8712 33.146 17.404 33.146 20.5171C33.1459 22.068 32.707 22.7472 32.0995 23.6874ZM53.2812 26.748H46.4443L46.4349 21.6624H48.3496C48.6816 22.8933 49.8071 23.8021 51.1415 23.8021C52.736 23.8021 54.0332 22.5049 54.0332 20.9104C54.0332 19.316 52.736 18.0188 51.1415 18.0188C49.8072 18.0188 48.6816 18.9276 48.3496 20.1585H45.6816C45.482 20.1585 45.2904 20.2379 45.1494 20.3792C45.0084 20.5205 44.9293 20.7122 44.9296 20.9118L44.9404 26.748H40.099C39.6837 26.748 39.347 27.0847 39.347 27.5C39.347 34.0324 34.0324 39.3469 27.5001 39.3469C20.9678 39.3469 15.6531 34.0324 15.6531 27.5C15.6531 27.0847 15.3164 26.748 14.9011 26.748H10.0597L10.0704 20.9118C10.0707 20.7121 9.99174 20.5205 9.85059 20.3792C9.70965 20.238 9.51801 20.1585 9.31842 20.1585H6.65038C6.31845 18.9275 5.19277 18.0188 3.85849 18.0188C2.26402 18.0188 0.966797 19.316 0.966797 20.9104C0.966797 22.5049 2.26392 23.8021 3.85838 23.8021C5.19277 23.8021 6.31834 22.8933 6.65027 21.6624H8.56496L8.55583 26.748H1.71875C1.30346 26.748 0.966797 27.0847 0.966797 27.5V30.0781C0.966797 31.4265 2.0639 32.5236 3.41236 32.5236C5.45112 32.5236 7.20317 33.696 7.98488 35.5833C8.7667 37.4707 8.35688 39.5388 6.91518 40.9805C6.45337 41.4423 6.19899 42.0565 6.19899 42.7098C6.19899 43.363 6.45337 43.9771 6.91518 44.439L10.5612 48.085C11.0231 48.5468 11.6372 48.8012 12.2905 48.8012C12.9437 48.8012 13.5579 48.5468 14.0198 48.085C15.4634 46.6415 17.5322 46.2298 19.4185 47.0112C21.305 47.7925 22.4767 49.5463 22.4767 51.5879C22.4767 52.9362 23.5737 54.0333 24.9222 54.0333H30.0781C31.4266 54.0333 32.5236 52.9363 32.5236 51.5879C32.5236 49.5491 33.696 47.7969 35.5833 47.0152C37.4707 46.2334 39.5387 46.6433 40.9804 48.0849C41.4423 48.5467 42.0564 48.8011 42.7096 48.8011C43.363 48.8011 43.9771 48.5467 44.439 48.0849L48.085 44.4389C49.0384 43.4855 49.0384 41.934 48.085 40.9804C46.6433 39.5388 46.2335 37.4707 47.0152 35.5833C47.797 33.696 49.5492 32.5235 51.5879 32.5235C52.9363 32.5235 54.0333 31.4265 54.0333 30.078V27.4999C54.0333 27.3005 53.9541 27.1092 53.8131 26.9682C53.6719 26.8272 53.4807 26.748 53.2812 26.748ZM51.1416 19.5227C51.9068 19.5227 52.5294 20.1453 52.5294 20.9104C52.5294 21.6757 51.9068 22.2982 51.1416 22.2982C50.3765 22.2982 49.7538 21.6757 49.7538 20.9104C49.7538 20.1453 50.3763 19.5227 51.1416 19.5227ZM3.85838 22.2982C3.09321 22.2982 2.4707 21.6757 2.4707 20.9104C2.4707 20.1453 3.09321 19.5227 3.85838 19.5227C4.62354 19.5227 5.24616 20.1453 5.24616 20.9104C5.24616 21.6757 4.62365 22.2982 3.85838 22.2982ZM52.5293 30.078C52.5293 30.5972 52.1069 31.0196 51.5877 31.0196C48.9292 31.0196 46.6446 32.5478 45.6257 35.0077C44.6067 37.4678 45.1415 40.1639 47.0214 42.0437C47.3885 42.4109 47.3885 43.0084 47.0214 43.3755L43.3753 47.0215C43.1977 47.1992 42.9612 47.2971 42.7095 47.2971C42.458 47.2971 42.2215 47.1992 42.0438 47.0215C40.1639 45.1415 37.4678 44.6069 35.0077 45.6257C32.5478 46.6447 31.0196 48.9292 31.0196 51.5877C31.0196 52.1069 30.5972 52.5293 30.078 52.5293H24.922C24.4028 52.5293 23.9804 52.1069 23.9804 51.5877C23.9804 48.9263 22.4529 46.6402 19.9939 45.6216C19.1698 45.2803 18.3194 45.1136 17.4815 45.1136C15.8193 45.1136 14.2074 45.7702 12.9563 47.0215C12.7785 47.1992 12.5419 47.2971 12.2904 47.2971C12.0388 47.2971 11.8023 47.1992 11.6246 47.0215L7.97855 43.3755C7.80076 43.1977 7.7029 42.9612 7.7029 42.7096C7.7029 42.4581 7.80076 42.2216 7.97865 42.0437C9.85854 40.1639 10.3933 37.4677 9.37428 35.0076C8.35527 32.5476 6.07073 31.0196 3.41226 31.0196C2.89309 31.0196 2.4706 30.5972 2.4706 30.078V28.2518H14.17C14.5617 35.2649 20.3908 40.8508 27.5 40.8508C34.6092 40.8508 40.4383 35.2649 40.83 28.252H52.5293V30.078ZM18.8537 5.61183C18.56 5.31824 18.56 4.84204 18.8536 4.54846C21.1632 2.23878 24.2339 0.966797 27.5002 0.966797C30.7659 0.966797 33.8365 2.23889 36.1463 4.54889C36.4399 4.84258 36.4399 5.31867 36.1462 5.61226C35.9994 5.7591 35.8069 5.83247 35.6145 5.83247C35.422 5.83247 35.2296 5.75899 35.0828 5.61226C33.0571 3.58639 30.3643 2.4707 27.5002 2.4707C24.6357 2.4707 21.9426 3.58628 19.9171 5.61183C19.6234 5.90541 19.1473 5.90541 18.8537 5.61183ZM27.5002 8.20649C28.8328 8.20649 30.0854 8.72534 31.0277 9.66754C31.3213 9.96112 31.3213 10.4373 31.0277 10.7309C30.8809 10.8778 30.6884 10.9511 30.496 10.9511C30.3036 10.9511 30.1111 10.8776 29.9643 10.7309C29.3062 10.0728 28.4311 9.7104 27.5002 9.7104C26.5693 9.7104 25.6943 10.0728 25.0363 10.7309C24.7426 11.0245 24.2665 11.0245 23.9728 10.7309C23.6792 10.4373 23.6792 9.96112 23.9728 9.66754C24.9151 8.72534 26.1678 8.20649 27.5002 8.20649ZM32.5236 8.17147C31.1818 6.82956 29.3977 6.0905 27.5002 6.0905C25.6026 6.0905 23.8185 6.82945 22.4765 8.17126C22.183 8.46495 21.7068 8.46495 21.4132 8.17126C21.1196 7.87757 21.1196 7.40147 21.4133 7.10789C23.0392 5.48206 25.2009 4.58659 27.5002 4.58659C29.7994 4.58659 31.9611 5.48206 33.5871 7.108C33.8806 7.40169 33.8806 7.87778 33.587 8.17137C33.4402 8.31821 33.2477 8.39158 33.0553 8.39158C32.8628 8.3918 32.6704 8.31843 32.5236 8.17147Z" fill="#002FF5"/>
</g>
<defs>
<clipPath id="clip0_41_9160">
<rect width="55" height="55" fill="white"/>
</clipPath>
</defs>
</svg>
